<svg width="20" height="20" viewBox="0 0 20 20" fill="none" xmlns="http://www.w3.org/2000/svg">
<path d="M10.0007 6.03027C9.68735 6.03027 9.38687 6.15473 9.16534 6.37627C8.9438 6.59781 8.81934 6.89828 8.81934 7.21159C8.81934 7.52489 8.9438 7.82536 9.16534 8.0469C9.38687 8.26844 9.68735 8.3929 10.0007 8.3929C10.314 8.3929 10.6144 8.26844 10.836 8.0469C11.0575 7.82536 11.182 7.52489 11.182 7.21159C11.182 6.89828 11.0575 6.59781 10.836 6.37627C10.6144 6.15473 10.314 6.03027 10.0007 6.03027Z" fill="#FF8BA0"/>
<path d="M10 9.40869V13.6119" stroke="#FF8BA0" stroke-width="1.5"/>
<path fill-rule="evenodd" clip-rule="evenodd" d="M10.0003 1.6665C5.39783 1.6665 1.66699 5.39734 1.66699 9.99984C1.66699 14.6023 5.39783 18.3332 10.0003 18.3332C14.6028 18.3332 18.3337 14.6023 18.3337 9.99984C18.3337 5.39734 14.6028 1.6665 10.0003 1.6665ZM3.33366 9.99984C3.33366 11.7679 4.03604 13.4636 5.28628 14.7139C6.53652 15.9641 8.23222 16.6665 10.0003 16.6665C11.7684 16.6665 13.4641 15.9641 14.7144 14.7139C15.9646 13.4636 16.667 11.7679 16.667 9.99984C16.667 8.23173 15.9646 6.53603 14.7144 5.28579C13.4641 4.03555 11.7684 3.33317 10.0003 3.33317C8.23222 3.33317 6.53652 4.03555 5.28628 5.28579C4.03604 6.53603 3.33366 8.23173 3.33366 9.99984Z" fill="#FF8BA0"/>
</svg>
