<svg width="20" height="20" viewBox="0 0 20 20" fill="none" xmlns="http://www.w3.org/2000/svg">
<path d="M10.0007 6.03076C9.68735 6.03076 9.38687 6.15522 9.16534 6.37676C8.9438 6.5983 8.81934 6.89877 8.81934 7.21208C8.81934 7.52538 8.9438 7.82585 9.16534 8.04739C9.38687 8.26893 9.68735 8.39339 10.0007 8.39339C10.314 8.39339 10.6144 8.26893 10.836 8.04739C11.0575 7.82585 11.182 7.52538 11.182 7.21208C11.182 6.89877 11.0575 6.5983 10.836 6.37676C10.6144 6.15522 10.314 6.03076 10.0007 6.03076Z" fill="#048DFF"/>
<path d="M10 9.40918V13.6124" stroke="#048DFF" stroke-width="1.5"/>
<path fill-rule="evenodd" clip-rule="evenodd" d="M10.0003 1.66675C5.39783 1.66675 1.66699 5.39758 1.66699 10.0001C1.66699 14.6026 5.39783 18.3334 10.0003 18.3334C14.6028 18.3334 18.3337 14.6026 18.3337 10.0001C18.3337 5.39758 14.6028 1.66675 10.0003 1.66675ZM3.33366 10.0001C3.33366 11.7682 4.03604 13.4639 5.28628 14.7141C6.53652 15.9644 8.23222 16.6667 10.0003 16.6667C11.7684 16.6667 13.4641 15.9644 14.7144 14.7141C15.9646 13.4639 16.667 11.7682 16.667 10.0001C16.667 8.23197 15.9646 6.53628 14.7144 5.28604C13.4641 4.03579 11.7684 3.33341 10.0003 3.33341C8.23222 3.33341 6.53652 4.03579 5.28628 5.28604C4.03604 6.53628 3.33366 8.23197 3.33366 10.0001Z" fill="#048DFF"/>
</svg>
