<svg width="151" height="156" viewBox="0 0 151 156" fill="none" xmlns="http://www.w3.org/2000/svg">
<path fill-rule="evenodd" clip-rule="evenodd" d="M62.1684 34.0693L64.5396 34.4092C64.5639 34.4114 64.5875 34.4148 64.6104 34.4193L64.6342 34.4227L64.6337 34.4243C64.6563 34.4297 64.6784 34.4362 64.7 34.4439C65.0026 34.5523 65.2194 34.9006 65.6595 35.6078C65.726 35.7147 65.7977 35.8299 65.8756 35.9537L66.8685 37.5326L67.4898 37.4105C67.8314 37.3435 68.8332 37.147 69.716 36.9741C71.8445 36.557 76.5163 36.1143 78.7054 36.1221C79.6047 36.1253 80.649 36.1268 81.0259 36.1256L81.7112 36.1232L82.0187 35.1624C82.5035 33.6474 82.9881 32.6107 83.2216 32.5886C83.5935 32.5535 86.5621 32.9107 88.1299 33.1792C90.6552 33.6118 94.8451 34.6703 96.3534 35.2567C96.6593 35.3757 96.9932 35.7176 97.8245 36.7636C102.314 42.4119 105.575 48.6274 107.563 55.3229C108.591 58.7861 109.087 61.4548 109.469 65.5784C109.821 69.3717 109.855 71.0179 109.589 71.2667C109.491 71.3577 108.794 71.9364 108.04 72.5526C104.282 75.624 100.324 78.0825 95.9768 80.0448C94.8355 80.56 94.4367 80.7196 94.2455 80.706V80.7084L91.724 80.3301L92.0864 78.6674L92.4137 78.6142C91.3547 77.2264 90.2352 75.6383 90.317 75.5429C90.3551 75.4983 90.7488 75.2792 91.1917 75.0559C92.1162 74.59 94.8736 72.8915 95.2129 72.5791L95.4406 72.3694L94.7313 71.9047L94.022 71.4402L93.2163 71.8852C91.9737 72.5714 89.8422 73.5738 88.5323 74.0878C82.0696 76.6235 75.2625 77.3697 68.4229 76.2921C66.6931 76.0196 63.9507 75.3786 62.5181 74.9121C61.9739 74.7349 61.4622 74.5962 61.381 74.6039C61.2998 74.6115 60.9725 74.8657 60.6536 75.1689C60.1158 75.68 60.0886 75.729 60.2783 75.8454C60.6347 76.0643 64.0597 77.35 64.9324 77.5926C65.3932 77.7208 65.7733 77.8501 65.7769 77.8802C65.8048 78.1159 63.7603 82.2811 62.9359 83.6678C62.9167 83.7002 62.8231 83.7083 62.6576 83.6924L62.6591 83.701L60.2857 83.3359L60.148 83.1431C60.0468 83.1169 59.943 83.0898 59.8366 83.0617C56.9185 82.2926 54.0491 81.2729 51.3062 80.0304C49.7797 79.3388 46.1382 77.4284 45.9066 77.1976C45.5689 76.8612 44.807 70.393 44.7549 67.4211C44.6341 60.5309 45.759 54.1359 48.252 47.542C49.161 45.1375 49.9317 43.4005 51.0971 41.1297C51.1589 41.0093 51.215 40.8985 51.2668 40.796C51.508 40.3194 51.6572 40.0245 51.8674 39.7829C52.2083 39.3912 52.7098 39.1392 54.0242 38.4788C54.1985 38.3913 54.3872 38.2965 54.5917 38.1932C57.048 36.9529 59.4298 35.966 62.1308 35.0729L62.1684 34.0693ZM66.1812 54.8084C67.3481 54.9414 68.2238 55.3288 69.2206 56.153C70.8042 57.4625 71.6719 59.4095 71.6077 61.5097C71.5566 63.1808 71.0704 64.5117 70.0672 65.7271C66.8966 69.5675 61.1774 67.7941 60.0168 62.6105C59.2936 59.3804 61.1247 55.9448 64.069 55.0077C64.9043 54.7419 65.2837 54.706 66.1812 54.8084ZM88.2329 52.8746C91.6133 53.691 93.6883 57.2223 92.9111 60.8358C92.246 63.9277 89.5924 66.0702 86.8373 65.7398C85.4115 65.5689 84.1175 64.9125 83.1811 63.8851C80.8141 61.288 80.7132 57.3191 82.9471 54.6851C83.5485 53.976 84.8317 53.1441 85.6717 52.9187C86.4082 52.7211 87.5183 52.702 88.2329 52.8746Z" fill="#2D3DCA"/>
<path fill-rule="evenodd" clip-rule="evenodd" d="M60.4549 34.4549C57.4223 35.4159 54.8189 36.4711 52.1259 37.8309C49.2247 39.2958 49.5094 39.0565 48.6314 40.7674C47.466 43.0381 46.6952 44.7751 45.7863 47.1797C43.2933 53.7736 42.1683 60.1685 42.2891 67.0587C42.3413 70.0307 43.1032 76.4989 43.4408 76.8353C43.6725 77.0661 47.314 78.9765 48.8405 79.668C51.5833 80.9105 54.4528 81.9303 57.3709 82.6994C59.3264 83.2148 60.3994 83.4245 60.4702 83.3055C61.2945 81.9188 63.339 77.7535 63.3112 77.5178C63.3076 77.4878 62.9275 77.3584 62.4667 77.2303C61.594 76.9877 58.169 75.7019 57.8125 75.483C57.6229 75.3667 57.6501 75.3176 58.1878 74.8066C58.5068 74.5034 58.8341 74.2492 58.9153 74.2415C58.9965 74.2338 59.5082 74.3726 60.0523 74.5498C61.485 75.0163 64.2274 75.6572 65.9571 75.9297C72.7968 77.0073 79.6039 76.2611 86.0665 73.7254C87.3764 73.2115 89.5079 72.2091 90.7506 71.5228L91.5563 71.0778L92.2655 71.5424L92.9748 72.007L92.7471 72.2167C92.4079 72.5292 89.6504 74.2276 88.726 74.6935C88.283 74.9168 87.8894 75.136 87.8512 75.1806C87.7102 75.345 91.1378 79.9434 91.6734 80.3085C91.8258 80.4122 92.1047 80.3173 93.511 79.6825C97.8582 77.7201 101.817 75.2616 105.575 72.1902C106.328 71.5741 107.025 70.9954 107.123 70.9044C107.39 70.6555 107.355 69.0093 107.004 65.2161C106.621 61.0925 106.125 58.4238 105.097 54.9606C103.11 48.2651 99.8482 42.0496 95.3588 36.4012C94.5275 35.3553 94.1936 35.0134 93.8877 34.8944C92.3794 34.3079 88.1894 33.2494 85.6641 32.8169C84.0964 32.5484 81.1277 32.1911 80.7559 32.2263C80.5224 32.2483 80.0378 33.285 79.553 34.8001L79.2455 35.7609L78.5602 35.7632C78.1832 35.7645 77.139 35.763 76.2396 35.7597C74.0506 35.7519 69.3787 36.1947 67.2502 36.6118C66.3675 36.7847 65.3657 36.9811 65.024 37.0482L64.4028 37.1703L63.4098 35.5914C62.2399 33.731 62.4654 33.8177 60.4549 34.4549ZM63.7155 54.446C64.8824 54.579 65.7581 54.9665 66.7549 55.7907C68.3385 57.1001 69.2062 59.0471 69.142 61.1473C69.0909 62.8185 68.6047 64.1494 67.6014 65.3647C64.4309 69.2052 58.7117 67.4317 57.5511 62.2482C56.8278 59.018 58.659 55.5825 61.6032 54.6454C62.4386 54.3795 62.8179 54.3436 63.7155 54.446ZM85.7672 52.5122C89.1476 53.3286 91.2226 56.8599 90.4454 60.4734C89.7802 63.5654 87.1267 65.7079 84.3715 65.3775C82.9457 65.2066 81.6518 64.5501 80.7154 63.5227C78.3484 60.9257 78.2474 56.9568 80.4814 54.3228C81.0828 53.6136 82.3659 52.7818 83.2059 52.5564C83.9425 52.3588 85.0526 52.3397 85.7672 52.5122Z" fill="url(#paint0_linear_5475_233196)"/>
<ellipse cx="64.063" cy="151.916" rx="51.3091" ry="4.05509" fill="#222121"/>
<rect width="64.639" height="48.8829" transform="matrix(0.99116 0.132675 -0.132673 0.99116 25.248 91.1749)" fill="url(#paint1_linear_5475_233196)"/>
<path fill-rule="evenodd" clip-rule="evenodd" d="M50.2869 110.869C50.9274 108.868 52.9272 107.552 55.0822 107.841C61.4517 108.693 65.9389 114.655 65.082 121.056C64.2093 127.576 58.2029 132.233 51.715 131.365L42.7145 130.16C41.0432 129.936 39.5639 128.966 38.6931 127.522C38.3174 130.328 40.2878 132.907 43.094 133.283L51.3109 134.383C59.4976 135.479 67.0087 129.615 68.1003 121.46C69.176 113.424 63.5544 105.902 55.4862 104.822C51.3997 104.275 47.6435 107.145 47.0964 111.231L45.399 123.912L43.6544 123.679C42.9086 123.579 42.385 122.893 42.4848 122.147L44.1126 109.987C44.4578 107.408 46.1104 105.19 48.483 104.121C44.8995 103.641 41.5537 106.15 41.0741 109.734L39.4665 121.743C39.1436 124.156 40.8376 126.374 43.2504 126.697L52.7474 127.968C57.2967 128.577 61.4783 125.383 62.0872 120.833C62.6962 116.284 59.5019 112.103 54.9526 111.494L50.2869 110.869ZM53.1514 124.95L48.4173 124.316L49.8144 113.878L54.5486 114.512C57.4309 114.898 59.4547 117.547 59.0689 120.429C58.683 123.312 56.0337 125.336 53.1514 124.95Z" fill="white"/>
<path d="M25.2486 91.1846L89.3161 99.7606L76.8225 86.6508L12.7549 78.0749L25.2486 91.1846Z" fill="#BF773F"/>
<rect width="27.998" height="48.8829" transform="matrix(-0.99116 -0.132675 -0.132673 0.99116 117.066 103.466)" fill="#83481B"/>
<path d="M97.6468 150.152L104.128 101.734" stroke="#5A3112" stroke-width="1.08206"/>
<path d="M117.064 103.468L89.3139 99.7532L104.215 90.9322L131.966 94.6468L117.064 103.468Z" fill="#BF773F"/>
<path d="M124.86 56.1722C124.702 56.9097 125.037 57.5761 125.408 58.2003C125.901 59.0413 126.422 59.8663 126.937 60.6945C127.453 61.5227 127.959 62.3485 128.429 63.2023C128.451 63.2412 128.476 63.2857 128.497 63.3246C128.158 63.1202 127.827 62.8896 127.502 62.67C126.26 61.8172 124.983 61.021 123.653 60.3052C123.332 60.1341 123.006 59.9663 122.679 59.7985C122.406 59.6591 122.123 59.4745 121.806 59.4697C121.669 59.466 121.546 59.5418 121.45 59.6247C121.081 59.9182 120.753 60.2839 120.442 60.6401C120.238 60.8783 119.991 61.1334 119.864 61.4303C119.805 61.5656 119.843 61.7412 119.877 61.8827C120.188 63.2044 120.785 64.461 121.379 65.6835C121.752 66.4452 122.134 67.2093 122.484 67.9838C122.576 68.188 122.667 68.3921 122.756 68.605C122.175 68.3829 121.641 68.0462 121.117 67.7118C120.531 67.3466 119.938 66.9845 119.267 66.7904C119 66.7139 118.691 66.7114 118.448 66.8543C118.168 67.0108 117.939 67.2849 117.722 67.5152C117.512 67.7423 117.296 67.9726 117.1 68.2132C116.974 68.3638 116.817 68.5391 116.739 68.7213C116.629 68.98 116.721 69.2128 116.835 69.4559C116.998 69.8022 117.179 70.139 117.371 70.4693C117.61 70.8831 117.888 71.2602 118.175 71.6396C117.761 71.557 117.344 71.4546 116.925 71.3896C116.217 71.2894 115.444 71.3421 114.84 71.7379C114.43 72.0107 114.089 72.4202 113.775 72.7852C113.622 72.966 113.456 73.1533 113.326 73.35C113.318 73.3619 113.18 73.5849 113.305 73.5003C114.091 72.9737 115.069 73.113 115.958 73.2947C116.448 73.393 116.935 73.5143 117.44 73.5458C117.937 73.5748 118.328 73.4292 118.687 73.1334C118.719 73.123 118.784 73.0648 118.874 72.9708C119.317 72.5554 119.752 72.1004 120.108 71.6097C120.253 71.4122 120.406 71.2027 120.417 70.9554C120.445 70.4806 119.97 70.0745 119.704 69.7197C119.668 69.6673 119.628 69.6093 119.591 69.5569C119.892 69.7463 120.201 69.938 120.513 70.1067C121.056 70.3941 121.649 70.6099 122.271 70.6347C122.548 70.6476 122.847 70.6191 123.093 70.4817C123.378 70.322 123.605 70.0424 123.824 69.8177C124.173 69.4622 124.578 69.0605 124.816 68.6139C124.945 68.3742 124.897 68.1016 124.819 67.8537C124.714 67.5183 124.577 67.1934 124.444 66.874C124.18 66.2409 123.887 65.6237 123.586 65.0041C123.141 64.0859 122.678 63.1772 122.284 62.2446C122.783 62.5202 123.282 62.8101 123.776 63.1032C124.431 63.4961 125.069 63.9129 125.693 64.3449C126.218 64.7079 126.738 65.0741 127.307 65.3686C127.847 65.6504 128.467 65.8733 129.084 65.8639C129.238 65.858 129.37 65.7845 129.486 65.6976C129.854 65.4041 130.183 65.0384 130.493 64.6822C130.799 64.3293 131.174 63.9809 131.09 63.4809C131.038 63.1741 130.85 62.8779 130.712 62.6047C130.543 62.2615 130.362 61.9248 130.182 61.588C129.827 60.94 129.453 60.3102 129.069 59.6781C128.516 58.7689 127.94 57.8724 127.396 56.9656C126.966 56.2501 126.333 55.3856 126.518 54.5088C126.546 54.3839 126.402 54.5155 126.37 54.5402C126.178 54.6917 126.012 54.8646 125.84 55.0408C125.621 55.2655 125.413 55.4982 125.218 55.7388C125.128 55.8471 124.923 56.0424 124.887 56.1936L124.86 56.1722Z" fill="#AF66A8"/>
<path d="M120.091 71.5909C120.091 71.5909 120.124 71.5431 120.141 71.5193C119.311 72.034 118.169 71.6144 118.169 71.6144C117.756 71.5318 117.339 71.4294 116.92 71.3644C116.211 71.2642 115.438 71.3169 114.834 71.7127C114.424 71.9855 114.083 72.395 113.77 72.76C113.616 72.9408 113.451 73.1281 113.321 73.3248C113.312 73.3367 113.174 73.5597 113.3 73.4751C114.085 72.9485 115.063 73.0878 115.952 73.2695C116.442 73.3678 116.93 73.4891 117.435 73.5206C117.931 73.5496 118.322 73.404 118.682 73.1082C118.713 73.0978 118.778 73.0396 118.868 72.9455C119.311 72.5302 119.747 72.0752 120.103 71.5845L120.091 71.5909Z" fill="#8E3D87"/>
<path d="M122.475 67.9827C122.568 68.1879 122.661 68.3931 122.751 68.6071C122.169 68.3802 121.635 68.0388 121.109 67.6999C120.521 67.3295 119.927 66.9623 119.257 66.7628C118.989 66.6841 118.681 66.6794 118.44 66.8207C118.161 66.9754 117.935 67.2483 117.721 67.4775C117.512 67.7035 117.298 67.9326 117.105 68.1722C117.014 68.2889 116.897 68.4125 116.813 68.5547C117.66 68.3113 119.374 69.4134 119.374 69.4134L119.63 69.6163C119.63 69.6163 119.596 69.5691 119.58 69.5412C119.882 69.7331 120.192 69.9276 120.504 70.0989C121.048 70.3909 121.642 70.6115 122.262 70.6411C122.539 70.6561 122.837 70.6297 123.081 70.494C123.081 70.494 123.553 70.1944 122.475 67.9827Z" fill="#8E3D87"/>
<path d="M128.449 63.3408C128.119 63.1357 127.799 62.9101 127.482 62.69C126.238 61.8258 124.959 61.0178 123.628 60.29C123.307 60.1161 122.981 59.9453 122.654 59.7745C122.381 59.6327 122.098 59.4455 121.781 59.4379C121.645 59.4331 121.523 59.5079 121.428 59.5901C121.064 59.8807 120.74 60.244 120.434 60.5978C120.232 60.8345 119.988 61.0877 119.864 61.3838C119.864 61.3838 119.864 61.3838 119.862 61.3925L120.01 61.2733C120.01 61.2733 120.65 61.0353 122.261 62.2091C122.76 62.4892 123.26 62.7836 123.754 63.0812C124.41 63.4801 125.049 63.9028 125.674 64.3405C126.2 64.7083 126.721 65.0793 127.291 65.3789C127.831 65.6657 128.45 65.894 129.064 65.8899C129.146 65.8888 129.223 65.8678 129.294 65.8357C129.359 65.7923 129.56 65.4752 128.453 63.3463L128.449 63.3408Z" fill="#8E3D87"/>
<path d="M133.36 51.4027C135.457 55.1229 139.737 56.974 143.417 53.8775C146.199 51.5362 149.032 48.9288 147.993 44.9841C148.098 45.3761 145.578 46.5286 145.692 46.9582C146.061 48.3657 145.929 49.7024 145.406 51.0742C145.148 51.7465 144.738 52.3554 144.304 52.9294C143.831 53.4608 143.942 53.3831 144.628 52.7024C144.227 52.9661 143.783 53.1425 143.335 53.3082C140.114 54.5128 137.093 51.9624 135.662 49.4236C135.746 49.5691 133.255 51.2151 133.361 51.3977L133.36 51.4027Z" fill="#BC9A2B"/>
<path d="M143.417 53.8775C139.737 56.9739 135.457 55.1229 133.36 51.4027L133.361 51.3976C133.305 51.3011 133.974 50.7961 134.605 50.3197C135.169 49.8945 135.702 49.4922 135.662 49.4235C137.093 51.9623 140.114 54.5127 143.335 53.3081C143.682 53.1799 144.026 53.0453 144.35 52.8687C144.45 52.7354 144.548 52.6003 144.643 52.4628H144.655L143.983 53.3964C143.795 53.5582 143.606 53.7185 143.417 53.8775Z" fill="#FFEE6F"/>
<path d="M114.838 30.0919C114.943 30.4839 112.424 31.6364 112.537 32.066C112.906 33.4735 112.774 34.8102 112.251 36.182C112.012 36.8107 111.635 37.3836 111.231 37.9236C111.408 37.8384 111.6 37.7428 111.8 37.6379C113.966 35.6238 115.682 33.2989 114.838 30.0919Z" fill="#00B6E0"/>
<path d="M128.896 35.4136C130.454 30.1257 136.268 22.6677 136.268 22.6677L138.632 24.7051C138.632 24.7051 132.819 32.1631 131.261 37.4511L128.896 35.4136Z" fill="#5FBE85"/>
<path d="M55.9396 10.6958C56.4598 12.2885 54.9412 13.4336 53.8526 14.3086C52.6206 15.2928 51.6281 16.2776 51.9225 17.7824C51.7341 17.2968 51.5298 16.9242 51.2957 16.303C50.7064 14.7653 51.5193 13.5411 52.655 12.5618C53.7384 11.6288 55.6862 10.4482 55.1245 8.73084C55.2855 9.22381 55.7328 10.0672 55.9391 10.7009L55.9396 10.6958Z" fill="#AF66A8"/>
<path d="M45.2484 3.28794C47.6802 3.91514 50.0321 4.76825 52.2906 5.87709C53.1706 6.30965 54.2534 6.84843 54.704 7.77047C55.1058 8.5879 55.6024 9.47334 55.7948 10.3665C55.6423 9.67092 55.0461 9.05094 54.8941 8.3502C54.8704 8.20663 54.8356 8.06705 54.7794 7.93027C55.0556 8.55618 55.3371 9.18268 55.6128 9.81375C55.5818 9.74765 55.5508 9.68155 55.5193 9.62061L55.5861 9.75857C54.758 8.38194 52.9187 7.73757 51.5026 7.11973C49.7693 6.3672 47.9725 5.77979 46.1487 5.30939C46.0137 5.2734 45.7374 4.42305 45.6849 4.30236C45.6362 4.19774 45.3523 3.31523 45.2432 3.28735L45.2484 3.28794Z" fill="#8E3D86"/>
<path d="M51.5823 16.9245C51.9951 17.738 52.8889 17.9685 52.8889 17.9685C54.3138 18.436 56.3173 17.961 57.6198 18.3156C58.4915 18.5541 58.9875 19.2203 59.3856 19.9643C59.4225 19.9684 59.5447 20.1961 59.7532 20.6369C59.8124 20.7427 59.8712 20.8537 59.9251 20.9589C59.0461 20.2342 58.0257 20.1617 58.0257 20.1617C56.9298 19.9868 55.6886 20.1661 54.6084 20.0504C53.7341 19.9525 53.0102 19.5583 52.5637 18.8194C52.5627 18.8297 52.5675 18.8355 52.5718 18.8464C52.5579 18.8239 52.5498 18.7969 52.536 18.7745C52.5221 18.7521 52.5078 18.7348 52.4992 18.713C52.1908 18.1461 51.7212 17.4829 51.5283 16.8193C51.5412 16.8521 51.5598 16.8803 51.5727 16.913L51.5823 16.9245Z" fill="#8E3D86"/>
<path d="M117.733 14.3511C116.54 17.7566 113.99 19.321 113.99 19.321L111.07 17.1998C111.07 17.1998 113.615 15.6345 114.813 12.2299L117.733 14.3511Z" fill="#F05B5B"/>
<path d="M139.059 74.8529C143.81 73.2675 147.695 74.736 147.695 74.736L147.849 79.7437C147.849 79.7437 143.968 78.2816 139.213 79.8606L139.059 74.8529Z" fill="#F05B5B"/>
<path d="M37.3563 34.1341C34.3487 32.9855 33.0401 30.7151 33.0401 30.7151L35.0471 28.2412C35.0471 28.2412 36.3567 30.5072 39.3634 31.6602L37.3563 34.1341Z" fill="#F05B5B"/>
<path d="M21.683 17.8982C18.3942 21.2273 14.6076 21.6391 14.6076 21.6391L12.4913 17.5206C12.4913 17.5206 16.2725 17.1048 19.5667 13.7797L21.683 17.8982Z" fill="#FFEE6F"/>
<path d="M25.262 70.068C27.6602 70.6964 32.1158 68.7701 32.6728 67.376C32.4422 67.5523 29.2499 65.271 29.4656 65.1591C28.581 66.2599 24.1452 66.6748 22.2416 65.3474C22.3055 65.4338 23.2586 67.647 23.443 67.8111C23.4963 68.0304 24.9626 70.0688 25.26 70.0722L25.262 70.068Z" fill="#00B6E0"/>
<path d="M28.3317 52.8068C28.6075 53.235 27.6512 52.0471 27.3817 51.6178C26.946 50.9241 26.5195 50.2079 26.1798 49.4514C25.8336 48.6754 25.6078 47.8841 25.461 47.0437C25.1605 45.3051 24.9951 43.5417 24.6161 41.8175C24.4768 41.1873 24.3175 40.5538 24.1015 39.9482C23.871 39.7234 23.622 39.5228 23.3455 39.3688C21.8704 38.533 20.113 38.7344 18.5498 39.0459C16.9647 39.3614 15.3343 39.7893 13.7128 39.4141C12.1488 39.0526 10.773 38.136 9.73784 36.8308C9.3098 36.2918 8.96327 35.6442 8.65088 35.025C8.54733 34.822 8.41652 34.5927 8.36402 34.3664C8.31995 34.1698 8.54396 34.4687 8.52729 34.4475C8.56868 34.4989 8.61008 34.5502 8.65147 34.6016C9.69061 35.8367 11.2073 36.6511 12.7371 36.8349C14.3932 37.0373 15.9875 36.5327 17.5997 36.2608C19.1366 36.0028 20.9079 35.9549 22.2543 36.9636C23.1353 37.6275 23.7476 38.6461 24.2986 39.6101C24.8673 40.602 25.3674 41.6274 25.7154 42.7293C26.2491 44.4112 26.4811 46.1658 26.7333 47.9064C26.8497 48.7212 26.9534 49.5557 27.1451 50.3566C27.152 50.3588 27.1563 50.365 27.1632 50.3672C27.1632 50.3672 27.2618 51.154 28.3248 52.8046L28.3317 52.8068Z" fill="#3A8959"/>
<path d="M18.5514 39.0422C20.1145 38.7307 21.8751 38.5287 23.3471 39.3651C23.621 39.523 23.8726 39.7196 24.1031 39.9444C24.1097 39.964 24.117 39.987 24.1237 40.0066C24.4015 40.2053 24.6503 40.4233 24.8706 40.6639C24.6918 40.3082 24.5041 39.9575 24.3038 39.6092C23.7523 38.6418 23.14 37.6232 22.2596 36.9626C20.9132 35.954 19.1413 35.9984 17.605 36.2599C15.9928 36.5318 14.3954 37.0369 12.7424 36.834C11.2089 36.6473 9.69531 35.8324 8.65675 34.6007C8.61536 34.5493 8.57397 34.4979 8.53258 34.4465C8.54925 34.4677 8.32523 34.1689 8.3693 34.3655C8.4218 34.5918 8.55262 34.821 8.65616 35.0241C8.97169 35.6427 9.3145 36.2875 9.74313 36.8298C10.7783 38.1351 12.1566 39.0477 13.7181 39.4131C15.3396 39.7883 16.9668 39.361 18.5551 39.0449L18.5514 39.0422Z" fill="#5FBE85"/>
<defs>
<linearGradient id="paint0_linear_5475_233196" x1="71.4687" y1="33.1041" x2="76.0766" y2="81.8527" gradientUnits="userSpaceOnUse">
<stop stop-color="#5566FB"/>
<stop offset="1" stop-color="#6373FF"/>
</linearGradient>
<linearGradient id="paint1_linear_5475_233196" x1="32.3195" y1="0" x2="32.3195" y2="48.8829" gradientUnits="userSpaceOnUse">
<stop stop-color="#91501F"/>
<stop offset="1" stop-color="#A7632F"/>
</linearGradient>
</defs>
</svg>
