<svg width="222" height="34" viewBox="0 0 222 34" fill="none" xmlns="http://www.w3.org/2000/svg">
<path d="M38.6936 27.0356V8.32292H44.8784C50.9045 8.32292 55.9527 10.8867 55.9527 17.7321C55.9527 23.7847 51.0102 27.0356 45.4334 27.0356H38.6936ZM42.8168 12.1289V23.2297H44.9576C48.7901 23.2297 51.671 21.776 51.671 17.5207C51.671 13.8469 48.7372 12.1289 45.2484 12.1289H42.8168ZM57.7708 20.6131C57.7708 16.5163 60.9425 13.8733 64.907 13.8733C68.8716 13.8733 72.0432 16.5163 72.0432 20.6131C72.0432 24.7098 68.8716 27.3528 64.907 27.3528C60.9425 27.3528 57.7708 24.7098 57.7708 20.6131ZM61.7354 20.6131C61.7354 22.5425 62.9247 23.864 64.907 23.864C66.8893 23.864 68.0787 22.5425 68.0787 20.6131C68.0787 18.6836 66.8893 17.3621 64.907 17.3621C62.9247 17.3621 61.7354 18.6836 61.7354 20.6131ZM74.7484 33.0618V14.1905H78.3958V15.882H78.4487C79.0566 14.9569 80.5895 13.8733 82.3868 13.8733C86.1928 13.8733 88.7037 16.6221 88.7037 20.5073C88.7037 24.0754 86.4835 27.3528 82.8361 27.3528C81.1974 27.3528 79.6645 26.9035 78.7658 25.6613H78.713V33.0618H74.7484ZM78.3958 20.6131C78.3958 22.5425 79.5852 23.864 81.5675 23.864C83.5498 23.864 84.7391 22.5425 84.7391 20.6131C84.7391 18.6836 83.5498 17.3621 81.5675 17.3621C79.5852 17.3621 78.3958 18.6836 78.3958 20.6131ZM91.3965 33.0618V14.1905H95.0439V15.882H95.0967C95.7046 14.9569 97.2376 13.8733 99.0349 13.8733C102.841 13.8733 105.352 16.6221 105.352 20.5073C105.352 24.0754 103.132 27.3528 99.4842 27.3528C97.8455 27.3528 96.3125 26.9035 95.4139 25.6613H95.361V33.0618H91.3965ZM95.0439 20.6131C95.0439 22.5425 96.2332 23.864 98.2155 23.864C100.198 23.864 101.387 22.5425 101.387 20.6131C101.387 18.6836 100.198 17.3621 98.2155 17.3621C96.2332 17.3621 95.0439 18.6836 95.0439 20.6131ZM107.727 27.0356V7.05426H111.692V27.0356H107.727ZM123.923 22.7803L126.698 24.8155C125.43 26.4277 123.342 27.3528 121.28 27.3528C117.315 27.3528 114.144 24.7098 114.144 20.6131C114.144 16.5163 117.315 13.8733 121.28 13.8733C124.98 13.8733 127.306 16.5163 127.306 20.6131V21.8553H118.108C118.425 23.3618 119.562 24.3397 121.095 24.3397C122.39 24.3397 123.262 23.679 123.923 22.7803ZM118.108 19.1594H123.342C123.368 17.8379 122.337 16.7278 120.91 16.7278C119.166 16.7278 118.214 17.9172 118.108 19.1594Z" fill="white"/>
<path fill-rule="evenodd" clip-rule="evenodd" d="M9.885 7.11718C10.2783 4.91483 12.2033 3.24305 14.5187 3.24305C21.3625 3.24305 26.9413 8.90201 26.9413 15.78C26.9413 22.7852 21.2593 28.5493 14.2882 28.5493H4.61751C2.82181 28.5493 1.12323 27.734 0 26.3329C0 29.3481 2.44425 31.7923 5.45938 31.7923H14.2882C23.0844 31.7923 30.1843 24.542 30.1843 15.78C30.1843 7.14521 23.1877 0 14.5187 0C10.1279 0 6.56846 3.55945 6.56846 7.95026V21.5752H4.69389C3.89261 21.5752 3.24305 20.9256 3.24305 20.1244V7.22063V7.05859C3.24305 4.28733 4.674 1.71251 7.02738 0.249135C3.17713 0.249135 0 3.37038 0 7.22063V20.1244C0 22.7167 2.10153 24.8182 4.69389 24.8182H14.8981C19.7861 24.8182 23.7487 20.8557 23.7487 15.9677C23.7487 11.0797 19.7861 7.11718 14.8981 7.11718H9.885ZM14.8986 21.5753H9.81201V10.3603H14.8986C17.9956 10.3603 20.5061 12.8708 20.5061 15.9678C20.5061 19.0647 17.9956 21.5753 14.8986 21.5753Z" fill="white"/>
</svg>
