<svg width="100" height="101" viewBox="0 0 100 101" fill="none" xmlns="http://www.w3.org/2000/svg">
<rect y="0.5" width="100" height="100" rx="15" fill="#EDEDF0"/>
<path fill-rule="evenodd" clip-rule="evenodd" d="M35.7585 38.5237C35.7585 33.6333 39.7229 29.6689 44.6133 29.6689C49.5036 29.6689 53.468 33.6333 53.468 38.5237V42.938H35.7585V38.5237ZM30.7585 42.938V38.5237C30.7585 30.8719 36.9615 24.6689 44.6133 24.6689C52.265 24.6689 58.468 30.8719 58.468 38.5237V42.938H63.8797V52.6929C56.5759 52.6932 50.6551 58.6142 50.6551 65.9181C50.6551 67.0683 50.8019 68.1842 51.0779 69.248H25.7109V42.938H30.7585ZM46.4553 57.33C47.6683 56.7199 48.5006 55.464 48.5006 54.0136C48.5006 51.9647 46.8397 50.3038 44.7908 50.3038C42.7419 50.3038 41.081 51.9647 41.081 54.0136C41.081 55.4626 41.9117 56.7175 43.1228 57.3282V60.7067H46.4553V57.33Z" fill="#687078"/>
<path fill-rule="evenodd" clip-rule="evenodd" d="M63.8814 76.3309C69.6322 76.3309 74.2941 71.669 74.2941 65.9182C74.2941 60.1675 69.6322 55.5056 63.8814 55.5056C58.1307 55.5056 53.4688 60.1675 53.4688 65.9182C53.4688 71.669 58.1307 76.3309 63.8814 76.3309ZM63.2341 69.1918L69.3216 63.4847L67.9538 62.0256L62.5974 67.0472L59.857 64.1111L58.3949 65.4757L61.8191 69.1445L62.503 69.8772L63.2341 69.1918Z" fill="#687078"/>
</svg>
