<svg width="100" height="101" viewBox="0 0 100 101" fill="none" xmlns="http://www.w3.org/2000/svg">
<rect y="0.5" width="100" height="100" rx="15" fill="#23252B"/>
<path fill-rule="evenodd" clip-rule="evenodd" d="M49.9023 33C45.012 33 41.0476 36.9644 41.0476 41.8548V46.2691H58.7571V41.8548C58.7571 36.9644 54.7927 33 49.9023 33ZM36.0476 41.8548V46.2691H31V72.5791H69.1687V46.2691H63.7571V41.8548C63.7571 34.203 57.5541 28 49.9023 28C42.2505 28 36.0476 34.203 36.0476 41.8548ZM53.7897 57.3447C53.7897 58.7951 52.9574 60.051 51.7443 60.6611V64.0378H48.4119V60.6593C47.2008 60.0486 46.37 58.7937 46.37 57.3447C46.37 55.2958 48.031 53.6349 50.0799 53.6349C52.1287 53.6349 53.7897 55.2958 53.7897 57.3447Z" fill="#848D97"/>
</svg>
