<svg width="100" height="101" viewBox="0 0 100 101" fill="none" xmlns="http://www.w3.org/2000/svg">
<rect y="0.5" width="100" height="100" rx="15" fill="#EDEDF0"/>
<path fill-rule="evenodd" clip-rule="evenodd" d="M37.5734 39.8922C37.5734 35.0437 41.5038 31.1133 46.3523 31.1133C51.2007 31.1133 55.1312 35.0437 55.1312 39.8922V44.277H37.5734V39.8922ZM32.5734 44.277V39.8922C32.5734 32.2823 38.7424 26.1133 46.3523 26.1133C53.9621 26.1133 60.1312 32.2823 60.1312 39.8922V44.277H65.4918V54.7692L53.6318 66.5719L52.7326 70.4112H27.5781V44.277H32.5734ZM48.1852 58.5729C49.3901 57.9669 50.2169 56.7193 50.2169 55.2787C50.2169 53.2435 48.567 51.5936 46.5319 51.5936C44.4967 51.5936 42.8468 53.2435 42.8468 55.2787C42.8468 56.718 43.672 57.9645 44.875 58.5711V61.927H48.1852V58.5729Z" fill="#687078"/>
<path fill-rule="evenodd" clip-rule="evenodd" d="M66.8673 56.2891L72.4221 61.8261L68.2808 66.0085L65.4414 63.169L62.6979 60.4254L66.8673 56.2891ZM61.7219 61.3937L55.5646 67.5022C55.3941 67.6727 55.2745 67.8843 55.2245 68.1039L53.7531 74.887L60.6273 73.4844C60.8406 73.4321 61.0453 73.3143 61.211 73.1486L67.3135 66.9855L64.4693 64.1411L61.7219 61.3937Z" fill="#687078"/>
</svg>
