<svg width="55" height="55" viewBox="0 0 55 55" fill="none" xmlns="http://www.w3.org/2000/svg">
<path d="M13.7362 27.5C13.7362 35.0928 19.9127 41.2692 27.5055 41.2692C35.0982 41.2692 41.2747 35.0928 41.2747 27.5C41.2747 19.9072 35.0982 13.7308 27.5055 13.7308C19.9127 13.7308 13.7362 19.9072 13.7362 27.5ZM24.75 46.75H30.25V55H24.75V46.75ZM24.75 0H30.25V8.25H24.75V0ZM0 24.75H8.25V30.25H0V24.75ZM46.75 24.75H55V30.25H46.75V24.75ZM6.10775 44.9982L11.9377 39.1628L15.829 43.0513L9.999 48.8867L6.10775 44.9982ZM39.1655 11.946L45.001 6.1105L48.8895 9.999L43.054 15.8345L39.1655 11.946ZM11.946 15.8372L6.1105 10.0017L10.0017 6.11325L15.8317 11.9487L11.946 15.8372ZM48.8895 45.001L45.001 48.8895L39.1655 43.054L43.054 39.1655L48.8895 45.001Z" fill="#23252B"/>
</svg>
