<svg width="18" height="18" viewBox="0 0 18 18" fill="none" xmlns="http://www.w3.org/2000/svg">
<g clip-path="url(#clip0_6692_65894)">
<path d="M14.3782 8.23563L11.0505 11.6809L4.99739 12.4664L5.92527 6.50912L9.67276 2.88734L1.65015 2.88746C1.5016 2.99539 1.75809 2.7389 1.65015 2.88746L1.64928 2.88732V15.6163H1.65036C1.65249 15.6163 1.64928 15.6163 1.64928 15.6163C1.64928 15.6163 1.64823 15.6163 1.65036 15.6163H14.3782C14.2703 15.7648 14.5268 15.5083 14.3782 15.6163V8.23563Z" fill="white"/>
<path fill-rule="evenodd" clip-rule="evenodd" d="M13.7496 0.767578L16.8181 3.8263L14.6857 5.97988L13.116 4.41007L11.603 2.8971L13.7496 0.767578ZM10.7491 3.74426L7.50582 6.96186C7.41166 7.05601 7.34559 7.17292 7.31796 7.29426L6.50513 11.0413L10.3025 10.2665C10.4204 10.2376 10.5335 10.1725 10.625 10.081L13.8394 6.83463L12.2654 5.2606L10.7491 3.74426Z" fill="white"/>
</g>
<defs>
<clipPath id="clip0_6692_65894">
<rect width="17.499" height="17.499" fill="white" transform="translate(0.250977 0.25)"/>
</clipPath>
</defs>
</svg>
