<svg width="16" height="15" viewBox="0 0 16 15" fill="none" xmlns="http://www.w3.org/2000/svg">
<path d="M14.5941 14.9824L12.519 12.9074C11.9563 13.2825 11.3497 13.5698 10.6993 13.7691C10.0489 13.9684 9.36007 14.068 8.63275 14.068C7.65971 14.068 6.74529 13.8833 5.88949 13.5137C5.03369 13.1442 4.28926 12.6432 3.6562 12.0106C3.02314 11.3775 2.52208 10.6331 2.15303 9.77727C1.78398 8.92146 1.59922 8.00704 1.59875 7.03401C1.59875 6.30716 1.6984 5.6183 1.8977 4.96742C2.09699 4.31654 2.38422 3.7102 2.75936 3.14842L0.666748 1.0551L1.66909 0.0527551L15.5964 13.9801L14.5941 14.9824ZM7.92935 12.626V11.2544C7.54248 11.2544 7.21118 11.1168 6.93545 10.8415C6.65971 10.5663 6.52208 10.2349 6.52255 9.84761V9.14421L3.14623 5.76789C3.11106 5.97891 3.07871 6.18993 3.04916 6.40095C3.01962 6.61197 3.00508 6.82299 3.00555 7.03401C3.00555 8.45253 3.47167 9.69521 4.40391 10.762C5.33615 11.8289 6.5113 12.4502 7.92935 12.626ZM14.5061 10.8851L13.4862 9.86519C13.7324 9.43143 13.923 8.97727 14.0581 8.50271C14.1931 8.02815 14.2604 7.53858 14.2599 7.03401C14.2599 5.88512 13.9404 4.83588 13.3012 3.88629C12.6621 2.9367 11.8093 2.25088 10.7429 1.82884V2.1102C10.7429 2.49707 10.6051 2.82837 10.3293 3.10411C10.0536 3.37984 9.72255 3.51747 9.33615 3.517H7.92935V4.30833L4.78164 1.16061C5.34436 0.797188 5.94811 0.513014 6.59289 0.308089C7.23767 0.103165 7.91763 0.000468934 8.63275 0C9.60579 0 10.5202 0.18476 11.376 0.55428C12.2318 0.9238 12.9762 1.42486 13.6093 2.05745C14.2424 2.69051 14.7437 3.43494 15.1132 4.29074C15.4827 5.14655 15.6672 6.06097 15.6667 7.03401C15.6667 7.74913 15.5641 8.42908 15.3587 9.07387C15.1533 9.71865 14.8691 10.3224 14.5061 10.8851Z" fill="white"/>
</svg>
