<svg width="35" height="36" viewBox="0 0 35 36" fill="none" xmlns="http://www.w3.org/2000/svg">
<g clip-path="url(#clip0_5815_283192)">
<mask id="mask0_5815_283192" style="mask-type:alpha" maskUnits="userSpaceOnUse" x="0" y="0" width="35" height="36">
<rect y="0.500732" width="35" height="35" fill="#F3B286"/>
</mask>
<g mask="url(#mask0_5815_283192)">
<rect y="0.500732" width="35" height="35" fill="url(#paint0_linear_5815_283192)"/>
<path d="M6.44629 18.823L34.0487 16.9909C32.9741 16.6959 28.9911 16.4215 20.5207 16.9909C11.1502 17.6207 8.55345 18.4016 6.44629 18.823Z" fill="#A71216"/>
<ellipse cx="7.83089" cy="5.38464" rx="3.31672" ry="2.1978" transform="rotate(18.2654 7.83089 5.38464)" fill="#AB090D"/>
<ellipse cx="14.6916" cy="9.21257" rx="1.96174" ry="1.60743" transform="rotate(18.2654 14.6916 9.21257)" fill="#AB090D"/>
<ellipse cx="25.0217" cy="7.53698" rx="1.85704" ry="1.52164" transform="rotate(41.5129 25.0217 7.53698)" fill="#AB090D"/>
<ellipse cx="21.0375" cy="2.71377" rx="1.27587" ry="1.04543" transform="rotate(55.3596 21.0375 2.71377)" fill="#AB090D"/>
<path d="M16.1408 5.4786C14.6317 5.98045 13.4269 4.63529 13.1725 3.50872C13.0985 3.18078 13.2269 2.85056 13.4414 2.59174C14.267 1.59587 15.34 0.772683 16.3201 0.244026C16.7175 0.0297024 17.1832 0.291594 17.2324 0.740382C17.4374 2.61239 17.381 5.06621 16.1408 5.4786Z" fill="#F1BB42"/>
<path fill-rule="evenodd" clip-rule="evenodd" d="M13.7744 4.7004C14.2343 4.71766 14.7375 4.66028 15.2755 4.50482C16.4351 4.16979 17.0388 3.15084 17.3179 1.98216C17.3598 3.55955 17.1178 5.15353 16.1401 5.47866C15.1675 5.80209 14.3213 5.35836 13.7744 4.7004Z" fill="url(#paint1_linear_5815_283192)"/>
<path d="M20.6803 10.677C19.0996 10.8522 18.2027 9.2848 18.1896 8.12995C18.1858 7.79378 18.3803 7.49769 18.6443 7.28947C19.6599 6.48828 20.8813 5.90768 21.9503 5.59568C22.3837 5.4692 22.7843 5.82268 22.7386 6.27183C22.5476 8.14533 21.9793 10.5331 20.6803 10.677Z" fill="#F1BB42"/>
<path fill-rule="evenodd" clip-rule="evenodd" d="M18.5293 9.42103C18.9753 9.53407 19.4794 9.5832 20.0381 9.54369C21.2422 9.45855 22.0457 8.58811 22.5631 7.50342C22.2742 9.05492 21.7042 10.5635 20.68 10.677C19.6611 10.7899 18.9264 10.1789 18.5293 9.42103Z" fill="url(#paint2_linear_5815_283192)"/>
<path d="M17.8122 18.0874L6.64551 18.7654C7.31918 21.8232 9.40466 24.2888 13.4465 23.7811C16.6799 23.375 17.9394 20.1818 17.8122 18.0874Z" fill="#AB090D"/>
<mask id="mask1_5815_283192" style="mask-type:alpha" maskUnits="userSpaceOnUse" x="6" y="18" width="12" height="6">
<path d="M17.8122 18.0874L6.64551 18.7654C7.29344 21.3992 9.35739 23.5102 13.4014 23.0384C16.6365 22.661 17.9219 19.8942 17.8122 18.0874Z" fill="white"/>
</mask>
<g mask="url(#mask1_5815_283192)">
<path d="M17.8122 18.0874L6.64551 18.7654C7.29344 21.3992 9.35739 23.5102 13.4014 23.0384C16.6365 22.661 17.9219 19.8942 17.8122 18.0874Z" fill="white"/>
</g>
<path d="M33.4 16.8722L24.2993 17.4944C24.8432 20.2047 26.4963 22.138 29.7908 21.6803C32.4263 21.314 33.5002 18.7291 33.4 16.8722Z" fill="#AB090D"/>
<mask id="mask2_5815_283192" style="mask-type:alpha" maskUnits="userSpaceOnUse" x="24" y="16" width="10" height="6">
<path d="M33.4 16.8722L24.2993 17.4944C24.8274 19.9117 26.4688 21.6268 29.7645 21.1938C32.4012 20.8474 33.4894 18.5304 33.4 16.8722Z" fill="white"/>
</mask>
<g mask="url(#mask2_5815_283192)">
<path d="M33.4 16.8722L24.2993 17.4944C24.8274 19.9117 26.4688 21.6268 29.7645 21.1938C32.4012 20.8474 33.4894 18.5304 33.4 16.8722Z" fill="white"/>
</g>
<path d="M12.2253 33.2286L10.7559 30.3262H13.8653L12.8771 33.1843C12.7747 33.4804 12.3668 33.5081 12.2253 33.2286Z" fill="white"/>
<path d="M31.2094 27.396C22.8694 29.481 12.4965 29.9707 8.35254 29.9549C8.35254 30.9145 11.9378 30.959 17.746 30.2398C23.5542 29.5207 29.5284 28.525 30.4134 28.1931C31.1215 27.9276 31.2391 27.5511 31.2094 27.396Z" fill="black"/>
<ellipse cx="20.1936" cy="24.7848" rx="1.28645" ry="0.785687" transform="rotate(31.1469 20.1936 24.7848)" fill="#570D11"/>
<ellipse cx="24.2509" cy="24.4663" rx="1.03935" ry="0.634775" transform="rotate(121.323 24.2509 24.4663)" fill="#570D11"/>
</g>
</g>
<defs>
<linearGradient id="paint0_linear_5815_283192" x1="17.5" y1="0.500732" x2="17.5" y2="35.5007" gradientUnits="userSpaceOnUse">
<stop stop-color="#DA1818"/>
<stop offset="1" stop-color="#F23F4F"/>
</linearGradient>
<linearGradient id="paint1_linear_5815_283192" x1="15.3457" y1="2.40392" x2="16.1793" y2="6.30124" gradientUnits="userSpaceOnUse">
<stop stop-color="#D69C1C"/>
<stop offset="1" stop-color="#D69C1C" stop-opacity="0"/>
</linearGradient>
<linearGradient id="paint2_linear_5815_283192" x1="20.5462" y1="7.50342" x2="20.5463" y2="11.4897" gradientUnits="userSpaceOnUse">
<stop stop-color="#D69C1C"/>
<stop offset="1" stop-color="#D69C1C" stop-opacity="0"/>
</linearGradient>
<clipPath id="clip0_5815_283192">
<rect y="0.500732" width="34.9999" height="35" rx="5.83333" fill="white"/>
</clipPath>
</defs>
</svg>
