<svg width="141" height="90" viewBox="0 0 141 90" fill="none" xmlns="http://www.w3.org/2000/svg">
<path d="M177 40.4896V40.6983C177 44.4769 175.914 48.0049 174.041 50.9901L174.09 50.9066C172.216 53.9452 169.536 56.4046 166.348 58.0114L166.236 58.0601C166.988 60.8644 167.42 64.0793 167.42 67.4055V67.5308C167.369 77.9463 163.624 87.9993 156.851 95.915L156.9 95.8524C149.335 104.893 139.641 111.914 128.689 116.283L128.209 116.45C116.826 121.224 103.598 124 89.7149 124L88.6497 123.993H88.7054L87.6889 124C73.8272 124 60.6199 121.224 48.5823 116.199L49.2507 116.45C38.1748 112.105 28.3604 105.063 20.6987 95.9637L20.6082 95.8524C13.8654 87.9529 10.1408 77.9213 10.0953 67.5377V67.489C10.0953 64.2185 10.4851 61.0314 11.2162 57.9836L11.1605 58.2619C7.8707 56.6591 5.08612 54.1817 3.11218 51.1015L3.06345 51.0249C1.05271 47.8845 -0.0107742 44.2319 8.22966e-05 40.5035C8.22966e-05 35.0966 2.18621 30.1978 5.72997 26.6489C7.48879 24.8203 9.59935 23.3661 11.9348 22.3735C14.2703 21.381 16.7824 20.8707 19.3202 20.8732H19.6683H19.6474H19.9189C25.4817 20.8732 30.4945 23.26 33.9756 27.0594L33.9895 27.0733C48.9597 16.8249 66.6415 11.2586 84.7857 11.0824H84.8414L96.3012 -40.3418C96.5004 -41.195 97.0282 -41.9351 97.7702 -42.4016L97.7841 -42.4085C98.156 -42.6699 98.5793 -42.8491 99.0259 -42.9343C99.4724 -43.0195 99.932 -43.0087 100.374 -42.9026L100.353 -42.9095L136.793 -34.9141C138.005 -37.3705 139.822 -39.3606 142.064 -40.7454L142.126 -40.7802C144.347 -42.1719 147.049 -43 149.945 -43C154.018 -43 157.715 -41.3647 160.395 -38.7065C163.076 -36.1388 164.74 -32.5273 164.74 -28.5261V-28.2756V-28.2895V-28.0807C164.74 -24.0586 163.076 -20.4262 160.395 -17.8376L160.388 -17.8307C159.017 -16.451 157.385 -15.3568 155.588 -14.6115C153.79 -13.8662 151.863 -13.4845 149.917 -13.4885C146.011 -13.485 142.264 -15.0289 139.495 -17.7819C138.133 -19.1022 137.051 -20.6825 136.313 -22.4291C135.576 -24.1756 135.197 -26.0526 135.199 -27.9485V-28.2129V-28.199L102.212 -35.5056L91.9428 11.0755C111.068 11.2146 128.794 17.0947 143.512 27.0803L143.185 26.8715C145.012 24.9655 147.208 23.4494 149.638 22.4149C152.068 21.3803 154.683 20.8488 157.325 20.8523C162.755 20.8523 167.671 23.0582 171.228 26.628C174.772 30.0795 176.972 34.9018 176.972 40.2321V40.5035V40.4896H177ZM41.3138 60.1268V60.3495C41.3138 64.3577 42.9568 67.9831 45.6094 70.5856C46.9249 71.9606 48.5059 73.0545 50.2567 73.8009C52.0075 74.5472 53.8917 74.9306 55.7951 74.9278H56.0458H56.0318C59.96 74.9241 63.7263 73.3628 66.5039 70.5866C69.2816 67.8103 70.8437 64.046 70.8474 60.1199V59.8833C70.8474 55.882 69.1834 52.2705 66.503 49.7097L66.496 49.7028C65.1614 48.341 63.5679 47.2597 61.8091 46.5223C60.0504 45.785 58.1618 45.4066 56.2546 45.4093H56.0179H56.0318C52.1397 45.442 48.4161 47.0014 45.6632 49.7516C42.9103 52.5018 41.3483 56.2227 41.3138 60.1129V60.1268ZM121.302 95.1704C121.647 94.8375 121.922 94.4386 122.109 93.9974C122.296 93.5563 122.393 93.0819 122.393 92.6027C122.393 92.1235 122.296 91.6491 122.109 91.208C121.922 90.7668 121.647 90.3679 121.302 90.035C120.993 89.7205 120.623 89.471 120.215 89.3013C119.807 89.1317 119.37 89.0451 118.928 89.0468H118.831H118.782C117.849 89.0455 116.951 89.3988 116.269 90.035C112.969 93.1067 108.89 95.2151 104.475 96.1307L104.315 96.1586C93.7923 98.825 82.7666 98.7914 72.2607 96.0611L72.7063 96.1586C68.221 95.2604 64.0731 93.1357 60.7244 90.021L60.7383 90.035C60.0571 89.3976 59.1581 89.0441 58.2249 89.0468H58.0926C57.6511 89.0459 57.2138 89.1328 56.8062 89.3024C56.3986 89.4721 56.0289 89.7211 55.7185 90.035C55.369 90.3404 55.0888 90.7169 54.8966 91.1393C54.7045 91.5618 54.6049 92.0204 54.6046 92.4844V92.5818C54.6046 93.5978 55.0293 94.5163 55.7185 95.1704C58.9837 98.2447 62.915 100.524 67.2062 101.83L67.415 101.885C71.2325 103.271 75.1894 104.237 79.216 104.766L79.5153 104.801C82.6065 105.098 85.6003 105.247 88.4966 105.247C91.3928 105.247 94.3866 105.098 97.4778 104.801C101.745 104.251 105.939 103.231 109.982 101.76L109.578 101.892C113.959 100.595 117.976 98.2935 121.309 95.1704L121.295 95.1844L121.302 95.1704ZM121.01 74.9348H121.247C125.25 74.9348 128.863 73.2716 131.425 70.5926L131.432 70.5856C134.085 67.9831 135.728 64.3577 135.728 60.3495V60.1129V60.1268C135.695 56.2366 134.135 52.515 131.384 49.7635C128.632 47.012 124.909 45.4508 121.017 45.4163H120.787C116.777 45.4163 113.15 47.0585 110.546 49.7097C109.17 51.0245 108.076 52.6047 107.329 54.3546C106.582 56.1045 106.199 57.9878 106.201 59.8902V60.1407V60.1268C106.205 64.053 107.767 67.8173 110.545 70.5935C113.323 73.3698 117.089 74.9311 121.017 74.9348H121.01Z" fill="white" fill-opacity="0.05"/>
</svg>
