<svg width="21" height="19" viewBox="0 0 21 19" fill="none" xmlns="http://www.w3.org/2000/svg">
<g clip-path="url(#clip0_5651_54590)">
<path d="M14.3357 5.43992C15.4315 5.43992 16.3198 4.5516 16.3198 3.4558C16.3198 2.36 15.4315 1.47168 14.3357 1.47168C13.2399 1.47168 12.3516 2.36 12.3516 3.4558C12.3516 4.5516 13.2399 5.43992 14.3357 5.43992Z" fill="#687078" stroke="#687078" stroke-linecap="round" stroke-linejoin="round"/>
<path d="M2.16602 3.45544H12.4993M16.6722 3.45544H18.8327" stroke="#687078" stroke-width="2" stroke-linecap="square" stroke-linejoin="round"/>
<path d="M6.66431 11.6125C5.56851 11.6125 4.68018 10.7242 4.68018 9.62841C4.68018 8.53261 5.56851 7.64429 6.66431 7.64429C7.76011 7.64429 8.64844 8.53261 8.64844 9.62841C8.64844 10.7242 7.76011 11.6125 6.66431 11.6125Z" fill="#687078" stroke="#687078" stroke-linecap="round" stroke-linejoin="round"/>
<path d="M18.5234 9.62842L9.17617 9.62842M4.54654 9.62842L2.16541 9.62842" stroke="#687078" stroke-width="2" stroke-linecap="square" stroke-linejoin="round"/>
<path d="M14.3357 17.4326C15.4315 17.4326 16.3198 16.5443 16.3198 15.4485C16.3198 14.3527 15.4315 13.4644 14.3357 13.4644C13.2399 13.4644 12.3516 14.3527 12.3516 15.4485C12.3516 16.5443 13.2399 17.4326 14.3357 17.4326Z" fill="#687078" stroke="#687078" stroke-linecap="round" stroke-linejoin="round"/>
<path d="M2.16602 15.4485H12.8327M16.3635 15.4485H18.8327" stroke="#687078" stroke-width="2" stroke-linecap="square" stroke-linejoin="round"/>
</g>
<defs>
<clipPath id="clip0_5651_54590">
<rect width="20" height="18" fill="white" transform="translate(0.5 0.5)"/>
</clipPath>
</defs>
</svg>
