<svg width="15" height="15" viewBox="0 0 15 15" fill="none" xmlns="http://www.w3.org/2000/svg">
<path d="M7.50024 4.52246C7.26527 4.52246 7.03991 4.61581 6.87376 4.78196C6.7076 4.94811 6.61426 5.17347 6.61426 5.40845C6.61426 5.64343 6.7076 5.86878 6.87376 6.03493C7.03991 6.20109 7.26527 6.29443 7.50024 6.29443C7.73522 6.29443 7.96058 6.20109 8.12673 6.03493C8.29289 5.86878 8.38623 5.64343 8.38623 5.40845C8.38623 5.17347 8.29289 4.94811 8.12673 4.78196C7.96058 4.61581 7.73522 4.52246 7.50024 4.52246Z" fill="#FFAD00"/>
<path fill-rule="evenodd" clip-rule="evenodd" d="M6.9375 10.2091V7.05664H8.0625V10.2091H6.9375Z" fill="#FFAD00"/>
<path fill-rule="evenodd" clip-rule="evenodd" d="M7.5 1.25C4.04813 1.25 1.25 4.04813 1.25 7.5C1.25 10.9519 4.04813 13.75 7.5 13.75C10.9519 13.75 13.75 10.9519 13.75 7.5C13.75 4.04813 10.9519 1.25 7.5 1.25ZM2.5 7.5C2.5 8.82608 3.02678 10.0979 3.96447 11.0355C4.90215 11.9732 6.17392 12.5 7.5 12.5C8.82608 12.5 10.0979 11.9732 11.0355 11.0355C11.9732 10.0979 12.5 8.82608 12.5 7.5C12.5 6.17392 11.9732 4.90215 11.0355 3.96447C10.0979 3.02678 8.82608 2.5 7.5 2.5C6.17392 2.5 4.90215 3.02678 3.96447 3.96447C3.02678 4.90215 2.5 6.17392 2.5 7.5Z" fill="#FFAD00"/>
</svg>
