<svg width="203" height="49" viewBox="0 0 203 49" fill="none" xmlns="http://www.w3.org/2000/svg">
<g filter="url(#filter0_d_26_163)">
<path d="M52.3736 34.7275V9.39899H60.7449C68.9016 9.39899 75.7346 12.8691 75.7346 22.1348C75.7346 30.3272 69.0447 34.7275 61.4962 34.7275H52.3736ZM57.9545 14.5506V29.576H60.8523C66.0396 29.576 69.9391 27.6084 69.9391 21.8486C69.9391 16.8759 65.9681 14.5506 61.2458 14.5506H57.9545ZM78.1955 26.0343C78.1955 20.4892 82.4885 16.9117 87.8547 16.9117C93.2209 16.9117 97.5139 20.4892 97.5139 26.0343C97.5139 31.5794 93.2209 35.1568 87.8547 35.1568C82.4885 35.1568 78.1955 31.5794 78.1955 26.0343ZM83.5617 26.0343C83.5617 28.6458 85.1716 30.4346 87.8547 30.4346C90.5378 30.4346 92.1477 28.6458 92.1477 26.0343C92.1477 23.4227 90.5378 21.634 87.8547 21.634C85.1716 21.634 83.5617 23.4227 83.5617 26.0343ZM101.175 42.8842V17.341H106.112V19.6306H106.184C107.007 18.3785 109.082 16.9117 111.514 16.9117C116.666 16.9117 120.065 20.6323 120.065 25.8912C120.065 30.7208 117.059 35.1568 112.123 35.1568C109.905 35.1568 107.83 34.5487 106.613 32.8673H106.542V42.8842H101.175ZM106.112 26.0343C106.112 28.6458 107.722 30.4346 110.405 30.4346C113.088 30.4346 114.698 28.6458 114.698 26.0343C114.698 23.4227 113.088 21.634 110.405 21.634C107.722 21.634 106.112 23.4227 106.112 26.0343ZM123.709 42.8842V17.341H128.646V19.6306H128.718C129.541 18.3785 131.616 16.9117 134.048 16.9117C139.2 16.9117 142.598 20.6323 142.598 25.8912C142.598 30.7208 139.593 35.1568 134.656 35.1568C132.438 35.1568 130.364 34.5487 129.147 32.8673H129.076V42.8842H123.709ZM128.646 26.0343C128.646 28.6458 130.256 30.4346 132.939 30.4346C135.622 30.4346 137.232 28.6458 137.232 26.0343C137.232 23.4227 135.622 21.634 132.939 21.634C130.256 21.634 128.646 23.4227 128.646 26.0343ZM145.814 34.7275V7.6818H151.18V34.7275H145.814ZM167.736 28.9678L171.492 31.7225C169.775 33.9047 166.949 35.1568 164.158 35.1568C158.792 35.1568 154.499 31.5794 154.499 26.0343C154.499 20.4892 158.792 16.9117 164.158 16.9117C169.167 16.9117 172.315 20.4892 172.315 26.0343V27.7157H159.865C160.294 29.7548 161.833 31.0785 163.908 31.0785C165.661 31.0785 166.841 30.1841 167.736 28.9678ZM159.865 24.0667H166.949C166.984 22.2779 165.589 20.7754 163.657 20.7754C161.296 20.7754 160.008 22.3852 159.865 24.0667Z" fill="white"/>
<path d="M178.703 27.7053V21.3469H185.97V14.709H192.328V21.3469H199.612V27.7053H192.328V34.3432H185.97V27.7053H178.703Z" fill="#FFAD00"/>
</g>
<path fill-rule="evenodd" clip-rule="evenodd" d="M13.3798 9.63344C13.9122 6.65245 16.5177 4.38962 19.6518 4.38962C28.9151 4.38962 36.4663 12.0493 36.4663 21.3589C36.4663 30.8408 28.7754 38.6427 19.3397 38.6427H6.25002C3.81945 38.6427 1.52034 37.5392 0 35.6428C0 39.724 3.3084 43.0324 7.38952 43.0324H19.3397C31.2459 43.0324 40.8559 33.2188 40.8559 21.3589C40.8559 9.67138 31.3856 0 19.6518 0C13.7086 0 8.89072 4.81788 8.89072 10.761V29.203H6.3534C5.26884 29.203 4.38962 28.3238 4.38962 27.2393V9.77346V9.55413C4.38962 5.8031 6.32648 2.31796 9.5119 0.337216C4.3004 0.337216 0 4.56197 0 9.77346V27.2393C0 30.7481 2.84452 33.5927 6.3534 33.5927H20.1653C26.7815 33.5927 32.1449 28.2292 32.1449 21.613C32.1449 14.9969 26.7815 9.63344 20.1653 9.63344H13.3798ZM20.1652 29.203H13.2802V14.023H20.1652C24.357 14.023 27.7552 17.4212 27.7552 21.613C27.7552 25.8048 24.357 29.203 20.1652 29.203Z" fill="white"/>
<defs>
<filter id="filter0_d_26_163" x="49.4644" y="7.68164" width="153.057" height="41.0208" filterUnits="userSpaceOnUse" color-interpolation-filters="sRGB">
<feFlood flood-opacity="0" result="BackgroundImageFix"/>
<feColorMatrix in="SourceAlpha" type="matrix" values="0 0 0 0 0 0 0 0 0 0 0 0 0 0 0 0 0 0 127 0" result="hardAlpha"/>
<feOffset dy="2.90909"/>
<feGaussianBlur stdDeviation="1.45454"/>
<feComposite in2="hardAlpha" operator="out"/>
<feColorMatrix type="matrix" values="0 0 0 0 0 0 0 0 0 0 0 0 0 0 0 0 0 0 0.25 0"/>
<feBlend mode="normal" in2="BackgroundImageFix" result="effect1_dropShadow_26_163"/>
<feBlend mode="normal" in="SourceGraphic" in2="effect1_dropShadow_26_163" result="shape"/>
</filter>
</defs>
</svg>
