<svg width="94" height="71" viewBox="0 0 94 71" fill="none" xmlns="http://www.w3.org/2000/svg">
<g clip-path="url(#clip0_6878_6653)">
<rect width="93.75" height="71.25" rx="5" fill="#040F07"/>
<rect x="24.9727" y="7.01648" width="68.9219" height="58.5178" fill="url(#paint0_linear_6878_6653)"/>
<path d="M0 3C0 1.34315 1.34315 0 3 0H90.5078C93.2692 0 95.5078 2.23858 95.5078 5V9.74933H0V3Z" fill="#1C3323"/>
<path d="M25 62.1473H94.5078V71.25H25V62.1473Z" fill="#1C3323"/>
<rect x="85.5586" y="63.8016" width="4.42203" height="4.42203" rx="1.14043" fill="#28A143"/>
<rect x="28.7344" y="2.78857" width="5.06189" height="5.06189" rx="1.30545" fill="#3D5F46"/>
<path d="M35.6641 5.31958H40.7225H45.781" stroke="#3D5F46" stroke-linecap="round"/>
<rect x="4.55859" y="3.42944" width="18.0469" height="3.7804" rx="1" fill="#3D5F46"/>
<path d="M25 8.72021V72.5415" stroke="#1C3322" stroke-width="0.8"/>
<rect x="4.55859" y="14.7871" width="5.06189" height="5.06189" rx="1.30545" fill="#3D5F46"/>
<path d="M12.4883 17.3181H16.6316H20.775" stroke="#3D5F46" stroke-linecap="round"/>
<rect x="4.55859" y="22.8508" width="5.06189" height="5.06189" rx="1.30545" fill="#28A143"/>
<path d="M12.4883 25.3818H15.8359H19.1835" stroke="#28A143" stroke-linecap="round"/>
<rect x="4.55859" y="30.9146" width="5.06189" height="5.06189" rx="1.30545" fill="#3D5F46"/>
<path d="M12.4883 33.4456H16.6316H20.775" stroke="#3D5F46" stroke-linecap="round"/>
<rect x="4.55859" y="38.9783" width="5.06189" height="5.06189" rx="1.30545" fill="#3D5F46"/>
<path d="M12.4883 41.5093H17.2482H22.0081" stroke="#3D5F46" stroke-linecap="round"/>
<path d="M53.1523 12.1875L61.2256 12.1875" stroke="#4E4964" stroke-linecap="round"/>
<path d="M35.4336 21.2917C35.4336 20.0214 36.4633 18.9917 37.7336 18.9917H55.1027C56.3729 18.9917 57.4027 20.0214 57.4027 21.2917V22.081C57.4027 23.3512 56.3729 24.381 55.1027 24.381H35.4336V21.2917Z" fill="#28A143"/>
<rect x="28.7344" y="19.959" width="4.42203" height="4.42203" rx="1.14043" fill="#28A143"/>
<path d="M35.4336 29.6809C35.4336 28.4106 36.4633 27.3809 37.7336 27.3809H68.2254C69.4957 27.3809 70.5254 28.4106 70.5254 29.6809V30.4701C70.5254 31.7404 69.4957 32.7701 68.2254 32.7701H35.4336V29.6809Z" fill="#142F31"/>
<rect x="28.7344" y="28.3481" width="4.42203" height="4.42203" rx="1.14043" fill="#142F31"/>
<path d="M35.4336 50.6018C35.4336 49.3315 36.4633 48.3018 37.7336 48.3018H76.7285C77.9987 48.3018 79.0285 49.3315 79.0285 50.6018V51.391C79.0285 52.6613 77.9987 53.691 76.7285 53.691H35.4336V50.6018Z" fill="#142F31"/>
<rect x="28.7344" y="49.269" width="4.42203" height="4.42203" rx="1.14043" fill="#142F31"/>
<rect x="28.7344" y="40.8794" width="4.42203" height="4.42203" rx="1.14043" fill="#28A143"/>
<path d="M35.4336 38.07C35.4336 36.7998 36.4633 35.77 37.7336 35.77H63.1027C64.3729 35.77 65.4027 36.7998 65.4027 38.07V43.0015C65.4027 44.2718 64.3729 45.3015 63.1027 45.3015H35.4336V38.07Z" fill="#28A143"/>
</g>
<defs>
<linearGradient id="paint0_linear_6878_6653" x1="24.9727" y1="9.24308" x2="40.7776" y2="76.4586" gradientUnits="userSpaceOnUse">
<stop stop-color="#0B120D"/>
<stop offset="0.255208" stop-color="#050B0A"/>
<stop offset="0.520833" stop-color="#09050B"/>
<stop offset="0.739583" stop-color="#050B09"/>
<stop offset="1" stop-color="#0A1315"/>
</linearGradient>
<clipPath id="clip0_6878_6653">
<rect width="93.75" height="71.25" rx="5" fill="white"/>
</clipPath>
</defs>
</svg>
