<svg width="94" height="72" viewBox="0 0 94 72" fill="none" xmlns="http://www.w3.org/2000/svg">
<g clip-path="url(#clip0_30_9003)">
<rect width="93.75" height="71.25" rx="5" fill="#17181C"/>
<path d="M0 3C0 1.34315 1.34315 0 3 0H90.5078C93.2692 0 95.5078 2.23858 95.5078 5V9.74933H0V3Z" fill="#202226"/>
<path d="M25 62.1475H94.5078V71.2501H25V62.1475Z" fill="#202226"/>
<rect x="85.5586" y="63.8018" width="4.42203" height="4.42203" rx="1.14043" fill="#048DFF"/>
<rect x="28.7354" y="2.78857" width="5.06189" height="5.06189" rx="1.30545" fill="#30333A"/>
<path d="M35.665 5.31934H40.7235H45.782" stroke="#454A57" stroke-linecap="round"/>
<rect x="4.55762" y="3.42969" width="18.0469" height="3.7804" rx="1" fill="#30333A"/>
<path d="M25 8.72021V72.5415" stroke="#202226" stroke-width="0.8"/>
<rect x="4.55762" y="14.7871" width="5.06189" height="5.06189" rx="1.30545" fill="#30333A"/>
<path d="M12.4873 17.3184H16.6307H20.774" stroke="#454A57" stroke-linecap="round"/>
<rect x="4.55762" y="22.8506" width="5.06189" height="5.06189" rx="1.30545" fill="#048DFF"/>
<path d="M12.4873 25.3818H15.8349H19.1825" stroke="#048DFF" stroke-linecap="round"/>
<rect x="4.55762" y="30.9146" width="5.06189" height="5.06189" rx="1.30545" fill="#30333A"/>
<path d="M12.4873 33.4453H16.6307H20.774" stroke="#454A57" stroke-linecap="round"/>
<rect x="4.55762" y="38.978" width="5.06189" height="5.06189" rx="1.30545" fill="#30333A"/>
<path d="M12.4873 41.5088H17.2472H22.0071" stroke="#454A57" stroke-linecap="round"/>
<path d="M53.1509 12.1875L61.2241 12.1875" stroke="#454A57" stroke-linecap="round"/>
<path d="M35.4321 21.2917C35.4321 20.0214 36.4619 18.9917 37.7321 18.9917H55.1012C56.3715 18.9917 57.4012 20.0214 57.4012 21.2917V22.081C57.4012 23.3512 56.3715 24.381 55.1012 24.381H35.4321V21.2917Z" fill="#048DFF"/>
<rect x="28.7344" y="19.959" width="4.42203" height="4.42203" rx="1.14043" fill="#048DFF"/>
<path d="M35.4321 29.6809C35.4321 28.4106 36.4619 27.3809 37.7321 27.3809H68.224C69.4942 27.3809 70.524 28.4106 70.524 29.6809V30.4701C70.524 31.7404 69.4942 32.7701 68.224 32.7701H35.4321V29.6809Z" fill="#454A57"/>
<rect x="28.7344" y="28.3481" width="4.42203" height="4.42203" rx="1.14043" fill="#30333A"/>
<path d="M35.4321 50.6018C35.4321 49.3315 36.4619 48.3018 37.7321 48.3018H76.727C77.9973 48.3018 79.027 49.3315 79.027 50.6018V51.391C79.027 52.6613 77.9973 53.691 76.727 53.691H35.4321V50.6018Z" fill="#454A57"/>
<rect x="28.7344" y="49.269" width="4.42203" height="4.42203" rx="1.14043" fill="#30333A"/>
<rect x="28.7344" y="40.8794" width="4.42203" height="4.42203" rx="1.14043" fill="#048DFF"/>
<path d="M35.4321 38.07C35.4321 36.7998 36.4619 35.77 37.7321 35.77H63.1012C64.3715 35.77 65.4012 36.7998 65.4012 38.07V43.0015C65.4012 44.2718 64.3715 45.3015 63.1012 45.3015H35.4321V38.07Z" fill="#048DFF"/>
</g>
<defs>
<clipPath id="clip0_30_9003">
<rect width="93.75" height="71.25" rx="5" fill="white"/>
</clipPath>
</defs>
</svg>
