<svg width="54" height="95" viewBox="0 0 54 95" fill="none" xmlns="http://www.w3.org/2000/svg">
<g clip-path="url(#clip0_32_9783)">
<rect x="0.5" width="53" height="95" rx="5" fill="url(#paint0_linear_32_9783)"/>
<rect x="0.5" width="52.9541" height="12.0064" fill="#15171A"/>
<path d="M22.9639 15.3242L31.0371 15.3242" stroke="#454A57" stroke-width="2" stroke-linecap="round"/>
<path d="M10.2461 43.407C10.2461 42.7772 9.7355 42.2666 9.10566 42.2666H5.38653C4.75668 42.2666 4.24609 42.7772 4.24609 43.407V47.1262C4.24609 47.756 4.75668 48.2666 5.38653 48.2666H9.10566C9.7355 48.2666 10.2461 47.756 10.2461 47.1262V43.407Z" fill="#294A7A"/>
<path d="M13.2461 36.3293C13.2461 35.059 14.2758 34.0293 15.5461 34.0293H37.9461C39.2163 34.0293 40.2461 35.059 40.2461 36.3293V45.9666C40.2461 47.2369 39.2163 48.2666 37.9461 48.2666H13.2461V36.3293Z" fill="#2D4C7A"/>
<path d="M10.2461 72.387C10.2461 71.7572 9.7355 71.2466 9.10566 71.2466H5.38653C4.75668 71.2466 4.24609 71.7572 4.24609 72.387V76.1061C4.24609 76.736 4.75668 77.2466 5.38653 77.2466H9.10566C9.7355 77.2466 10.2461 76.736 10.2461 76.1061V72.387Z" fill="#294A7A"/>
<path d="M13.2461 67.5666C13.2461 66.2963 14.2758 65.2666 15.5461 65.2666H35.2117C36.482 65.2666 37.5117 66.2963 37.5117 67.5666V74.9465C37.5117 76.2168 36.482 77.2465 35.2117 77.2465H13.2461V67.5666Z" fill="#2D4C7A"/>
<path d="M48.7529 56.407C48.7529 55.7772 48.2423 55.2666 47.6125 55.2666H43.8934C43.2635 55.2666 42.7529 55.7772 42.7529 56.407V60.1262C42.7529 60.756 43.2635 61.2666 43.8934 61.2666H47.6125C48.2423 61.2666 48.7529 60.756 48.7529 60.1262V56.407Z" fill="#5A9BFC"/>
<path d="M39.7529 54.5666C39.7529 53.2963 38.7232 52.2666 37.4529 52.2666H18.1926C16.9223 52.2666 15.8926 53.2963 15.8926 54.5666V58.9666C15.8926 60.2369 16.9223 61.2666 18.1926 61.2666H39.7529V54.5666Z" fill="#5A9BFC"/>
<path d="M49.7539 24.4148C49.7539 23.785 49.2433 23.2744 48.6135 23.2744H44.8943C44.2645 23.2744 43.7539 23.785 43.7539 24.4148V28.134C43.7539 28.7638 44.2645 29.2744 44.8943 29.2744H48.6135C49.2433 29.2744 49.7539 28.7638 49.7539 28.134V24.4148Z" fill="#5A9BFC"/>
<path d="M40.7539 22.5744C40.7539 21.3042 39.7242 20.2744 38.4539 20.2744H16.0539C14.7837 20.2744 13.7539 21.3042 13.7539 22.5744V26.9744C13.7539 28.2447 14.7837 29.2744 16.0539 29.2744H40.7539V22.5744Z" fill="#5A9BFC"/>
<rect x="4.24609" y="3.00342" width="6" height="6" rx="1.30545" fill="#30333A"/>
<rect x="35.5566" y="3.00342" width="6" height="6" rx="1.30545" fill="#30333A"/>
<rect x="43.7539" y="3.00342" width="6" height="6" rx="1.30545" fill="#30333A"/>
<path d="M13.9648 6.03223H19.0233H24.0818" stroke="#454A57" stroke-width="2" stroke-linecap="round"/>
<rect x="0.522949" y="83" width="52.9541" height="12.0064" fill="#15171A"/>
<rect x="42.7529" y="86.0029" width="6" height="6" rx="1.14043" fill="#3378DE"/>
</g>
<defs>
<linearGradient id="paint0_linear_32_9783" x1="0.181018" y1="-1.18615" x2="78.5041" y2="28.0776" gradientUnits="userSpaceOnUse">
<stop stop-color="#43B8FA"/>
<stop offset="0.0001" stop-color="#3892C5"/>
<stop offset="1" stop-color="#0B3EC1"/>
<stop offset="1" stop-color="#0B3EC1"/>
</linearGradient>
<clipPath id="clip0_32_9783">
<rect x="0.5" width="53" height="95" rx="5" fill="white"/>
</clipPath>
</defs>
</svg>
