<svg width="94" height="72" viewBox="0 0 94 72" fill="none" xmlns="http://www.w3.org/2000/svg">
<g clip-path="url(#clip0_6878_7092)">
<rect y="0.5" width="93.75" height="71.25" rx="5" fill="#08070C"/>
<rect x="24.9727" y="7.51648" width="68.9219" height="58.5178" fill="url(#paint0_linear_6878_7092)"/>
<path d="M0 3.5C0 1.84315 1.34315 0.5 3 0.5H90.5078C93.2692 0.5 95.5078 2.73858 95.5078 5.5V10.2493H0V3.5Z" fill="#363149"/>
<path d="M25 62.6473H94.5078V71.75H25V62.6473Z" fill="#363149"/>
<rect x="85.5586" y="64.3016" width="4.42203" height="4.42203" rx="1.14043" fill="#313B95"/>
<rect x="28.7344" y="3.28857" width="5.06189" height="5.06189" rx="1.30545" fill="#4E4964"/>
<path d="M35.6641 5.81958H40.7225H45.781" stroke="#4E4964" stroke-linecap="round"/>
<rect x="4.55859" y="3.92944" width="18.0469" height="3.7804" rx="1" fill="#4E4964"/>
<path d="M25 9.22021V73.0415" stroke="#363149" stroke-width="0.8"/>
<rect x="4.55859" y="15.2871" width="5.06189" height="5.06189" rx="1.30545" fill="#4E4964"/>
<path d="M12.4883 17.8181H16.6316H20.775" stroke="#4E4964" stroke-linecap="round"/>
<rect x="4.55859" y="23.3508" width="5.06189" height="5.06189" rx="1.30545" fill="#263299"/>
<path d="M12.4883 25.8818H15.8359H19.1835" stroke="#313B95" stroke-linecap="round"/>
<rect x="4.55859" y="31.4146" width="5.06189" height="5.06189" rx="1.30545" fill="#4E4964"/>
<path d="M12.4883 33.9456H16.6316H20.775" stroke="#4E4964" stroke-linecap="round"/>
<rect x="4.55859" y="39.4783" width="5.06189" height="5.06189" rx="1.30545" fill="#4E4964"/>
<path d="M12.4883 42.0093H17.2482H22.0081" stroke="#4E4964" stroke-linecap="round"/>
<path d="M53.1523 12.6875L61.2256 12.6875" stroke="#4E4964" stroke-linecap="round"/>
<path d="M35.4336 21.7917C35.4336 20.5214 36.4633 19.4917 37.7336 19.4917H55.1027C56.3729 19.4917 57.4027 20.5214 57.4027 21.7917V22.581C57.4027 23.8512 56.3729 24.881 55.1027 24.881H35.4336V21.7917Z" fill="#263299"/>
<rect x="28.7344" y="20.459" width="4.42203" height="4.42203" rx="1.14043" fill="#263299"/>
<path d="M35.4336 30.1809C35.4336 28.9106 36.4633 27.8809 37.7336 27.8809H68.2254C69.4957 27.8809 70.5254 28.9106 70.5254 30.1809V30.9701C70.5254 32.2404 69.4957 33.2701 68.2254 33.2701H35.4336V30.1809Z" fill="#332D54"/>
<rect x="28.7344" y="28.8481" width="4.42203" height="4.42203" rx="1.14043" fill="#332D54"/>
<path d="M35.4336 51.1018C35.4336 49.8315 36.4633 48.8018 37.7336 48.8018H76.7285C77.9987 48.8018 79.0285 49.8315 79.0285 51.1018V51.891C79.0285 53.1613 77.9987 54.191 76.7285 54.191H35.4336V51.1018Z" fill="#332D54"/>
<rect x="28.7344" y="49.769" width="4.42203" height="4.42203" rx="1.14043" fill="#332D54"/>
<rect x="28.7344" y="41.3794" width="4.42203" height="4.42203" rx="1.14043" fill="#263299"/>
<path d="M35.4336 38.57C35.4336 37.2998 36.4633 36.27 37.7336 36.27H63.1027C64.3729 36.27 65.4027 37.2998 65.4027 38.57V43.5015C65.4027 44.7718 64.3729 45.8015 63.1027 45.8015H35.4336V38.57Z" fill="#263299"/>
</g>
<defs>
<linearGradient id="paint0_linear_6878_7092" x1="59.4336" y1="7.51648" x2="103.392" y2="74.6602" gradientUnits="userSpaceOnUse">
<stop stop-color="#07060C"/>
<stop offset="1" stop-color="#292A4D"/>
</linearGradient>
<clipPath id="clip0_6878_7092">
<rect y="0.5" width="93.75" height="71.25" rx="5" fill="white"/>
</clipPath>
</defs>
</svg>
