<svg width="94" height="72" viewBox="0 0 94 72" fill="none" xmlns="http://www.w3.org/2000/svg">
<g clip-path="url(#clip0_6878_20575)">
<rect y="0.75" width="93.75" height="71.25" rx="5" fill="#0B0707"/>
<rect x="24.9727" y="7.76648" width="68.9219" height="58.5178" fill="url(#paint0_radial_6878_20575)"/>
<path d="M0 3.75C0 2.09315 1.34315 0.75 3 0.75H90.5078C93.2692 0.75 95.5078 2.98858 95.5078 5.75V10.4993H0V3.75Z" fill="#2F1414"/>
<path d="M25 62.8973H94.5078V72H25V62.8973Z" fill="#2F1414"/>
<rect x="85.5586" y="64.5516" width="4.42203" height="4.42203" rx="1.14043" fill="#721E1E"/>
<rect x="28.7344" y="3.53857" width="5.06189" height="5.06189" rx="1.30545" fill="#421D1D"/>
<path d="M35.6641 6.06958H40.7225H45.781" stroke="#421D1D" stroke-linecap="round"/>
<rect x="4.55859" y="4.17944" width="18.0469" height="3.7804" rx="1" fill="#421D1D"/>
<path d="M25 9.47021V73.2915" stroke="#231414" stroke-width="0.8"/>
<rect x="4.55859" y="15.5371" width="5.06189" height="5.06189" rx="1.30545" fill="#421D1D"/>
<path d="M12.4883 18.0681H16.6316H20.775" stroke="#421D1D" stroke-linecap="round"/>
<rect x="4.55859" y="23.6008" width="5.06189" height="5.06189" rx="1.30545" fill="#721E1E"/>
<path d="M12.4883 26.1318H15.8359H19.1835" stroke="#721E1E" stroke-linecap="round"/>
<rect x="4.55859" y="31.6646" width="5.06189" height="5.06189" rx="1.30545" fill="#421D1D"/>
<path d="M12.4883 34.1956H16.6316H20.775" stroke="#421D1D" stroke-linecap="round"/>
<rect x="4.55859" y="39.7283" width="5.06189" height="5.06189" rx="1.30545" fill="#421D1D"/>
<path d="M12.4883 42.2593H17.2482H22.0081" stroke="#421D1D" stroke-linecap="round"/>
<path d="M53.1523 12.9375L61.2256 12.9375" stroke="#6B3535" stroke-linecap="round"/>
<path d="M35.4336 22.0417C35.4336 20.7714 36.4633 19.7417 37.7336 19.7417H55.1027C56.3729 19.7417 57.4027 20.7714 57.4027 22.0417V22.831C57.4027 24.1012 56.3729 25.131 55.1027 25.131H35.4336V22.0417Z" fill="#721E1E"/>
<rect x="28.7344" y="20.709" width="4.42203" height="4.42203" rx="1.14043" fill="#721E1E"/>
<path d="M35.4336 30.4309C35.4336 29.1606 36.4633 28.1309 37.7336 28.1309H68.2254C69.4957 28.1309 70.5254 29.1606 70.5254 30.4309V31.2201C70.5254 32.4904 69.4957 33.5201 68.2254 33.5201H35.4336V30.4309Z" fill="#421D1D"/>
<rect x="28.7344" y="29.0981" width="4.42203" height="4.42203" rx="1.14043" fill="#421D1D"/>
<path d="M35.4336 51.3518C35.4336 50.0815 36.4633 49.0518 37.7336 49.0518H76.7285C77.9987 49.0518 79.0285 50.0815 79.0285 51.3518V52.141C79.0285 53.4113 77.9987 54.441 76.7285 54.441H35.4336V51.3518Z" fill="#421D1D"/>
<rect x="28.7344" y="50.019" width="4.42203" height="4.42203" rx="1.14043" fill="#421D1D"/>
<rect x="28.7344" y="41.6294" width="4.42203" height="4.42203" rx="1.14043" fill="#721E1E"/>
<path d="M35.4336 38.82C35.4336 37.5498 36.4633 36.52 37.7336 36.52H63.1027C64.3729 36.52 65.4027 37.5498 65.4027 38.82V43.7515C65.4027 45.0218 64.3729 46.0515 63.1027 46.0515H35.4336V38.82Z" fill="#721E1E"/>
</g>
<defs>
<radialGradient id="paint0_radial_6878_20575" cx="0" cy="0" r="1" gradientUnits="userSpaceOnUse" gradientTransform="translate(22.7155 6.11702) rotate(40.8553) scale(91.9778 80.9395)">
<stop stop-color="#311212"/>
<stop offset="1" stop-color="#091122"/>
</radialGradient>
<clipPath id="clip0_6878_20575">
<rect y="0.75" width="93.75" height="71.25" rx="5" fill="white"/>
</clipPath>
</defs>
</svg>
