<svg width="95" height="72" viewBox="0 0 95 72" fill="none" xmlns="http://www.w3.org/2000/svg">
<g clip-path="url(#clip0_6878_18468)">
<rect x="0.5" y="0.5" width="93.75" height="71.25" rx="5" fill="#07080B"/>
<rect x="25.4727" y="7.51648" width="68.9219" height="58.5178" fill="url(#paint0_radial_6878_18468)"/>
<path d="M0.5 3.5C0.5 1.84315 1.84315 0.5 3.5 0.5H91.0078C93.7692 0.5 96.0078 2.73858 96.0078 5.5V10.2493H0.5V3.5Z" fill="#0F1318"/>
<path d="M25.5 62.6473H95.0078V71.75H25.5V62.6473Z" fill="#0F1318"/>
<rect x="86.0586" y="64.3016" width="4.42203" height="4.42203" rx="1.14043" fill="#2867A1"/>
<rect x="29.2344" y="3.28857" width="5.06189" height="5.06189" rx="1.30545" fill="#262F3B"/>
<path d="M36.1641 5.81958H41.2225H46.281" stroke="#262F3B" stroke-linecap="round"/>
<rect x="5.05859" y="3.92944" width="18.0469" height="3.7804" rx="1" fill="#262F3B"/>
<path d="M25.5 9.22021V73.0415" stroke="#0F1318" stroke-width="0.8"/>
<rect x="5.05859" y="15.2871" width="5.06189" height="5.06189" rx="1.30545" fill="#262F3B"/>
<path d="M12.9883 17.8181H17.1316H21.275" stroke="#262F3B" stroke-linecap="round"/>
<rect x="5.05859" y="23.3508" width="5.06189" height="5.06189" rx="1.30545" fill="#2867A1"/>
<path d="M12.9883 25.8818H16.3359H19.6835" stroke="#2867A1" stroke-linecap="round"/>
<rect x="5.05859" y="31.4146" width="5.06189" height="5.06189" rx="1.30545" fill="#262F3B"/>
<path d="M12.9883 33.9456H17.1316H21.275" stroke="#262F3B" stroke-linecap="round"/>
<rect x="5.05859" y="39.4783" width="5.06189" height="5.06189" rx="1.30545" fill="#262F3B"/>
<path d="M12.9883 42.0093H17.7482H22.5081" stroke="#262F3B" stroke-linecap="round"/>
<path d="M53.6523 12.6875L61.7256 12.6875" stroke="#31455F" stroke-linecap="round"/>
<path d="M35.9336 21.7917C35.9336 20.5214 36.9633 19.4917 38.2336 19.4917H55.6027C56.8729 19.4917 57.9027 20.5214 57.9027 21.7917V22.581C57.9027 23.8512 56.8729 24.881 55.6027 24.881H35.9336V21.7917Z" fill="#366897"/>
<rect x="29.2344" y="20.459" width="4.42203" height="4.42203" rx="1.14043" fill="#366897"/>
<path d="M35.9336 30.1809C35.9336 28.9106 36.9633 27.8809 38.2336 27.8809H68.7254C69.9957 27.8809 71.0254 28.9106 71.0254 30.1809V30.9701C71.0254 32.2404 69.9957 33.2701 68.7254 33.2701H35.9336V30.1809Z" fill="#262F3B"/>
<rect x="29.2344" y="28.8481" width="4.42203" height="4.42203" rx="1.14043" fill="#262F3B"/>
<path d="M35.9336 51.1018C35.9336 49.8315 36.9633 48.8018 38.2336 48.8018H77.2285C78.4987 48.8018 79.5285 49.8315 79.5285 51.1018V51.891C79.5285 53.1613 78.4987 54.191 77.2285 54.191H35.9336V51.1018Z" fill="#262F3B"/>
<rect x="29.2344" y="49.769" width="4.42203" height="4.42203" rx="1.14043" fill="#262F3B"/>
<rect x="29.2344" y="41.3794" width="4.42203" height="4.42203" rx="1.14043" fill="#366897"/>
<path d="M35.9336 38.57C35.9336 37.2998 36.9633 36.27 38.2336 36.27H63.6027C64.8729 36.27 65.9027 37.2998 65.9027 38.57V43.5015C65.9027 44.7718 64.8729 45.8015 63.6027 45.8015H35.9336V38.57Z" fill="#366897"/>
</g>
<defs>
<radialGradient id="paint0_radial_6878_18468" cx="0" cy="0" r="1" gradientUnits="userSpaceOnUse" gradientTransform="translate(23.2155 5.86702) rotate(40.8553) scale(91.9778 80.9395)">
<stop stop-color="#091122"/>
<stop offset="1" stop-color="#1A1535"/>
</radialGradient>
<clipPath id="clip0_6878_18468">
<rect x="0.5" y="0.5" width="93.75" height="71.25" rx="5" fill="white"/>
</clipPath>
</defs>
</svg>
