<svg width="53" height="95" viewBox="0 0 53 95" fill="none" xmlns="http://www.w3.org/2000/svg">
<g clip-path="url(#clip0_32_9889)">
<rect width="53" height="95" rx="5" fill="url(#paint0_linear_32_9889)"/>
<rect width="52.9541" height="12.0064" fill="#142F31"/>
<path d="M22.4639 15.3242L30.5371 15.3242" stroke="#454A57" stroke-width="2" stroke-linecap="round"/>
<path d="M9.74609 43.407C9.74609 42.7772 9.2355 42.2666 8.60566 42.2666H4.88653C4.25668 42.2666 3.74609 42.7772 3.74609 43.407V47.1262C3.74609 47.756 4.25668 48.2666 4.88653 48.2666H8.60566C9.2355 48.2666 9.74609 47.756 9.74609 47.1262V43.407Z" fill="#142F31"/>
<path d="M12.7461 36.3293C12.7461 35.059 13.7758 34.0293 15.0461 34.0293H37.4461C38.7163 34.0293 39.7461 35.059 39.7461 36.3293V45.9666C39.7461 47.2369 38.7163 48.2666 37.4461 48.2666H12.7461V36.3293Z" fill="#142F31"/>
<path d="M9.74609 72.387C9.74609 71.7572 9.2355 71.2466 8.60566 71.2466H4.88653C4.25668 71.2466 3.74609 71.7572 3.74609 72.387V76.1061C3.74609 76.736 4.25668 77.2466 4.88653 77.2466H8.60566C9.2355 77.2466 9.74609 76.736 9.74609 76.1061V72.387Z" fill="#142F31"/>
<path d="M12.7461 67.5666C12.7461 66.2963 13.7758 65.2666 15.0461 65.2666H34.7117C35.982 65.2666 37.0117 66.2963 37.0117 67.5666V74.9465C37.0117 76.2168 35.982 77.2465 34.7117 77.2465H12.7461V67.5666Z" fill="#142F31"/>
<path d="M48.2529 56.407C48.2529 55.7772 47.7423 55.2666 47.1125 55.2666H43.3934C42.7635 55.2666 42.2529 55.7772 42.2529 56.407V60.1262C42.2529 60.756 42.7635 61.2666 43.3934 61.2666H47.1125C47.7423 61.2666 48.2529 60.756 48.2529 60.1262V56.407Z" fill="#247620"/>
<path d="M39.2529 54.5666C39.2529 53.2963 38.2232 52.2666 36.9529 52.2666H17.6926C16.4223 52.2666 15.3926 53.2963 15.3926 54.5666V58.9666C15.3926 60.2369 16.4223 61.2666 17.6926 61.2666H39.2529V54.5666Z" fill="#247620"/>
<path d="M49.2539 24.4148C49.2539 23.785 48.7433 23.2744 48.1135 23.2744H44.3943C43.7645 23.2744 43.2539 23.785 43.2539 24.4148V28.134C43.2539 28.7638 43.7645 29.2744 44.3943 29.2744H48.1135C48.7433 29.2744 49.2539 28.7638 49.2539 28.134V24.4148Z" fill="#247620"/>
<path d="M40.2539 22.5744C40.2539 21.3042 39.2242 20.2744 37.9539 20.2744H15.5539C14.2837 20.2744 13.2539 21.3042 13.2539 22.5744V26.9744C13.2539 28.2447 14.2837 29.2744 15.5539 29.2744H40.2539V22.5744Z" fill="#247620"/>
<rect x="3.74609" y="3.00293" width="6" height="6" rx="1.30545" fill="#1A4C50"/>
<rect x="35.0566" y="3.00293" width="6" height="6" rx="1.30545" fill="#1A4C50"/>
<rect x="43.2539" y="3.00293" width="6" height="6" rx="1.30545" fill="#1A4C50"/>
<path d="M13.4648 6.03223H18.5233H23.5818" stroke="#1A4C50" stroke-width="2" stroke-linecap="round"/>
<rect x="0.0229492" y="83" width="52.9541" height="12.0064" fill="#142F31"/>
<rect x="42.2529" y="86.0029" width="6" height="6" rx="1.14043" fill="#247620"/>
</g>
<defs>
<linearGradient id="paint0_linear_32_9889" x1="1.97672" y1="-11.5847" x2="53.146" y2="94.3312" gradientUnits="userSpaceOnUse">
<stop stop-color="#270A05"/>
<stop offset="1" stop-color="#100808"/>
</linearGradient>
<clipPath id="clip0_32_9889">
<rect width="53" height="95" rx="5" fill="white"/>
</clipPath>
</defs>
</svg>
