<svg width="120" height="119" viewBox="0 0 120 119" fill="none" xmlns="http://www.w3.org/2000/svg">
<mask id="mask0_6103_441949" style="mask-type:alpha" maskUnits="userSpaceOnUse" x="-1" y="-1" width="121" height="121">
<rect x="-0.00012207" y="-0.000366211" width="120" height="120" fill="#F3B286"/>
</mask>
<g mask="url(#mask0_6103_441949)">
<rect x="-0.00012207" y="-0.000366211" width="120" height="120" fill="url(#paint0_linear_6103_441949)"/>
<path d="M44.973 57.6508C43.789 50.9858 41.3479 47.3224 39.0841 45.247C37.5054 43.7996 35.193 44.9334 34.7198 47.0222L31.5116 61.1854C37.2117 61.4104 42.6917 59.432 44.973 57.6508Z" fill="#C99455"/>
<ellipse cx="31.7643" cy="51.6908" rx="10.8043" ry="9.37802" transform="rotate(16.0994 31.7643 51.6908)" fill="white"/>
<rect x="25.6171" y="48.5531" width="11.4134" height="5.52437" rx="2.76219" fill="#553338"/>
<circle cx="33.4521" cy="51.3154" r="3.67878" fill="#553338"/>
<circle cx="27.6947" cy="49.2374" r="2.07761" fill="white"/>
<path d="M75.0268 57.6508C76.2107 50.9858 78.6519 47.3224 80.9157 45.247C82.4944 43.7996 84.8068 44.9334 85.2799 47.0222L88.4882 61.1854C82.7881 61.4104 77.3081 59.432 75.0268 57.6508Z" fill="#C99455"/>
<ellipse cx="10.8043" cy="9.37802" rx="10.8043" ry="9.37802" transform="matrix(-0.960782 0.277305 0.277305 0.960782 96.0155 39.6844)" fill="white"/>
<rect width="11.4134" height="5.52437" rx="2.76219" transform="matrix(-1 0 0 1 94.3827 48.5531)" fill="#553338"/>
<circle cx="3.67878" cy="3.67878" r="3.67878" transform="matrix(-1 0 0 1 90.2264 47.6366)" fill="#553338"/>
<circle cx="2.07761" cy="2.07761" r="2.07761" transform="matrix(-1 0 0 1 94.3827 47.1598)" fill="white"/>
<mask id="mask1_6103_441949" style="mask-type:alpha" maskUnits="userSpaceOnUse" x="2" y="-6" width="31" height="34">
<path d="M2.78113 -4.12097C4.38142 9.27597 7.63806 17.0655 11.9078 23.2783C15.0973 27.9195 21.4428 28.8205 26.3629 26.0807C33.4619 22.1274 34.3288 12.7869 28.9221 6.72132C25.5691 2.95974 22.5286 -1.24885 21.1632 -5.41159L2.78113 -4.12097Z" fill="#926369"/>
</mask>
<g mask="url(#mask1_6103_441949)">
<path d="M2.78113 -4.12097C4.38142 9.27597 7.63806 17.0655 11.9078 23.2783C15.0973 27.9195 21.4428 28.8205 26.3629 26.0807C33.4619 22.1274 34.3288 12.7869 28.9221 6.72132C25.5691 2.95974 22.5286 -1.24885 21.1632 -5.41159L2.78113 -4.12097Z" fill="#926369"/>
<path d="M18.7744 16.1879C4.94248 11.3355 4.44623 -9.37474 4.55219 -10.3466L0.859742 10.8904L11.1754 28.1466L20.4898 31.1294L35.4312 29.414L36.7059 8.70007C35.3394 12.8135 29.84 20.0698 18.7744 16.1879Z" fill="url(#paint1_linear_6103_441949)"/>
<path fill-rule="evenodd" clip-rule="evenodd" d="M23.9158 0.215741L23.8662 0.247795C27.9681 6.59777 25.8028 14.9727 18.8075 17.555C14.6887 19.0754 10.0633 18.0779 7.38013 14.9728C7.70698 15.7552 8.04571 16.508 8.39574 17.2348C11.3938 19.3679 15.4932 19.839 19.152 18.4884C25.3511 16.2001 28.0164 9.8103 26.514 3.85775C25.5768 2.6687 24.6984 1.45023 23.9158 0.215741ZM4.19288 4.52846C4.30121 5.0336 4.41274 5.52886 4.52739 6.01464C6.62018 7.3997 9.23349 8.16166 11.8334 8.10148C15.5651 8.01511 18.4734 6.33083 20.1239 3.80839C21.772 1.28945 22.1358 -2.01948 20.8761 -5.29864L19.9473 -4.94183C21.1013 -1.93774 20.751 1.03262 19.2912 3.26361C17.8338 5.49109 15.2403 7.02737 11.8104 7.10676C8.98045 7.17226 6.20179 6.19517 4.19288 4.52846Z" fill="#C2949A"/>
</g>
<mask id="mask2_6103_441949" style="mask-type:alpha" maskUnits="userSpaceOnUse" x="86" y="-6" width="31" height="34">
<path d="M116.387 -4.12097C114.786 9.27597 111.53 17.0655 107.26 23.2783C104.07 27.9195 97.7249 28.8205 92.8049 26.0807C85.7058 22.1274 84.8389 12.7869 90.2456 6.72132C93.5986 2.95974 96.6391 -1.24885 98.0045 -5.41159L116.387 -4.12097Z" fill="#926369"/>
</mask>
<g mask="url(#mask2_6103_441949)">
<path d="M116.387 -4.12097C114.786 9.27597 111.53 17.0655 107.26 23.2783C104.07 27.9195 97.7249 28.8205 92.8049 26.0807C85.7058 22.1274 84.8389 12.7869 90.2456 6.72132C93.5986 2.95974 96.6391 -1.24885 98.0045 -5.41159L116.387 -4.12097Z" fill="#926369"/>
<path d="M100.393 16.1879C114.225 11.3355 114.721 -9.37474 114.616 -10.3466L118.308 10.8904L107.992 28.1466L98.678 31.1294L83.7365 29.414L82.4618 8.70007C83.8283 12.8135 89.3278 20.0698 100.393 16.1879Z" fill="url(#paint2_linear_6103_441949)"/>
<path fill-rule="evenodd" clip-rule="evenodd" d="M95.247 0.217584L95.2938 0.247848C91.1918 6.59782 93.3571 14.9728 100.353 17.555C104.475 19.0769 109.105 18.0761 111.787 14.9641C111.46 15.7482 111.121 16.5024 110.77 17.2306C107.772 19.3673 103.669 19.84 100.008 18.4885C93.8114 16.2011 91.1458 9.81557 92.6441 3.86508C93.583 2.67431 94.4631 1.45398 95.247 0.217584ZM114.972 4.52457C114.863 5.03001 114.752 5.52556 114.637 6.01162C112.544 7.39862 109.928 8.16176 107.327 8.10154C103.595 8.01516 100.687 6.33088 99.0361 3.80844C97.3879 1.2895 97.0242 -2.01943 98.2839 -5.29858L99.2127 -4.94178C98.0586 -1.93769 98.409 1.03268 99.8687 3.26366C101.326 5.49114 103.92 7.02742 107.35 7.10681C110.182 7.17237 112.963 6.19369 114.972 4.52457Z" fill="#C2949A"/>
</g>
<ellipse cx="22.3544" cy="68.5085" rx="9.56545" ry="4.53422" fill="url(#paint3_linear_6103_441949)"/>
<ellipse cx="97.6434" cy="68.5085" rx="9.56545" ry="4.53422" fill="url(#paint4_linear_6103_441949)"/>
<path fill-rule="evenodd" clip-rule="evenodd" d="M60.1364 -7.34802V-7.34795C95.6787 -7.33054 93.3467 -3.94501 85.1749 7.91854C78.7381 17.2631 68.6783 31.8675 70.6501 54.2291C71.2815 61.3896 75.0068 63.853 79.6963 66.9541C83.4627 69.4448 87.851 72.3468 91.7581 78.4238C97.5683 87.4608 92.5649 98.0002 88.339 106.902C86.0552 111.712 83.9985 116.045 83.9985 119.403H60.1364H59.8595H35.9974C35.9974 116.045 33.9407 111.712 31.6568 106.902C27.431 98.0002 22.4275 87.4608 28.2377 78.4238C32.1448 72.3468 36.5332 69.4448 40.2996 66.9541C44.9891 63.853 48.7143 61.3896 49.3457 54.2291C51.3176 31.8675 41.2577 17.2631 34.821 7.91854C26.6491 -3.94501 24.3171 -7.33054 59.8595 -7.34795V-7.34802C59.9057 -7.34802 59.9518 -7.34802 59.9979 -7.34801C60.044 -7.34802 60.0902 -7.34802 60.1364 -7.34802Z" fill="url(#paint5_linear_6103_441949)"/>
<path fill-rule="evenodd" clip-rule="evenodd" d="M60.0009 -4.30823L57.2446 11.4562C54.5724 8.95204 47.5822 6.19385 42.0077 7.08789C42.8731 7.57189 43.8852 8.09645 44.9828 8.66529C50.3129 11.4278 57.6579 15.2346 60.0009 20.5119V-4.30823ZM60.0027 -4.30823L62.759 11.4562C65.4313 8.95204 72.4214 6.19385 77.996 7.08789C77.1306 7.57189 76.1184 8.09645 75.0209 8.66529C69.6908 11.4278 62.3457 15.2346 60.0027 20.5119V-4.30823Z" fill="#F1CDA0"/>
<path fill-rule="evenodd" clip-rule="evenodd" d="M59.7242 70.4227C60.2737 70.4227 60.7192 70.8682 60.7192 71.4177V88.2424C60.7192 89.5812 61.8214 90.6666 63.156 90.5617C68.865 90.1128 72.9286 88.5598 75.8742 86.7303C79.3857 84.5492 81.3771 81.9349 82.7032 80.1328C83.0289 79.6901 83.6517 79.5954 84.0944 79.9211C84.537 80.2467 84.6317 80.8696 84.3061 81.3122C82.9427 83.1649 80.7684 86.033 76.9242 88.4207C73.0732 90.8126 67.6149 92.6823 59.7242 92.6823C51.8329 92.6823 46.0621 90.8128 41.8201 88.4442C37.5853 86.0797 34.9191 83.2413 33.2263 81.3948C32.8549 80.9898 32.8823 80.3604 33.2873 79.989C33.6924 79.6177 34.3218 79.645 34.6931 80.0501C36.3511 81.8586 38.8427 84.5026 42.7902 86.7067C46.1069 88.5586 50.4832 90.1167 56.2925 90.5635C57.6272 90.6662 58.7292 89.5814 58.7292 88.2428V71.4177C58.7292 70.8682 59.1746 70.4227 59.7242 70.4227Z" fill="#76444D"/>
<mask id="mask3_6103_441949" style="mask-type:alpha" maskUnits="userSpaceOnUse" x="48" y="67" width="22" height="14">
<path d="M65.2085 67.0087H53.3678C50.7764 67.0087 48.6757 69.1094 48.6757 71.7008C48.6757 72.9398 49.1658 74.1286 50.039 75.0076L53.3966 78.3875C56.6805 81.6931 62.0334 81.6751 65.295 78.3474L68.5687 75.0074C69.4308 74.1279 69.9137 72.9454 69.9137 71.7138C69.9137 69.1152 67.8071 67.0087 65.2085 67.0087Z" fill="#926369"/>
</mask>
<g mask="url(#mask3_6103_441949)">
<path d="M65.2085 67.0087H53.3678C50.7764 67.0087 48.6757 69.1094 48.6757 71.7008C48.6757 72.9398 49.1658 74.1286 50.039 75.0076L53.3966 78.3875C56.6805 81.6931 62.0334 81.6751 65.295 78.3474L68.5687 75.0074C69.4308 74.1279 69.9137 72.9454 69.9137 71.7138C69.9137 69.1152 67.8071 67.0087 65.2085 67.0087Z" fill="#926369"/>
<path d="M48.9335 73.9945C54.2428 73.0442 55.6265 78.5636 55.6546 81.4421L49.4923 76.1602L48.9335 73.9945Z" fill="#553338"/>
<path d="M69.8319 73.9945C64.5225 73.0442 63.1389 78.5636 63.1108 81.4421L69.273 76.1602L69.8319 73.9945Z" fill="#553338"/>
</g>
</g>
<defs>
<linearGradient id="paint0_linear_6103_441949" x1="59.9999" y1="-0.000366211" x2="59.9999" y2="120" gradientUnits="userSpaceOnUse">
<stop stop-color="#F4B970"/>
<stop offset="1" stop-color="#FDCB8E"/>
</linearGradient>
<linearGradient id="paint1_linear_6103_441949" x1="9.78159" y1="29.962" x2="19.1028" y2="-10.424" gradientUnits="userSpaceOnUse">
<stop stop-color="#77474D"/>
<stop offset="1" stop-color="#77474D" stop-opacity="0"/>
</linearGradient>
<linearGradient id="paint2_linear_6103_441949" x1="109.386" y1="29.962" x2="100.065" y2="-10.424" gradientUnits="userSpaceOnUse">
<stop stop-color="#77474D"/>
<stop offset="1" stop-color="#77474D" stop-opacity="0"/>
</linearGradient>
<linearGradient id="paint3_linear_6103_441949" x1="22.3544" y1="63.9742" x2="22.3544" y2="73.0427" gradientUnits="userSpaceOnUse">
<stop stop-color="#EDB36C"/>
<stop offset="1" stop-color="#EDB36C" stop-opacity="0.44"/>
</linearGradient>
<linearGradient id="paint4_linear_6103_441949" x1="97.6435" y1="63.9742" x2="97.6435" y2="73.0427" gradientUnits="userSpaceOnUse">
<stop stop-color="#EDB36C"/>
<stop offset="1" stop-color="#EDB36C" stop-opacity="0.44"/>
</linearGradient>
<linearGradient id="paint5_linear_6103_441949" x1="59.9979" y1="-7.34802" x2="59.9979" y2="119.403" gradientUnits="userSpaceOnUse">
<stop stop-color="#FFE0BA"/>
<stop offset="1" stop-color="#FFDCB0"/>
</linearGradient>
</defs>
</svg>
