<svg width="119" height="119" viewBox="0 0 119 119" fill="none" xmlns="http://www.w3.org/2000/svg">
<mask id="mask0_6103_442314" style="mask-type:alpha" maskUnits="userSpaceOnUse" x="-1" y="-1" width="120" height="120">
<rect x="-0.00415039" y="-0.000244141" width="119" height="119" fill="#D9D9D9"/>
</mask>
<g mask="url(#mask0_6103_442314)">
<path d="M-0.00415039 -0.000244141H118.996V119H-0.00415039V-0.000244141Z" fill="url(#paint0_linear_6103_442314)"/>
<path d="M118.452 60.8713C128.234 56.9908 130.477 44.2314 130.376 38.3367C137.086 53.3733 128.456 61.9156 123.303 64.3072C121.767 74.5741 113.703 78.5556 109.863 79.263C117.866 72.2297 118.924 64.0713 118.452 60.8713Z" fill="url(#paint1_linear_6103_442314)"/>
<path d="M112.995 57.9411C120.513 55.7583 120.237 47.6674 119.159 43.8948C118.027 51.7365 110.401 54.7748 106.73 55.3137C110.934 63.6404 106.595 71.0442 103.9 73.7053C114.976 72.5735 114.578 62.7242 112.995 57.9411Z" fill="url(#paint2_linear_6103_442314)"/>
<path d="M1.37934 60.8713C-8.40257 56.9908 -10.6459 44.2314 -10.5448 38.3367C-17.2546 53.3733 -8.62482 61.9156 -3.47119 64.3072C-1.93519 74.5741 6.12881 78.5556 9.96881 79.263C1.96544 72.2297 0.907763 64.0713 1.37934 60.8713Z" fill="url(#paint3_linear_6103_442314)"/>
<path d="M6.8365 57.9411C-0.681776 55.7583 -0.405598 47.6674 0.672276 43.8948C1.80405 51.7365 9.43017 54.7748 13.1018 55.3137C8.89798 63.6404 13.2365 71.0442 15.9312 73.7053C4.85587 72.5735 5.25335 62.7242 6.8365 57.9411Z" fill="url(#paint4_linear_6103_442314)"/>
<path fill-rule="evenodd" clip-rule="evenodd" d="M33.6915 16.5377C41.2307 12.8045 46.1498 10.3687 54.5931 11.9278C54.9228 14.0254 55.3191 16.1223 55.7521 18.1606C53.5616 17.7693 49.9672 17.7273 46.5603 19.5203C44.1618 20.7827 42.105 22.5006 40.2614 24.0405C38.0183 25.914 36.0909 27.5239 34.2478 27.7287C35.284 28.2467 38.2769 28.8213 41.9584 26.9761C42.6225 26.6433 43.2623 26.3002 43.8937 25.9617C47.5229 24.016 50.8738 22.2194 56.9592 23.3641C58.2745 28.6081 59.6687 33.011 60.502 35.3398C61.3523 32.7098 62.4446 28.2067 63.4972 23.3226C69.4398 22.2642 72.7524 24.0402 76.3363 25.9617C76.9677 26.3002 77.6075 26.6433 78.2716 26.9761C81.9531 28.8213 84.9459 28.2467 85.9822 27.7287C84.1391 27.5239 82.2117 25.914 79.9686 24.0405C78.125 22.5006 76.0682 20.7827 73.6697 19.5203C70.3104 17.7523 66.7688 17.7685 64.5705 18.1444C64.9983 15.9992 65.4004 13.8798 65.7541 11.9064C74.1259 10.3913 79.0342 12.8218 86.5384 16.5377C86.7852 16.6599 87.0347 16.7835 87.2873 16.9084C93.9286 20.1917 98.8224 19.5201 100.439 18.7739C97.2737 18.0764 94.0774 15.3112 90.5839 12.289C88.0039 10.057 85.2618 7.68477 82.2503 5.90172C77.5819 3.13754 70.992 2.96476 66.8304 3.35426C66.9282 1.60645 66.9653 -0.166568 66.959 -1.89813C80.7438 -1.71578 91.7574 1.93142 95.6853 3.82127C88.3978 -4.8543 74.0985 -9.97038 66.489 -11.8076C66.3893 -12.9037 66.2844 -13.8573 66.1862 -14.6233H54.2328C54.1215 -13.9196 54.0016 -12.9793 53.8907 -11.8435C46.3204 -10.0377 31.8803 -4.91153 24.5447 3.82127C28.4922 1.92196 39.5967 -1.75233 53.4781 -1.90061C53.4922 -0.220846 53.5481 1.55038 53.6602 3.3797C49.5175 2.95861 42.7468 3.07911 37.9796 5.90172C34.9682 7.68477 32.2261 10.057 29.6461 12.289C26.1526 15.3112 22.9563 18.0764 19.7908 18.7739C21.4075 19.5201 26.3014 20.1917 32.9427 16.9084C33.1913 16.7854 33.437 16.6638 33.68 16.5435L33.6891 16.5389L33.6915 16.5377Z" fill="url(#paint5_linear_6103_442314)"/>
<path d="M35.6265 43.5796C45.0516 45.3517 46.8721 54.5503 45.8631 59.0457C36.4356 64.7685 25.3547 65.1271 20.3412 56.3438C15.8719 48.5138 18.8511 41.2019 20.99 37.8841C22.0019 39.4869 26.2015 41.8076 35.6265 43.5796Z" fill="#FDF9D4"/>
<path d="M85.2011 43.5796C75.776 45.3517 73.9556 54.5503 74.9646 59.0457C84.392 64.7685 95.4729 65.1271 100.486 56.3438C104.956 48.5138 101.977 41.2019 99.8377 37.8841C98.8257 39.4869 94.6262 41.8076 85.2011 43.5796Z" fill="#FDF9D4"/>
<path d="M35.8025 45.3148C27.1154 43.3432 20.8971 47.1946 18.8739 49.3668C21.8412 49.9176 23.2356 56.7914 29.5864 60.336C34.6671 63.1718 39.9425 61.7806 41.9451 60.7306C43.2316 61.6151 44.1049 64.3855 44.3807 65.6602C46.7627 60.9519 46.6613 47.7793 35.8025 45.3148Z" fill="#2A2C28"/>
<path d="M85.0252 45.3148C93.7123 43.3432 99.9305 47.1946 101.954 49.3668C98.9865 49.9176 97.592 56.7914 91.2412 60.336C86.1606 63.1718 80.8852 61.7806 78.8826 60.7306C77.596 61.6151 76.7228 64.3855 76.447 65.6602C74.0649 60.9519 74.1663 47.7793 85.0252 45.3148Z" fill="#2A2C28"/>
<mask id="mask1_6103_442314" style="mask-type:alpha" maskUnits="userSpaceOnUse" x="26" y="46" width="18" height="14">
<path d="M34.3266 59.8203C27.5228 59.283 26.0165 53.3724 26.1139 50.4842C27.0324 45.0508 36.2257 45.3872 41.1443 50.2487C46.0628 55.1101 42.8314 60.492 34.3266 59.8203Z" fill="white"/>
</mask>
<g mask="url(#mask1_6103_442314)">
<path d="M34.3266 59.8203C27.5228 59.283 26.0165 53.3724 26.1139 50.4842C27.0324 45.0508 36.2257 45.3872 41.1443 50.2487C46.0628 55.1101 42.8314 60.492 34.3266 59.8203Z" fill="white"/>
<circle cx="4.97146" cy="4.97146" r="4.97146" transform="matrix(-1 0 0 1 40.8767 46.7546)" fill="black"/>
<circle cx="2.10235" cy="2.10235" r="2.10235" transform="matrix(-1 0 0 1 34.2009 47.0774)" fill="white"/>
</g>
<mask id="mask2_6103_442314" style="mask-type:alpha" maskUnits="userSpaceOnUse" x="77" y="46" width="18" height="14">
<path d="M86.5048 59.8203C93.3087 59.283 94.8149 53.3724 94.7175 50.4842C93.799 45.0508 84.6057 45.3872 79.6871 50.2487C74.7686 55.1101 78 60.492 86.5048 59.8203Z" fill="white"/>
</mask>
<g mask="url(#mask2_6103_442314)">
<path d="M86.5048 59.8203C93.3087 59.283 94.8149 53.3724 94.7175 50.4842C93.799 45.0508 84.6057 45.3872 79.6871 50.2487C74.7686 55.1101 78 60.492 86.5048 59.8203Z" fill="white"/>
<circle cx="84.9262" cy="51.7262" r="4.97146" fill="black"/>
<circle cx="88.733" cy="49.1797" r="2.10235" fill="white"/>
</g>
<path fill-rule="evenodd" clip-rule="evenodd" d="M43.2771 81.5278C43.3891 78.4749 44.5114 77.2436 45.1445 77.0056L51.5586 81.5299C54.7402 80.7446 57.8742 80.2515 60.8915 80.2277V80.2268L61.0056 80.227L61.1197 80.2268V80.2277C64.2246 80.2522 67.453 80.7736 70.7297 81.599L77.2417 77.0056C77.8749 77.2436 78.9971 78.4749 79.1091 81.5278C79.144 82.4788 79.7534 83.349 80.7051 83.3421C82.4912 83.3292 85.0688 82.7573 87.4062 80.644C87.6902 81.7579 87.9894 84.3032 87.6294 87.554C87.75 87.6027 87.8706 87.6514 87.991 87.7001C95.7877 90.8504 103.092 93.8016 108.828 93.8016C121.13 93.8016 128.059 84.7517 131.523 80.2268V130.284H61.1197H60.8915H-9.51196V80.2268L-9.51196 80.2268C-6.04753 84.7518 0.881319 93.8016 13.1835 93.8016C18.9196 93.8016 26.2235 90.8504 34.0202 87.7001L34.7411 87.4089C34.4058 84.2276 34.7003 81.7413 34.98 80.644C37.3175 82.7573 39.8951 83.3292 41.6812 83.3421C42.6328 83.349 43.2422 82.4788 43.2771 81.5278Z" fill="url(#paint6_linear_6103_442314)"/>
<path fill-rule="evenodd" clip-rule="evenodd" d="M54.8157 101.174C59.3469 98.9008 60.0345 92.8304 59.8119 90.5726L60.7459 89.6715V88.9292L61.1306 89.3004L61.5153 88.9292V89.6715L62.4493 90.5726C62.2267 92.8304 62.9143 98.9008 67.4455 101.174C73.1095 104.014 89.543 102.518 87.2167 80.1257C88.5242 84.3494 89.6769 94.2749 83.8276 100.187C81.1084 102.935 77.7682 104.187 74.4408 104.543C76.358 105.817 77.7344 107.508 78.324 109.675C73.4781 105.091 67.009 103.703 60.7537 103.674C54.4983 103.703 48.0293 105.091 43.1833 109.675C43.7852 107.463 45.2068 105.748 47.1866 104.464C44.0714 104.022 40.9802 102.761 38.4336 100.187C32.5844 94.2749 33.737 84.3494 35.0445 80.1257C32.7182 102.518 49.1517 104.014 54.8157 101.174Z" fill="black"/>
<mask id="mask3_6103_442314" style="mask-type:alpha" maskUnits="userSpaceOnUse" x="44" y="73" width="34" height="18">
<path d="M53.0916 73.4138C51.7722 73.4138 45.1751 73.9845 44.7133 76.9962C44.2515 80.0079 47.2202 82.0647 50.7826 82.8727C52.1989 83.1939 53.038 84.4488 53.9711 85.8442C55.3849 87.9585 57.0143 90.3954 61.1943 90.3954C65.3742 90.3954 67.0037 87.9586 68.4174 85.8442C69.3505 84.4489 70.1896 83.194 71.6059 82.8727C75.1684 82.0647 78.137 80.0079 77.6752 76.9962C77.2135 73.9845 70.6164 73.4139 69.297 73.4139L53.0916 73.4138Z" fill="#802C33"/>
</mask>
<g mask="url(#mask3_6103_442314)">
<path d="M53.0916 73.4138C51.7722 73.4138 45.1751 73.9845 44.7133 76.9962C44.2515 80.0079 47.2202 82.0647 50.7826 82.8727C52.1989 83.1939 53.038 84.4488 53.9711 85.8442C55.3849 87.9585 57.0143 90.3954 61.1943 90.3954C65.3742 90.3954 67.0037 87.9586 68.4174 85.8442C69.3505 84.4489 70.1896 83.194 71.6059 82.8727C75.1684 82.0647 78.137 80.0079 77.6752 76.9962C77.2135 73.9845 70.6164 73.4139 69.297 73.4139L53.0916 73.4138Z" fill="#802C33"/>
</g>
</g>
<defs>
<linearGradient id="paint0_linear_6103_442314" x1="59.4959" y1="-0.000244141" x2="59.4959" y2="119" gradientUnits="userSpaceOnUse">
<stop stop-color="#ED6015"/>
<stop offset="1" stop-color="#F38F54"/>
</linearGradient>
<linearGradient id="paint1_linear_6103_442314" x1="121.346" y1="38.3367" x2="121.346" y2="79.263" gradientUnits="userSpaceOnUse">
<stop stop-color="#2A2C28"/>
<stop offset="1" stop-color="#7E3C16"/>
</linearGradient>
<linearGradient id="paint2_linear_6103_442314" x1="111.812" y1="43.8948" x2="111.812" y2="73.7053" gradientUnits="userSpaceOnUse">
<stop stop-color="#2A2C28"/>
<stop offset="1" stop-color="#7E3C16"/>
</linearGradient>
<linearGradient id="paint3_linear_6103_442314" x1="-1.51474" y1="38.3367" x2="-1.51474" y2="79.263" gradientUnits="userSpaceOnUse">
<stop stop-color="#2A2C28"/>
<stop offset="1" stop-color="#7E3C16"/>
</linearGradient>
<linearGradient id="paint4_linear_6103_442314" x1="8.01921" y1="43.8948" x2="8.01921" y2="73.7053" gradientUnits="userSpaceOnUse">
<stop stop-color="#2A2C28"/>
<stop offset="1" stop-color="#7E3C16"/>
</linearGradient>
<linearGradient id="paint5_linear_6103_442314" x1="60.115" y1="-14.6233" x2="60.115" y2="35.3398" gradientUnits="userSpaceOnUse">
<stop stop-color="#2A2C28"/>
<stop offset="1" stop-color="#7E3C16"/>
</linearGradient>
<linearGradient id="paint6_linear_6103_442314" x1="61.0056" y1="77.0056" x2="61.0056" y2="130.284" gradientUnits="userSpaceOnUse">
<stop stop-color="#FDF9D4"/>
<stop offset="1" stop-color="#FFEAB5"/>
</linearGradient>
</defs>
</svg>
