<svg width="119" height="119" viewBox="0 0 119 119" fill="none" xmlns="http://www.w3.org/2000/svg">
<mask id="mask0_6103_442369" style="mask-type:alpha" maskUnits="userSpaceOnUse" x="-1" y="-1" width="120" height="120">
<rect x="-0.00402832" y="-0.000244141" width="119" height="119" fill="#D9D9D9"/>
</mask>
<g mask="url(#mask0_6103_442369)">
<path d="M-0.00402832 -0.000244141H118.996V119H-0.00402832V-0.000244141Z" fill="url(#paint0_linear_6103_442369)"/>
<ellipse cx="35.5395" cy="81.6092" rx="9.96526" ry="3.91019" fill="url(#paint1_linear_6103_442369)"/>
<ellipse cx="88.2582" cy="81.6092" rx="9.96526" ry="3.91019" fill="url(#paint2_linear_6103_442369)"/>
<path d="M55.7109 100.173C59.1995 100.037 63.0029 98.9771 64.4686 98.4639C68.0097 97.4852 75.4395 97.8282 77.3085 96.6934C79.1776 95.5586 78.0094 94.0902 79.0774 93.6897C80.1455 93.2891 82.2482 95.058 79.745 97.0605C77.2418 99.0631 67.0288 98.8628 65.6938 98.8628C64.3587 98.8628 59.5526 100.832 53.6785 101.232C47.8043 101.633 45.3012 100.173 45.4347 99.3635C45.5682 98.5536 46.5361 98.3288 48.0714 99.3635C49.6067 100.398 51.3501 100.343 55.7109 100.173Z" fill="#B78B58"/>
<path d="M108.799 114.749C102.795 110.524 84.5218 101.777 76.1358 97.9314H74.9375C81.9657 101.731 99.4212 111.653 107.27 116.139L108.799 114.749Z" fill="#678138"/>
<path d="M96.9648 108.807C99.2066 106.657 105.453 103.237 112.502 106.762C110.678 109.197 105.017 113.016 96.9648 108.807Z" fill="#678138"/>
<path d="M92.5382 119.623C91.3286 117.578 89.8734 112.329 93.73 107.696C95.2246 109.479 97.0788 114.362 92.5382 119.623Z" fill="#678138"/>
<path d="M71.0761 87.8548C62.6554 88.7719 55.3936 87.7715 54.4766 87.8548C55.7271 89.3 59.6874 92.1402 63.1557 91.9401C66.624 91.74 69.8811 89.1332 71.0761 87.8548Z" fill="#CEA779"/>
<path d="M83.7888 61.7888C77.0857 62.449 71.4205 65.3072 69.4258 66.6538L73.1971 67.1132C81.0577 66.1608 96.9514 63.5752 97.829 62.9848C98.6014 62.4652 98.9536 61.5524 98.9536 60.9178C97.4733 61.5892 95.8002 61.8107 94.8273 61.9951C95.9566 61.3999 96.3572 60.5694 96.3572 59.948C94.9607 60.2865 90.4919 61.1287 83.7888 61.7888Z" fill="black"/>
<mask id="mask1_6103_442369" style="mask-type:alpha" maskUnits="userSpaceOnUse" x="69" y="62" width="30" height="13">
<path d="M98.0417 62.8126C83.6399 62.1918 72.9637 65.1513 69.4258 66.7086C70.307 69.5552 74.071 75.0707 82.077 74.3605C90.083 73.6503 96.0559 66.366 98.0417 62.8126Z" fill="white"/>
</mask>
<g mask="url(#mask1_6103_442369)">
<path d="M98.0417 62.8126C83.6399 62.1918 72.9637 65.1513 69.4258 66.7086C70.307 69.5552 74.071 75.0707 82.077 74.3605C90.083 73.6503 96.0559 66.366 98.0417 62.8126Z" fill="white"/>
<circle cx="82.5147" cy="66.8445" r="5.28028" fill="#3D1E20"/>
<circle cx="1.92087" cy="1.92087" r="1.92087" transform="matrix(-1 0 0 1 84.4336 65.1628)" fill="#070002"/>
</g>
<path d="M37.8987 61.7888C44.6018 62.449 50.267 65.3072 52.2617 66.6538L48.4904 67.1132C40.6298 66.1608 24.7361 63.5752 23.8585 62.9848C23.0861 62.4652 22.7339 61.5524 22.7339 60.9178C24.2142 61.5892 25.8873 61.8107 26.8602 61.9951C25.7309 61.3999 25.3303 60.5694 25.3303 59.948C26.7268 60.2865 31.1956 61.1287 37.8987 61.7888Z" fill="black"/>
<mask id="mask2_6103_442369" style="mask-type:alpha" maskUnits="userSpaceOnUse" x="23" y="62" width="30" height="13">
<path d="M23.6458 62.8126C38.0476 62.1918 48.7238 65.1513 52.2617 66.7086C51.3805 69.5552 47.6165 75.0707 39.6105 74.3605C31.6045 73.6503 25.6316 66.366 23.6458 62.8126Z" fill="white"/>
</mask>
<g mask="url(#mask2_6103_442369)">
<path d="M23.6458 62.8126C38.0476 62.1918 48.7238 65.1513 52.2617 66.7086C51.3805 69.5552 47.6165 75.0707 39.6105 74.3605C31.6045 73.6503 25.6316 66.366 23.6458 62.8126Z" fill="white"/>
<circle cx="5.28028" cy="5.28028" r="5.28028" transform="matrix(-1 0 0 1 44.4531 61.5647)" fill="#3D1E20"/>
<circle cx="1.92087" cy="1.92087" r="1.92087" transform="matrix(-1 0 0 1 41.0938 64.9241)" fill="#070002"/>
</g>
<path d="M86.5594 50.1271C81.2702 50.3827 75.6975 54.0367 72.2207 56.9809C70.8842 58.1128 68.876 58.1559 67.6124 56.9432C66.1856 55.5738 66.351 53.2538 68.0448 52.233C73.0101 49.2406 80.6989 45.6633 86.7041 46.265C94.2275 47.019 99.5816 51.3144 101.318 53.3678C99.2006 52.1523 93.2841 49.8023 86.5594 50.1271Z" fill="black"/>
<path d="M33.7366 51.3362C39.0297 51.1804 44.8693 54.3907 48.5641 57.0562C49.9845 58.0808 51.9899 57.9679 53.1556 56.6608C54.4718 55.1848 54.1268 52.8846 52.3588 51.9984C47.1761 49.4005 39.2328 46.4309 33.2925 47.497C25.8504 48.8327 20.8459 53.5309 19.2739 55.713C21.2908 54.3366 27.007 51.5344 33.7366 51.3362Z" fill="black"/>
<path d="M85.0566 36.1169C96.8591 45.9151 104.813 36.9892 107.518 31.2361C121.577 43.1847 104.028 59.0413 112.203 82.5349C118.438 100.453 115.805 114.731 112.203 125.831H127.813L124.416 11.0701H-3.41418V128.891L10.0108 131.081C5.98694 120.355 -2.10038 105.286 10.0108 88.4485C26.0304 66.1776 29.4327 52.9699 28.7443 43.1847C42.9686 44.3563 52.0988 31.2361 53.6576 20.5287C58.7794 39.6799 75.9264 43.1847 85.0566 36.1169Z" fill="url(#paint3_linear_6103_442369)"/>
<path d="M-6.38293 81.9723C15.4667 69.2266 19.8452 38.5115 19.3033 24.7472L10.1994 20.8455C11.4999 49.1979 -0.313596 73.4102 -6.38293 81.9723Z" fill="url(#paint4_linear_6103_442369)"/>
<path d="M27.1 42.3938C29.2851 50.5217 31.0257 66.8709 17.0837 91.247C3.92659 114.251 20.9908 119.287 14.8085 136.782" stroke="#3B1D1F" stroke-width="3.55213"/>
<path d="M37.128 24.7365L5.64441 3.58329L74.5148 -2.81177L128.135 9.48653V17.8494L95.176 24.7365H37.128Z" fill="url(#paint5_linear_6103_442369)"/>
<path d="M121.26 12.251C73.2065 2.60653 25.6611 8.23246 7.89508 12.251L4.72253 -1.91968H121.26V12.251Z" fill="#6F3F31"/>
<path d="M-13.9259 12.9951V-6.03106L-2.60052 -8.99243C4.4051 1.56989 32.853 21.5851 68.808 21.5851C104.763 21.5851 123.384 9.94437 130.923 3.5693V19.1509C124.575 23.1906 102.761 31.2699 66.2886 31.2699C29.8161 31.2699 -2.3846 19.0867 -13.9259 12.9951Z" fill="url(#paint6_linear_6103_442369)"/>
</g>
<defs>
<linearGradient id="paint0_linear_6103_442369" x1="59.496" y1="-0.000244141" x2="59.496" y2="119" gradientUnits="userSpaceOnUse">
<stop stop-color="#FFDFBA"/>
<stop offset="1" stop-color="#FDD7AB"/>
</linearGradient>
<linearGradient id="paint1_linear_6103_442369" x1="35.5395" y1="77.699" x2="35.5395" y2="85.5194" gradientUnits="userSpaceOnUse">
<stop stop-color="#F8C3A5"/>
<stop offset="1" stop-color="#F8C3A5" stop-opacity="0.45"/>
</linearGradient>
<linearGradient id="paint2_linear_6103_442369" x1="88.2582" y1="77.699" x2="88.2582" y2="85.5194" gradientUnits="userSpaceOnUse">
<stop stop-color="#F8C3A5"/>
<stop offset="1" stop-color="#F8C3A5" stop-opacity="0.45"/>
</linearGradient>
<linearGradient id="paint3_linear_6103_442369" x1="62.1992" y1="11.0701" x2="62.1992" y2="131.081" gradientUnits="userSpaceOnUse">
<stop stop-color="#3D1E20"/>
<stop offset="1" stop-color="#331819"/>
</linearGradient>
<linearGradient id="paint4_linear_6103_442369" x1="6.48163" y1="20.8455" x2="-15.3219" y2="118.317" gradientUnits="userSpaceOnUse">
<stop stop-color="#291315"/>
<stop offset="0.657341" stop-color="#291315" stop-opacity="0.342659"/>
<stop offset="1" stop-color="#291315" stop-opacity="0"/>
</linearGradient>
<linearGradient id="paint5_linear_6103_442369" x1="66.8899" y1="-2.81177" x2="66.8899" y2="24.7365" gradientUnits="userSpaceOnUse">
<stop stop-color="#866638"/>
<stop offset="1" stop-color="#B89666"/>
</linearGradient>
<linearGradient id="paint6_linear_6103_442369" x1="58.4988" y1="-8.99243" x2="58.4988" y2="31.2699" gradientUnits="userSpaceOnUse">
<stop stop-color="#CBAB6C"/>
<stop offset="1" stop-color="#D3AF66"/>
</linearGradient>
</defs>
</svg>
