<svg width="119" height="119" viewBox="0 0 119 119" fill="none" xmlns="http://www.w3.org/2000/svg">
<mask id="mask0_6103_442409" style="mask-type:alpha" maskUnits="userSpaceOnUse" x="0" y="-1" width="119" height="120">
<rect y="-0.000244141" width="119" height="119" fill="#D9D9D9"/>
</mask>
<g mask="url(#mask0_6103_442409)">
<path d="M0 -0.000244141H119V119H0V-0.000244141Z" fill="url(#paint0_linear_6103_442409)"/>
<mask id="mask1_6103_442409" style="mask-type:alpha" maskUnits="userSpaceOnUse" x="-4" y="21" width="127" height="98">
<path fill-rule="evenodd" clip-rule="evenodd" d="M17.1911 24.3468C18.577 29.1179 20.5172 42.2812 17.1911 56.7658C13.0335 74.8714 20.7366 95.8358 32.0454 108.224C35.7456 105.113 46.3835 98.9027 59.4242 98.8536V98.8534C59.4501 98.8534 59.476 98.8534 59.502 98.8534C59.5279 98.8534 59.5538 98.8534 59.5797 98.8534V98.8536C72.6204 98.9027 83.2583 105.113 86.9586 108.224C98.2673 95.8358 105.97 74.8714 101.813 56.7658C98.4867 42.2812 100.427 29.1179 101.813 24.3468L122.852 21.5076V119H59.5797H59.4242H-3.84766V21.5076L17.1911 24.3468Z" fill="url(#paint1_linear_6103_442409)"/>
</mask>
<g mask="url(#mask1_6103_442409)">
<path fill-rule="evenodd" clip-rule="evenodd" d="M17.1911 24.3468C18.577 29.1179 20.5172 42.2812 17.1911 56.7658C13.0335 74.8714 20.7366 95.8358 32.0454 108.224C35.7456 105.113 46.3835 98.9027 59.4242 98.8536V98.8534C59.4501 98.8534 59.476 98.8534 59.502 98.8534C59.5279 98.8534 59.5538 98.8534 59.5797 98.8534V98.8536C72.6204 98.9027 83.2583 105.113 86.9586 108.224C98.2673 95.8358 105.97 74.8714 101.813 56.7658C98.4867 42.2812 100.427 29.1179 101.813 24.3468L122.852 21.5076V119H59.5797H59.4242H-3.84766V21.5076L17.1911 24.3468Z" fill="url(#paint2_linear_6103_442409)"/>
<g opacity="0.5">
<path d="M-2.24609 62.4906C-2.10448 44.6482 8.05882 28.9485 13.1228 23.3289L26.5869 21.384V65.4989C26.3658 71.9294 24.4645 86.3822 18.6279 92.7494C12.7914 99.1166 12.5259 106.191 13.1228 108.933C11.1552 106.324 7.88334 98.8247 10.5363 89.6985C13.1893 80.5722 12.5579 69.7628 11.9105 65.4989C10.0325 79.3668 1.69029 88.4917 -2.24609 91.3206V80.3058C6.65269 67.5935 9.24999 50.0339 9.43629 42.8431C2.35605 50.2065 -1.30207 59.0095 -2.24609 62.4906Z" fill="url(#paint3_linear_6103_442409)"/>
<path d="M23.828 123.833C19.7599 118.458 20.1712 108.13 20.8853 103.638C20.8853 111.745 27.9927 120.48 31.5464 123.833H23.828Z" fill="url(#paint4_linear_6103_442409)"/>
<path d="M121.25 62.4906C121.108 44.6482 110.945 28.9485 105.881 23.3289L92.417 21.384V65.4989C92.6381 71.9294 94.5394 86.3822 100.376 92.7494C106.213 99.1166 106.478 106.191 105.881 108.933C107.849 106.324 111.121 98.8247 108.468 89.6985C105.815 80.5722 106.446 69.7628 107.093 65.4989C108.971 79.3668 117.314 88.4917 121.25 91.3206V80.3058C112.351 67.5935 109.754 50.0339 109.568 42.8431C116.648 50.2065 120.306 59.0095 121.25 62.4906Z" fill="url(#paint5_linear_6103_442409)"/>
<path d="M95.1759 123.833C99.244 118.458 98.8328 108.13 98.1186 103.638C98.1186 111.745 91.0112 120.48 87.4575 123.833H95.1759Z" fill="url(#paint6_linear_6103_442409)"/>
</g>
</g>
<g style="mix-blend-mode:multiply" opacity="0.3">
<path d="M12.7322 38.7729C-15.2382 34.7996 -36.853 33.0031 -44.1641 32.6016C-32.0599 24.052 5.63785 6.48364 59.5957 6.48364C113.554 6.48364 152.286 23.5829 164.908 32.1326C154.183 31.8506 130.387 35.2345 106.927 38.7729C83.4662 42.3113 47.6952 43.7396 12.7322 38.7729Z" fill="#736B7A"/>
</g>
<path d="M48.7785 52.1784C43.2966 45.4504 33.4822 43.6604 27.5129 43.6604C33.5683 44.7949 35.1605 46.1416 37.5454 48.3178C33.2182 47.8462 28.133 48.5724 26.332 49.0253C35.0757 58.3457 43.7024 56.2771 46.9275 54.9594C44.1756 60.2701 37.3143 62.2973 34.6992 62.3576C43.0032 64.8199 49.2428 59.4817 51.3247 56.5049C52.0381 59.0501 51.6219 62.8438 51.3247 64.4225C55.9395 59.8077 55.2462 51.5545 54.3227 48.0048C52.3791 50.995 49.8167 52.0331 48.7785 52.1784Z" fill="url(#paint7_linear_6103_442409)"/>
<path d="M41.4418 49.3707C37.0332 48.1817 31.9493 49.0335 29.1523 49.3707C31.3221 51.1101 33.4186 53.7601 38.3892 54.589C41.8773 55.1707 46.0797 54.3603 48.2792 53.7601C47.5927 52.6342 45.2141 50.3881 41.4418 49.3707Z" fill="#F9F6FF"/>
<path d="M69.7996 52.1784C75.2816 45.4504 85.0959 43.6604 91.0652 43.6604C85.0098 44.7949 83.4176 46.1416 81.0328 48.3178C85.36 47.8462 90.4452 48.5724 92.2461 49.0253C83.5024 58.3457 74.8757 56.2771 71.6506 54.9594C74.4025 60.2701 81.2638 62.2973 83.8789 62.3576C75.575 64.8199 69.3353 59.4817 67.2535 56.5049C66.5401 59.0501 66.9562 62.8438 67.2535 64.4225C62.6386 59.8077 63.3319 51.5545 64.2554 48.0048C66.199 50.995 68.7614 52.0331 69.7996 52.1784Z" fill="url(#paint8_linear_6103_442409)"/>
<path d="M77.1363 49.3707C81.545 48.1817 86.6288 49.0335 89.4258 49.3707C87.256 51.1101 85.1595 53.7601 80.1889 54.589C76.7008 55.1707 72.4984 54.3603 70.2989 53.7601C70.9854 52.6342 73.364 50.3881 77.1363 49.3707Z" fill="#F9F6FF"/>
<path fill-rule="evenodd" clip-rule="evenodd" d="M59.3099 76.7092C54.4466 76.8409 50.9122 79.4623 47.1075 82.2843C42.5365 85.6745 37.5753 89.3542 29.4508 89.3542C17.3996 89.3542 15.555 79.9216 16.139 75.2053C8.81186 81.0911 8.57164 103.553 27.5502 103.553C42.5173 103.553 54.9477 94.3544 59.502 89.5589C64.0563 94.3544 76.4867 103.553 91.4538 103.553C110.432 103.553 110.192 81.0911 102.865 75.2053C103.449 79.9216 101.604 89.3542 89.5532 89.3542C81.4287 89.3542 76.4675 85.6745 71.8965 82.2843C68.0917 79.4623 64.5573 76.8409 59.6941 76.7092V76.704C59.6298 76.704 59.5658 76.7044 59.502 76.7053C59.4382 76.7044 59.3741 76.704 59.3099 76.704V76.7092Z" fill="url(#paint9_linear_6103_442409)"/>
<path fill-rule="evenodd" clip-rule="evenodd" d="M68.187 68.3416C70.3863 67.9844 75.2925 68.4544 77.3228 73.1915C79.8605 79.1127 73.3677 81.6116 68.187 79.2896C66.8715 80.4746 63.2541 82.8444 59.3075 82.8452V82.8452C55.3601 82.8452 51.7419 80.4749 50.4261 79.2897C45.2455 81.6117 38.7526 79.1128 41.2904 73.1915C43.3206 68.4545 48.2268 67.9845 50.4261 68.3416C51.0217 66.8341 52.2899 64.273 52.8495 63.1809H59.3056V63.1809H65.7637C66.3233 64.273 67.5914 66.8341 68.187 68.3416Z" fill="url(#paint10_linear_6103_442409)"/>
<rect x="-10.6248" y="-8.69592" width="136.981" height="31.783" fill="#40096B"/>
<path d="M52.2359 45.6887C53.7247 45.0148 54.08 38.8124 54.0716 35.7955C52.1052 37.9542 47.803 37.8781 45.8977 37.5702L46.5854 36.2388C45.1706 36.4993 41.9503 36.6681 40.517 36.7199L42.5264 35.6762C40.1769 34.3333 34.5577 31.8027 30.877 32.4235C27.1963 33.0443 24.0571 38.7516 22.9476 41.5276C24.7891 40.4722 29.1921 38.4715 32.072 38.9117C35.6718 39.4619 50.375 46.5311 52.2359 45.6887Z" fill="url(#paint11_linear_6103_442409)"/>
<path d="M66.7641 45.6886C65.2753 45.0146 64.92 38.8123 64.9284 35.7954C66.8948 37.954 71.197 37.878 73.1023 37.5701L72.4146 36.2386C73.8294 36.4992 77.0497 36.668 78.483 36.7198L76.4736 35.6761C78.8231 34.3332 84.4423 31.8026 88.123 32.4234C91.8037 33.0442 94.9429 38.7514 96.0524 41.5275C94.2109 40.4721 89.8079 38.4714 86.928 38.9116C83.3282 39.4618 68.625 46.531 66.7641 45.6886Z" fill="url(#paint12_linear_6103_442409)"/>
<path d="M12.7322 35.0151C-15.2382 31.7955 -36.853 30.3399 -44.1641 30.0146C-32.0599 23.0868 5.63785 8.85132 59.5957 8.85132C113.554 8.85132 152.286 22.7068 164.908 29.6345C154.183 29.406 130.387 32.148 106.927 35.0151C83.4662 37.8823 47.6952 39.0396 12.7322 35.0151Z" fill="url(#paint13_linear_6103_442409)"/>
<path d="M97.4508 43.8512L88.9219 48.2161L103.345 45.4804L97.3201 41.3118L104.141 42.0198L101.101 36.2284L110.692 41.9285L107.046 34.8271L113.976 29.8592L113.552 35.7478L130.312 37.2424L115.928 33.0681L116.609 24.29L103.914 33.5186L105.311 36.2859L96.2942 31.9318L99.9079 38.7446L90.7014 38.6188L97.4508 43.8512Z" fill="url(#paint14_linear_6103_442409)"/>
<path d="M108.531 59.83L96.0698 49.6947L106.153 54.0815L105.867 46.5991L112.197 50.3923L111.03 44.4021L123.337 49.6949L125.954 55.8237L114.546 49.6947L115.982 56.0812L108.111 51.426L108.531 59.83Z" fill="url(#paint15_linear_6103_442409)"/>
<path d="M21.5414 43.8512L30.0703 48.2161L15.6471 45.4804L21.6721 41.3118L14.8513 42.0198L17.8911 36.2284L8.30021 41.9285L11.9459 34.8271L5.01634 29.8592L5.43988 35.7478L-11.3197 37.2424L3.06405 33.0681L2.38269 24.29L15.0782 33.5186L13.6813 36.2859L22.698 31.9318L19.0843 38.7446L28.2908 38.6188L21.5414 43.8512Z" fill="url(#paint16_linear_6103_442409)"/>
<path d="M10.4612 59.83L22.9224 49.6947L12.8388 54.0815L13.1256 46.5991L6.79553 50.3923L7.96196 44.4021L-4.3445 49.6949L-6.96193 55.8237L4.44588 49.6947L3.00985 56.0812L10.8817 51.426L10.4612 59.83Z" fill="url(#paint17_linear_6103_442409)"/>
<path opacity="0.3" d="M86.0941 9.98059C77.7514 9.26326 68.9003 8.85132 59.5965 8.85132C50.0738 8.85132 41.0575 9.29471 32.599 10.0631C24.6027 12.219 14.0825 15.3254 8.4375 17.8854C17.0589 16.5145 34.5303 14.3127 35.4444 16.4731C36.3584 18.6336 23.0148 21.4588 16.2287 22.6014C21.7009 22.6173 32.6698 22.8219 32.7685 23.5126C32.8672 24.2032 17.5983 26.3493 9.95156 27.3359C17.8207 29.8354 38.7472 34.8342 59.4998 34.8342C80.2523 34.8342 101.179 29.8354 109.048 27.3359C101.401 26.3493 86.1323 24.2032 86.231 23.5126C86.3297 22.8219 97.2986 22.6173 102.771 22.6014C95.9847 21.4588 82.6411 18.6336 83.5551 16.4731C84.4692 14.3127 101.941 16.5145 110.562 17.8854C104.845 15.2926 94.1261 12.1393 86.0941 9.98059Z" fill="url(#paint18_linear_6103_442409)"/>
</g>
<defs>
<linearGradient id="paint0_linear_6103_442409" x1="59.5" y1="-0.000244141" x2="59.5" y2="119" gradientUnits="userSpaceOnUse">
<stop stop-color="#FFDFC4"/>
<stop offset="1" stop-color="#FDAC75"/>
</linearGradient>
<linearGradient id="paint1_linear_6103_442409" x1="59.502" y1="21.5076" x2="59.502" y2="119" gradientUnits="userSpaceOnUse">
<stop stop-color="#BABBBD"/>
<stop offset="1" stop-color="#9D9EA2"/>
</linearGradient>
<linearGradient id="paint2_linear_6103_442409" x1="59.502" y1="21.5076" x2="59.502" y2="119" gradientUnits="userSpaceOnUse">
<stop stop-color="#F3F3F3"/>
<stop offset="1" stop-color="#9D9EA2"/>
</linearGradient>
<linearGradient id="paint3_linear_6103_442409" x1="12.1704" y1="21.384" x2="12.1704" y2="140.246" gradientUnits="userSpaceOnUse">
<stop stop-color="#8A8C93"/>
<stop offset="1" stop-color="#8A8C93" stop-opacity="0.34"/>
</linearGradient>
<linearGradient id="paint4_linear_6103_442409" x1="25.9861" y1="103.638" x2="25.9861" y2="131.056" gradientUnits="userSpaceOnUse">
<stop stop-color="#8A8C93"/>
<stop offset="1" stop-color="#8A8C93" stop-opacity="0.34"/>
</linearGradient>
<linearGradient id="paint5_linear_6103_442409" x1="106.834" y1="21.384" x2="106.833" y2="140.246" gradientUnits="userSpaceOnUse">
<stop stop-color="#8A8C93"/>
<stop offset="1" stop-color="#8A8C93" stop-opacity="0.34"/>
</linearGradient>
<linearGradient id="paint6_linear_6103_442409" x1="93.0178" y1="103.638" x2="93.0178" y2="131.056" gradientUnits="userSpaceOnUse">
<stop stop-color="#8A8C93"/>
<stop offset="1" stop-color="#8A8C93" stop-opacity="0.34"/>
</linearGradient>
<linearGradient id="paint7_linear_6103_442409" x1="40.6646" y1="43.6604" x2="40.6646" y2="64.4225" gradientUnits="userSpaceOnUse">
<stop stop-color="#F4A562"/>
<stop offset="1" stop-color="#E48068" stop-opacity="0"/>
</linearGradient>
<linearGradient id="paint8_linear_6103_442409" x1="77.9135" y1="43.6604" x2="77.9135" y2="64.4225" gradientUnits="userSpaceOnUse">
<stop stop-color="#F4A562"/>
<stop offset="1" stop-color="#E48068" stop-opacity="0"/>
</linearGradient>
<linearGradient id="paint9_linear_6103_442409" x1="59.502" y1="58.3529" x2="59.502" y2="103.553" gradientUnits="userSpaceOnUse">
<stop stop-color="#BABBBD"/>
<stop offset="1" stop-color="#64656A"/>
</linearGradient>
<linearGradient id="paint10_linear_6103_442409" x1="59.3066" y1="65.707" x2="59.3066" y2="82.8452" gradientUnits="userSpaceOnUse">
<stop stop-color="#FFC399"/>
<stop offset="1" stop-color="#F4A66C"/>
</linearGradient>
<linearGradient id="paint11_linear_6103_442409" x1="35.3247" y1="21.3681" x2="40.2149" y2="47.9211" gradientUnits="userSpaceOnUse">
<stop stop-color="#BABBBD"/>
<stop offset="1" stop-color="#7B7C81"/>
</linearGradient>
<linearGradient id="paint12_linear_6103_442409" x1="83.6753" y1="21.368" x2="78.7851" y2="47.921" gradientUnits="userSpaceOnUse">
<stop stop-color="#BABBBD"/>
<stop offset="1" stop-color="#7B7C81"/>
</linearGradient>
<linearGradient id="paint13_linear_6103_442409" x1="60.3717" y1="8.85132" x2="60.3717" y2="37.6175" gradientUnits="userSpaceOnUse">
<stop stop-color="#5E0F9C"/>
<stop offset="1" stop-color="#48087A"/>
</linearGradient>
<linearGradient id="paint14_linear_6103_442409" x1="109.87" y1="24.198" x2="109.538" y2="48.4978" gradientUnits="userSpaceOnUse">
<stop stop-color="#0CD2D5"/>
<stop offset="1" stop-color="#36C9EC"/>
</linearGradient>
<linearGradient id="paint15_linear_6103_442409" x1="126.117" y1="54.8482" x2="96.0489" y2="49.8195" gradientUnits="userSpaceOnUse">
<stop stop-color="#0CD2D5"/>
<stop offset="1" stop-color="#36C9EC"/>
</linearGradient>
<linearGradient id="paint16_linear_6103_442409" x1="9.1221" y1="24.198" x2="9.45412" y2="48.4978" gradientUnits="userSpaceOnUse">
<stop stop-color="#0CD2D5"/>
<stop offset="1" stop-color="#36C9EC"/>
</linearGradient>
<linearGradient id="paint17_linear_6103_442409" x1="-7.12507" y1="54.8482" x2="22.9433" y2="49.8195" gradientUnits="userSpaceOnUse">
<stop stop-color="#0CD2D5"/>
<stop offset="1" stop-color="#36C9EC"/>
</linearGradient>
<linearGradient id="paint18_linear_6103_442409" x1="59.4998" y1="4.52294" x2="59.4998" y2="32.5346" gradientUnits="userSpaceOnUse">
<stop stop-color="#B4ACBB"/>
<stop offset="1" stop-color="#B4ACBB" stop-opacity="0"/>
</linearGradient>
</defs>
</svg>
