<svg width="119" height="119" viewBox="0 0 119 119" fill="none" xmlns="http://www.w3.org/2000/svg">
<mask id="mask0_6103_442461" style="mask-type:alpha" maskUnits="userSpaceOnUse" x="0" y="-1" width="119" height="120">
<rect y="-0.000244141" width="119" height="119" fill="#F9F6FF"/>
</mask>
<g mask="url(#mask0_6103_442461)">
<path d="M0.00390625 -0.000244141H119.004V119H0.00390625V-0.000244141Z" fill="url(#paint0_linear_6103_442461)"/>
<rect x="54.9805" y="-5.74146" width="9.04298" height="17.9911" rx="1.38138" fill="url(#paint1_linear_6103_442461)"/>
<rect width="9.04298" height="4.27443" rx="1.38138" transform="matrix(1 0 0 -1 54.9805 21.4573)" fill="#7F8DCA"/>
<path d="M93.5039 57.7567V30.6701C93.5039 27.3728 94.8138 24.2106 97.1453 21.8791L108.839 10.1849L124.175 -5.15063" stroke="white" stroke-width="1.18404"/>
<path d="M25.5 57.7567V30.6701C25.5 27.3728 24.1902 24.2106 21.8586 21.8791L10.1645 10.1849L-5.17107 -5.15063" stroke="white" stroke-width="1.18404"/>
<path d="M-1.73047 58.7966H2.91348L5.47439 69.5407C7.66405 78.7272 15.8732 85.2096 25.3171 85.2096V85.2096C30.7508 85.2096 35.8976 82.8971 40.5322 80.0605C45.5102 77.0136 52.354 74.1548 59.8679 74.1548" stroke="white" stroke-width="1.18404"/>
<path d="M120.727 58.7966H116.083L113.522 69.5407C111.332 78.7272 103.123 85.2096 93.679 85.2096V85.2096C88.2453 85.2096 83.0985 82.8971 78.4639 80.0605C73.4859 77.0136 66.6421 74.1548 59.1282 74.1548" stroke="white" stroke-width="1.18404"/>
<path d="M69.2578 81.4368H49.7383C51.1668 82.9446 55.1216 85.9602 59.5122 85.9602C63.9029 85.9602 67.8387 82.9446 69.2578 81.4368Z" fill="#CAD0ED"/>
<path d="M45.1859 101.428L41.2539 104.306L42.6496 113.584L43.7673 121.632" stroke="white" stroke-width="0.789362"/>
<path d="M73.8141 101.428L77.7461 104.306L76.3504 113.584L75.2327 121.632" stroke="white" stroke-width="0.789362"/>
<path d="M46.5803 99.7353C47.4372 99.007 48.4014 98.1873 49.5312 97.3141C53.2184 94.4642 57.1992 94.321 59.501 95.7617C61.8027 94.321 65.7836 94.4642 69.4707 97.3141C70.6005 98.1873 71.5648 99.007 72.4217 99.7353C73.8296 100.932 74.9475 101.882 76.0332 102.419C75.0838 102.419 74.2639 102.189 73.1445 101.876C72.4164 101.672 71.5616 101.433 70.4621 101.198C70.3826 101.181 70.3029 101.164 70.2231 101.147C67.5 100.565 64.5784 99.9399 62.4714 100.696C61.1664 101.164 60.3724 101.196 59.5858 101.198C59.5575 101.198 59.5292 101.198 59.501 101.198C59.4727 101.198 59.4445 101.198 59.4162 101.198C58.6296 101.196 57.8356 101.164 56.5306 100.696C54.4235 99.9399 51.502 100.565 48.7789 101.147C48.6991 101.164 48.6194 101.181 48.5399 101.198C47.4403 101.433 46.5856 101.672 45.8575 101.876C44.7381 102.189 43.9182 102.419 42.9688 102.419C44.0544 101.882 45.1723 100.932 46.5803 99.7353Z" fill="url(#paint2_linear_6103_442461)"/>
<path fill-rule="evenodd" clip-rule="evenodd" d="M59.5 108.559C53.854 108.559 49.8668 106.559 48.0664 105.501L59.5 108.559ZM48.0664 105.501C52.2438 108.987 57.3267 109.782 59.5 109.712L48.0664 105.501ZM59.5 109.712C61.6733 109.782 66.7562 108.987 70.9336 105.501C69.1332 106.559 65.146 108.559 59.5 108.559" fill="#BCC4E8"/>
<path d="M-5.37109 43.5054H5.79742C6.93842 43.5054 7.99066 42.8898 8.54979 41.8952L18.7401 23.7677V10.6818C18.7401 7.30314 21.479 4.56421 24.8576 4.56421H40.9482C44.3268 4.56421 47.0657 7.30313 47.0657 10.6818V17.3665L54.0713 21.0427M54.0713 21.0427H64.7089M54.0713 21.0427V44.1512L51.5787 46.6437M64.7089 21.0427L71.3071 17.3665V10.6818C71.3071 7.30314 74.046 4.56421 77.4247 4.56421H96.9416C100.32 4.56421 103.059 7.30313 103.059 10.6818V23.7677L112.28 41.7863C112.82 42.8415 113.905 43.5054 115.091 43.5054H122.409M64.7089 21.0427V44.5219L66.8307 46.6437" stroke="#BCC4E8" stroke-width="1.15913"/>
<path d="M51.7361 45.4679C54.5902 50.9165 46.8974 58.9634 42.6943 62.3058L18.8705 60.2793C11.7352 52.3873 8.38376 39.0896 22.6544 36.8192C36.925 34.5489 48.1685 38.6571 51.7361 45.4679Z" fill="url(#paint3_linear_6103_442461)"/>
<path d="M34.8435 53.7092C42.631 55.0057 45.3884 61.0131 45.7937 63.8547L18.7422 60.179C18.7422 58.2799 25.1091 52.0887 34.8435 53.7092Z" fill="#7F8DCA"/>
<path d="M33.7119 55.1094C26.2935 54.3167 20.6281 58.1551 18.7227 60.1735C27.2379 69.2576 40.3085 66.417 45.7795 63.8612C44.8479 61.2742 41.1303 55.9021 33.7119 55.1094Z" fill="white"/>
<circle cx="32.2678" cy="60.8154" r="4.92407" fill="#E62B33"/>
<circle cx="32.2671" cy="60.8157" r="1.71632" fill="black"/>
<path d="M67.26 45.4679C64.4059 50.9165 72.0986 58.9634 76.3018 62.3058L100.126 60.2793C107.261 52.3873 110.612 39.0896 96.3417 36.8192C82.0711 34.5489 70.8276 38.6571 67.26 45.4679Z" fill="url(#paint4_linear_6103_442461)"/>
<path d="M84.1526 53.7092C76.3651 55.0057 73.6077 61.0131 73.2024 63.8547L100.254 60.179C100.254 58.2799 93.887 52.0887 84.1526 53.7092Z" fill="#7F8DCA"/>
<path d="M85.2842 55.1094C92.7026 54.3167 98.368 58.1551 100.273 60.1735C91.7582 69.2576 78.6876 66.417 73.2166 63.8612C74.1482 61.2742 77.8658 55.9021 85.2842 55.1094Z" fill="white"/>
<circle cx="4.92407" cy="4.92407" r="4.92407" transform="matrix(-1 0 0 1 91.6562 55.8914)" fill="#E62B33"/>
<circle cx="1.71632" cy="1.71632" r="1.71632" transform="matrix(-1 0 0 1 88.4453 59.0994)" fill="black"/>
<path d="M25.3158 62.6519L24.2139 70.7006C23.9086 72.9305 22.73 74.9477 20.9373 76.3085L19.1546 77.6617C16.6372 79.5727 15.3904 82.7244 15.9192 85.8404L22.0337 121.87" stroke="#BCC4E8" stroke-width="1.15913"/>
<path d="M96.6568 62.6519L97.7588 70.7006C98.064 72.9305 99.2427 74.9477 101.035 76.3085L102.818 77.6617C105.335 79.5727 106.582 82.7244 106.053 85.8404L99.939 121.87" stroke="#BCC4E8" stroke-width="1.15913"/>
</g>
<defs>
<linearGradient id="paint0_linear_6103_442461" x1="59.5039" y1="-0.000244141" x2="59.5039" y2="119" gradientUnits="userSpaceOnUse">
<stop stop-color="#F4EFFF"/>
<stop offset="1" stop-color="white"/>
</linearGradient>
<linearGradient id="paint1_linear_6103_442461" x1="59.502" y1="-5.74146" x2="59.502" y2="12.2497" gradientUnits="userSpaceOnUse">
<stop stop-color="#FF725C"/>
<stop offset="1" stop-color="#FF9787"/>
</linearGradient>
<linearGradient id="paint2_linear_6103_442461" x1="59.501" y1="94.865" x2="59.501" y2="102.419" gradientUnits="userSpaceOnUse">
<stop stop-color="#BCC4E8"/>
<stop offset="1" stop-color="#BCC4E8" stop-opacity="0.65"/>
</linearGradient>
<linearGradient id="paint3_linear_6103_442461" x1="32.5452" y1="36.1907" x2="32.5452" y2="62.3058" gradientUnits="userSpaceOnUse">
<stop stop-color="#BCC4E8"/>
<stop offset="1" stop-color="#BCC4E8" stop-opacity="0"/>
</linearGradient>
<linearGradient id="paint4_linear_6103_442461" x1="86.4509" y1="36.1907" x2="86.4509" y2="62.3058" gradientUnits="userSpaceOnUse">
<stop stop-color="#BCC4E8"/>
<stop offset="1" stop-color="#BCC4E8" stop-opacity="0"/>
</linearGradient>
</defs>
</svg>
