<svg width="119" height="119" viewBox="0 0 119 119" fill="none" xmlns="http://www.w3.org/2000/svg">
<mask id="mask0_6103_442505" style="mask-type:alpha" maskUnits="userSpaceOnUse" x="0" y="-1" width="120" height="120">
<rect x="0.000244141" y="-0.000366211" width="119" height="119" fill="#D9D9D9"/>
</mask>
<g mask="url(#mask0_6103_442505)">
<path d="M0.000244141 -0.000366211H119V119H0.000244141V-0.000366211Z" fill="url(#paint0_linear_6103_442505)"/>
<path d="M72.4714 97.6019C66.9031 94.5495 59.9328 95.4753 56.31 96.5426C55.7168 96.7174 55.3895 97.3341 55.5344 97.9353C55.7149 98.6842 56.5415 99.0926 57.2675 98.835C58.7406 98.3124 61.0712 97.6292 63.9424 97.1447C68.0263 96.4556 71.33 97.1624 72.4714 97.6019Z" fill="#156267"/>
<path d="M47.6139 84.5944C51.5365 82.6629 71.4886 83.3677 81.8267 84.9772C91.2651 91.9904 83.551 98.2411 68.3539 94.6155C59.2242 92.4374 56.3825 95.6586 47.9271 95.6586C41.4498 95.6586 39.9787 86.7006 47.6139 84.5944Z" fill="#0F0E12"/>
<path d="M62.3393 50.4751C59.4761 54.1933 55.6173 59.2043 53.9683 63.6666C51.4309 70.5328 55.3117 74.6376 60.2375 74.1898C64.1576 73.8334 64.6271 69.5594 65.0077 66.094C65.1054 65.2051 65.1972 64.3693 65.3399 63.6666C65.4826 64.3693 65.5744 65.2051 65.6721 66.094C66.0527 69.5594 66.5222 73.8334 70.4423 74.1898C75.3681 74.6376 79.2489 70.5328 76.7115 63.6666C75.0625 59.2043 71.2037 54.1933 68.3405 50.4751L68.3402 50.4747C67.0282 48.771 65.9253 47.3387 65.3399 46.3551C64.7544 47.3388 63.6514 48.7712 62.3393 50.4751Z" fill="#0F0E12"/>
<path d="M56.7659 31.514C56.7659 40.4881 44.403 47.7631 32.2873 47.7631C20.1715 47.7631 12.8909 40.4881 12.8909 31.514C12.8909 22.5398 20.1715 15.2648 32.2873 15.2648C38.7354 16.5883 56.7659 22.5398 56.7659 31.514Z" fill="url(#paint1_linear_6103_442505)"/>
<mask id="mask1_6103_442505" style="mask-type:alpha" maskUnits="userSpaceOnUse" x="20" y="18" width="35" height="27">
<path d="M54.4054 31.7C54.4054 38.7662 44.8045 44.4945 35.3954 44.4945C25.9864 44.4945 20.3323 38.7662 20.3323 31.7C20.3323 24.6337 25.9864 18.9054 35.3954 18.9054C44.8045 18.9054 54.4054 24.6337 54.4054 31.7Z" fill="#F6E48F"/>
</mask>
<g mask="url(#mask1_6103_442505)">
<path d="M54.4054 31.7C54.4054 38.7662 44.8045 44.4945 35.3954 44.4945C25.9864 44.4945 20.3323 38.7662 20.3323 31.7C20.3323 24.6337 25.9864 18.9054 35.3954 18.9054C44.8045 18.9054 54.4054 24.6337 54.4054 31.7Z" fill="url(#paint2_linear_6103_442505)"/>
<path d="M58.323 30.079C40.0908 25.1822 24.6856 28.0387 19.262 30.079V15.6515H54.2133L58.323 30.079Z" fill="#946572"/>
<path d="M15.3143 35.3856C33.5464 40.2824 48.9516 37.4259 54.3752 35.3856L54.3752 49.8131L19.4239 49.8131L15.3143 35.3856Z" fill="#946572"/>
</g>
<path d="M72.0299 30.5603C72.0299 39.8949 85.265 47.4621 98.2356 47.4621C111.206 47.4621 119 39.8949 119 30.5603C119 21.2257 111.206 13.6586 98.2356 13.6586C85.265 13.6586 72.0299 21.2257 72.0299 30.5603Z" fill="url(#paint3_linear_6103_442505)"/>
<mask id="mask2_6103_442505" style="mask-type:alpha" maskUnits="userSpaceOnUse" x="74" y="18" width="38" height="28">
<path d="M74.9717 31.6999C74.9717 39.1846 85.1412 45.2522 95.1075 45.2522C105.074 45.2522 111.063 39.1846 111.063 31.6999C111.063 24.2152 105.074 18.1476 95.1075 18.1476C85.1412 18.1476 74.9717 24.2152 74.9717 31.6999Z" fill="#F6E48F"/>
</mask>
<g mask="url(#mask2_6103_442505)">
<path d="M74.9717 31.6999C74.9717 39.1846 85.1412 45.2522 95.1075 45.2522C105.074 45.2522 111.063 39.1846 111.063 31.6999C111.063 24.2152 105.074 18.1476 95.1075 18.1476C85.1412 18.1476 74.9717 24.2152 74.9717 31.6999Z" fill="url(#paint4_linear_6103_442505)"/>
<path d="M113.71 27.2348C95.4775 22.338 80.0723 25.1944 74.6487 27.2348V12.8073H109.6L113.71 27.2348Z" fill="#946572"/>
</g>
<path d="M30.8318 20.5089C23.0335 17.1668 17.1008 20.2463 14.7659 22.4889C14.5509 22.6954 14.2355 22.7635 13.9624 22.6441C13.6211 22.4949 13.4602 22.0951 13.603 21.751C18.6866 9.49791 28.3494 10.821 35.502 13.9707C42.7743 17.1732 45.1822 19.1747 54.8502 19.1747C62.4571 19.1747 65.1914 29.1824 56.5848 30.6502C47.9782 32.1179 41.1063 24.9123 30.8318 20.5089Z" fill="url(#paint5_linear_6103_442505)"/>
<path d="M98.516 18.0732C106.102 14.2742 112.207 16.9964 114.671 19.0965C114.898 19.2898 115.217 19.3392 115.482 19.2038C115.814 19.0345 115.951 18.6259 115.788 18.2908C109.987 6.36099 100.419 8.25503 93.4661 11.8236C86.3967 15.4519 84.1117 17.5928 74.4608 18.1664C66.8673 18.6177 64.7316 28.7699 73.4101 29.7245C82.0886 30.6791 88.5209 23.0784 98.516 18.0732Z" fill="url(#paint6_linear_6103_442505)"/>
<path d="M106.187 91.3064C87.2025 97.6346 54.8841 91.8338 41.0979 88.1424C78.8855 85.6112 101.742 74.4313 108.447 69.1578L134.211 66.4459C132.78 72.096 125.171 84.9782 106.187 91.3064Z" fill="url(#paint7_linear_6103_442505)"/>
<path d="M63.3034 81.0787C34.7896 83.2983 7.70646 64.1894 -2.27089 54.3575L-12.4958 71.9328C-2.64762 81.345 26.2997 98.0376 63.3034 89.5105C100.307 80.9835 114.095 66.3613 116.363 60.1162H111.848C107.547 66.1788 91.8171 78.8591 63.3034 81.0787Z" fill="url(#paint8_linear_6103_442505)"/>
<path d="M55.0628 106.105C18.1283 99.2605 2.23852 77.2755 -1.83947 73.623H-9.63623V99.0324C-3.0984 104.356 19.6057 114.957 58.1195 114.774C96.6332 114.592 119.847 103.139 126.639 97.4354V88.5377C115.092 96.6749 84.6104 111.58 55.0628 106.105Z" fill="url(#paint9_linear_6103_442505)"/>
<path d="M38.1925 11.1418C22.0767 4.89567 5.82598 3.57796 -0.284912 3.69986V-8.30872H131.858V13.1963C117.448 1.82739 94.6564 4.84083 79.6582 10.4568C64.6599 16.0727 58.3372 18.9494 38.1925 11.1418Z" fill="url(#paint10_linear_6103_442505)"/>
<path d="M61.0848 3.20214C44.5356 -1.52621 35.8139 -5.71723 19.8596 -7.2889L129.203 -7.28894V-3.44708C99.5026 -7.43662 81.7713 9.11258 61.0848 3.20214Z" fill="url(#paint11_linear_6103_442505)"/>
<path d="M22.0989 51.2215C7.43177 51.2215 -0.273487 45.9766 -2.29272 43.3541V63.2037C0.265747 64.535 8.10581 67.1977 18.9983 67.1977C32.6139 67.1977 45.151 58.3078 59.5755 58.3078C73.9999 58.3078 81.684 65.3939 99.4786 71.8359C113.714 76.9894 125.721 70.6334 129.945 66.8112V40.528C127.204 44.2643 118.001 51.737 103.118 51.737C84.515 51.737 73.7303 39.4972 63.3501 39.4972C52.9699 39.4972 40.4328 51.2215 22.0989 51.2215Z" fill="url(#paint12_linear_6103_442505)"/>
<path d="M116.884 57.1346C120.436 23.3132 109.098 -1.22928 102.985 -9.27283H126.922V119.488H122.868C119.393 112.796 113.332 90.956 116.884 57.1346Z" fill="url(#paint13_linear_6103_442505)"/>
<path d="M10.0463 75.1664C1.37062 42.2842 8.82766 16.2981 13.6406 7.41528L-10.016 11.071L-10.016 138.321L13.6548 137.702C16.0668 130.558 18.7219 108.049 10.0463 75.1664Z" fill="url(#paint14_linear_6103_442505)"/>
<path d="M80.5159 -8.22546C47.8836 -5.68263 12.8853 14.7301 -0.534912 24.6186V-8.22546H80.5159Z" fill="url(#paint15_linear_6103_442505)"/>
</g>
<defs>
<linearGradient id="paint0_linear_6103_442505" x1="59.5003" y1="-0.000366211" x2="59.5003" y2="128.964" gradientUnits="userSpaceOnUse">
<stop stop-color="#28A7B0"/>
<stop offset="1" stop-color="#047978"/>
</linearGradient>
<linearGradient id="paint1_linear_6103_442505" x1="34.8284" y1="15.2648" x2="34.8284" y2="51.4552" gradientUnits="userSpaceOnUse">
<stop stop-color="#168189"/>
<stop offset="1" stop-color="#308C93"/>
</linearGradient>
<linearGradient id="paint2_linear_6103_442505" x1="37.3688" y1="18.9054" x2="37.3688" y2="44.4945" gradientUnits="userSpaceOnUse">
<stop stop-color="#F4DA98"/>
<stop offset="1" stop-color="#FFD978"/>
</linearGradient>
<linearGradient id="paint3_linear_6103_442505" x1="95.5152" y1="13.6586" x2="95.5152" y2="51.3025" gradientUnits="userSpaceOnUse">
<stop stop-color="#168189"/>
<stop offset="1" stop-color="#308C93"/>
</linearGradient>
<linearGradient id="paint4_linear_6103_442505" x1="93.0172" y1="18.1476" x2="93.0172" y2="45.2522" gradientUnits="userSpaceOnUse">
<stop stop-color="#F4DA98"/>
<stop offset="1" stop-color="#FFD978"/>
</linearGradient>
<linearGradient id="paint5_linear_6103_442505" x1="37.6314" y1="11.8156" x2="42.4112" y2="36.5176" gradientUnits="userSpaceOnUse">
<stop stop-color="#5BCED7"/>
<stop offset="1" stop-color="#28A7B0"/>
</linearGradient>
<linearGradient id="paint6_linear_6103_442505" x1="91.2126" y1="9.79855" x2="87.9069" y2="34.7407" gradientUnits="userSpaceOnUse">
<stop stop-color="#5BCED7"/>
<stop offset="1" stop-color="#28A7B0"/>
</linearGradient>
<linearGradient id="paint7_linear_6103_442505" x1="92.6376" y1="58.6808" x2="81.5873" y2="102.794" gradientUnits="userSpaceOnUse">
<stop stop-color="#F5ECD9"/>
<stop offset="1" stop-color="#F5EDDC"/>
</linearGradient>
<linearGradient id="paint8_linear_6103_442505" x1="58.8299" y1="43.8346" x2="44.1303" y2="103.761" gradientUnits="userSpaceOnUse">
<stop stop-color="#F5ECD9"/>
<stop offset="1" stop-color="#C6B595"/>
</linearGradient>
<linearGradient id="paint9_linear_6103_442505" x1="65.7945" y1="62.0766" x2="49.1318" y2="127.547" gradientUnits="userSpaceOnUse">
<stop stop-color="#F5ECD9"/>
<stop offset="1" stop-color="#C6B595"/>
</linearGradient>
<linearGradient id="paint10_linear_6103_442505" x1="74.8249" y1="-2.62909" x2="63.972" y2="26.0802" gradientUnits="userSpaceOnUse">
<stop stop-color="#F5ECD9"/>
<stop offset="1" stop-color="#C6B595"/>
</linearGradient>
<linearGradient id="paint11_linear_6103_442505" x1="80.3827" y1="-10.5943" x2="78.5855" y2="9.19832" gradientUnits="userSpaceOnUse">
<stop stop-color="#F5ECD9"/>
<stop offset="1" stop-color="#C6B595"/>
</linearGradient>
<linearGradient id="paint12_linear_6103_442505" x1="72.8711" y1="47.5314" x2="53.578" y2="83.6366" gradientUnits="userSpaceOnUse">
<stop stop-color="#F5ECD9"/>
<stop offset="1" stop-color="#C6B595"/>
</linearGradient>
<linearGradient id="paint13_linear_6103_442505" x1="75.8701" y1="-20.7223" x2="37.6034" y2="-2.90031" gradientUnits="userSpaceOnUse">
<stop stop-color="#F5ECD9"/>
<stop offset="1" stop-color="#C6B595"/>
</linearGradient>
<linearGradient id="paint14_linear_6103_442505" x1="38.6885" y1="-8.04083" x2="79.2281" y2="3.72797" gradientUnits="userSpaceOnUse">
<stop stop-color="#F5ECD9"/>
<stop offset="1" stop-color="#C6B595"/>
</linearGradient>
<linearGradient id="paint15_linear_6103_442505" x1="44.328" y1="-17.4405" x2="27.3122" y2="32.3838" gradientUnits="userSpaceOnUse">
<stop stop-color="#F5ECD9"/>
<stop offset="1" stop-color="#C6B595"/>
</linearGradient>
</defs>
</svg>
