<svg width="119" height="119" viewBox="0 0 119 119" fill="none" xmlns="http://www.w3.org/2000/svg">
<mask id="mask0_6103_442542" style="mask-type:alpha" maskUnits="userSpaceOnUse" x="0" y="-1" width="119" height="120">
<rect y="-0.000244141" width="119" height="119" fill="#D9D9D9"/>
</mask>
<g mask="url(#mask0_6103_442542)">
<path d="M0 -0.000244141H119V119H0V-0.000244141Z" fill="url(#paint0_linear_6103_442542)"/>
<path fill-rule="evenodd" clip-rule="evenodd" d="M59.498 81.0574C59.5308 80.6956 59.5475 80.3177 59.5475 79.9234V81.5025C61.7552 98.1718 100.237 78.5328 109.703 70.6472V123.509H59.5475H59.4485H9.29297V70.6472C18.7591 78.5328 57.2409 98.1718 59.4485 81.5025V79.9234C59.4485 80.3177 59.4652 80.6956 59.498 81.0574Z" fill="url(#paint1_linear_6103_442542)"/>
<path fill-rule="evenodd" clip-rule="evenodd" d="M119 -12.5266H0V24.8676H119V-12.5266ZM109.222 88.1559L123.277 58.8736V119H88.529L109.222 88.1559ZM-4.28125 58.8736L9.77425 88.1559L30.4671 119H-4.28125V58.8736Z" fill="url(#paint2_linear_6103_442542)"/>
<path d="M23.3291 76.1263C17.3053 72.4263 14.4748 63.2054 13.8125 59.0574L39.225 76.1263C36.4362 77.6679 29.3528 79.8262 23.3291 76.1263Z" fill="url(#paint3_linear_6103_442542)"/>
<path d="M95.6709 76.1263C101.695 72.4263 104.525 63.2054 105.188 59.0574L79.775 76.1263C82.5638 77.6679 89.6472 79.8262 95.6709 76.1263Z" fill="url(#paint4_linear_6103_442542)"/>
<path d="M25.8588 74.9489C20.2564 71.6809 17.6238 63.5365 17.0078 59.8728L40.6431 74.9489C38.0494 76.3106 31.4613 78.2169 25.8588 74.9489Z" fill="#F3F5F5"/>
<path d="M93.1412 74.9489C98.7436 71.6809 101.376 63.5365 101.992 59.8728L78.3569 74.9489C80.9506 76.3106 87.5387 78.2169 93.1412 74.9489Z" fill="#F3F5F5"/>
<path fill-rule="evenodd" clip-rule="evenodd" d="M9.51742 56.7965L15.4166 77.6379L25.4501 82.6231L23.4453 108.051L27.5152 86.6609L29.7279 84.7486L38.4674 89.0909V131.193H31.7078L10.7995 94.8638L3.64062 51.0017L9.51742 56.7965Z" fill="url(#paint5_linear_6103_442542)"/>
<path d="M104.161 77.638L110.061 56.7966L115.938 51.0018L108.779 94.8639L87.8703 131.193H81.1107V89.091L104.161 77.638Z" fill="url(#paint6_linear_6103_442542)"/>
<path fill-rule="evenodd" clip-rule="evenodd" d="M-7.42188 24.8407C16.123 24.8407 52.6051 -12.318 59.381 -31.2961V5.86191L-7.42188 45.1347V24.8407ZM126.426 24.8407C102.881 24.8407 66.3986 -12.318 59.6228 -31.2961V5.86194L126.426 45.1347V24.8407Z" fill="#4D4E4D"/>
<path d="M31.2782 65.9763L27.3281 67.7716L37.6691 32.8186L38.9762 35.2545L31.2782 65.9763Z" fill="url(#paint7_linear_6103_442542)"/>
<path d="M59.7444 -18.8538V132.087H70.1019V80.4929L112.739 55.9816L105.839 79.154L83.9446 90.9977V132.087H91.6629L112.984 100.27C114.455 98.0751 115.566 95.6601 116.277 93.1156L123.68 66.6048V31.3296C98.7189 27.5903 71.493 0.631393 59.7444 -18.8538Z" fill="url(#paint8_linear_6103_442542)"/>
<path d="M59.8374 132.087V-18.8536C48.0888 0.631516 20.8629 27.5904 -4.0979 31.3297V66.6049L3.3051 93.1157C4.01564 95.6602 5.12716 98.0753 6.59784 100.27L27.9188 132.087H35.6372V90.9979L27.519 86.6064L21.7017 112.771L23.2546 84.2995L13.7428 79.1542L6.84256 55.9817L27.3333 67.7614L37.546 34.8689L30.9652 69.8493L49.4799 80.493V132.087H59.8374Z" fill="url(#paint9_linear_6103_442542)"/>
</g>
<defs>
<linearGradient id="paint0_linear_6103_442542" x1="59.5" y1="-0.000244141" x2="59.5" y2="119" gradientUnits="userSpaceOnUse">
<stop stop-color="#EABB8D"/>
<stop offset="1" stop-color="#E4B382"/>
</linearGradient>
<linearGradient id="paint1_linear_6103_442542" x1="59.498" y1="70.6472" x2="59.498" y2="123.509" gradientUnits="userSpaceOnUse">
<stop stop-color="#181717"/>
<stop offset="1" stop-color="#2F2D2D"/>
</linearGradient>
<linearGradient id="paint2_linear_6103_442542" x1="59.498" y1="-12.5266" x2="59.498" y2="119" gradientUnits="userSpaceOnUse">
<stop stop-color="#616161"/>
<stop offset="1" stop-color="#7A7979"/>
</linearGradient>
<linearGradient id="paint3_linear_6103_442542" x1="26.5187" y1="59.0574" x2="26.5187" y2="81.3774" gradientUnits="userSpaceOnUse">
<stop stop-color="#BB8551"/>
<stop offset="1" stop-color="#BB8551" stop-opacity="0"/>
</linearGradient>
<linearGradient id="paint4_linear_6103_442542" x1="92.4813" y1="59.0574" x2="92.4813" y2="81.3774" gradientUnits="userSpaceOnUse">
<stop stop-color="#BB8551"/>
<stop offset="1" stop-color="#BB8551" stop-opacity="0"/>
</linearGradient>
<linearGradient id="paint5_linear_6103_442542" x1="21.054" y1="51.0017" x2="21.054" y2="131.193" gradientUnits="userSpaceOnUse">
<stop stop-color="#504949"/>
<stop offset="1" stop-color="#383333"/>
</linearGradient>
<linearGradient id="paint6_linear_6103_442542" x1="98.5241" y1="51.0018" x2="98.5241" y2="131.193" gradientUnits="userSpaceOnUse">
<stop stop-color="#504949"/>
<stop offset="1" stop-color="#383333"/>
</linearGradient>
<linearGradient id="paint7_linear_6103_442542" x1="33.1522" y1="32.8186" x2="33.1522" y2="67.7716" gradientUnits="userSpaceOnUse">
<stop stop-color="#504949"/>
<stop offset="1" stop-color="#383333"/>
</linearGradient>
<linearGradient id="paint8_linear_6103_442542" x1="91.712" y1="-43.0868" x2="91.712" y2="132.087" gradientUnits="userSpaceOnUse">
<stop stop-color="#808080"/>
<stop offset="1" stop-color="#A3A3A3"/>
</linearGradient>
<linearGradient id="paint9_linear_6103_442542" x1="27.8697" y1="-0.747526" x2="27.8697" y2="132.087" gradientUnits="userSpaceOnUse">
<stop stop-color="#676968"/>
<stop offset="1" stop-color="#A3A3A3"/>
</linearGradient>
</defs>
</svg>
