<svg width="119" height="119" viewBox="0 0 119 119" fill="none" xmlns="http://www.w3.org/2000/svg">
<mask id="mask0_6103_442615" style="mask-type:alpha" maskUnits="userSpaceOnUse" x="-1" y="-1" width="120" height="120">
<rect x="-0.00390625" y="-0.000732422" width="119" height="119" fill="#F9F6FF"/>
</mask>
<g mask="url(#mask0_6103_442615)">
<path d="M0 -0.000732422H119V118.999H0V-0.000732422Z" fill="url(#paint0_linear_6103_442615)"/>
<path opacity="0.5" d="M36.1016 47.2552C27.1349 43.9613 18.4097 45.3521 15.168 46.4592C19.5876 46.4592 23.3032 47.9607 24.6085 48.7114C22.4066 49.3605 18.492 52.3898 16.8099 53.8233C19.9794 53.8233 23.3256 56.7104 30.7718 60.7517C36.7286 63.9848 42.1891 60.4213 44.1748 58.2354L34.1421 70.0543C40.935 65.3776 54.3642 55.5971 53.7371 53.8891C52.9533 51.7541 47.31 51.3727 36.1016 47.2552Z" fill="url(#paint1_linear_6103_442615)"/>
<path opacity="0.5" d="M82.8906 47.2552C91.8573 43.9613 100.582 45.3521 103.824 46.4592C99.4046 46.4592 95.689 47.9607 94.3836 48.7114C96.5856 49.3605 100.5 52.3898 102.182 53.8233C99.0128 53.8233 95.6665 56.7104 88.2204 60.7517C82.2635 63.9848 76.8031 60.4213 74.8174 58.2354L84.8501 70.0543C78.0571 65.3776 64.628 55.5971 65.2551 53.8891C66.0389 51.7541 71.6822 51.3727 82.8906 47.2552Z" fill="url(#paint2_linear_6103_442615)"/>
<path d="M43.8943 53.8379C39.191 53.077 31.1886 50.5047 27.7754 49.3137C27.4872 51.8193 28.1568 57.0034 33.1403 57.6956C38.1238 58.3877 42.3861 55.4122 43.8943 53.8379Z" fill="#FBFFFE"/>
<path d="M75.0979 53.8379C79.8012 53.077 87.8036 50.5047 91.2168 49.3137C91.505 51.8193 90.8354 57.0034 85.8519 57.6956C80.8684 58.3877 76.6061 55.4122 75.0979 53.8379Z" fill="#FBFFFE"/>
<path fill-rule="evenodd" clip-rule="evenodd" d="M53.0932 59.9551L49.9063 74.7063C49.0072 74.3068 46.8835 73.8704 45.5819 75.3208C43.9548 77.1338 42.1418 81.5035 43.8618 83.549C45.5819 85.5944 53.6372 91.6418 59.9725 91.6418V59.9551H53.0932ZM66.8521 59.9551L70.039 74.7063C70.9381 74.3068 73.0618 73.8704 74.3634 75.3208C75.9905 77.1338 77.8035 81.5035 76.0835 83.549C74.3634 85.5944 66.3081 91.6418 59.9728 91.6418V59.9551H66.8521Z" fill="url(#paint3_linear_6103_442615)"/>
<path fill-rule="evenodd" clip-rule="evenodd" d="M38.4828 100.674C42.4968 99.0493 49.3027 96.4678 51.0834 96.4678C52.3304 96.4678 54.0223 97.1134 55.6739 97.7437C57.1749 98.3165 58.6427 98.8766 59.7129 98.9277C60.7831 98.8766 62.2509 98.3165 63.7519 97.7437C65.4035 97.1134 67.0954 96.4678 68.3424 96.4678C70.1231 96.4678 76.9289 99.0493 80.9429 100.674C81.6167 100.947 82.1371 101.496 82.3803 102.181L83.0957 104.196L80.0261 101.437C76.9812 100.335 70.4993 98.133 68.9312 98.133C67.6105 98.133 65.803 99.402 64.4022 100.385C63.724 100.862 63.1411 101.271 62.755 101.437C61.86 101.821 60.6229 101.824 59.7129 101.823C58.8029 101.824 57.5658 101.821 56.6708 101.437C56.2847 101.271 55.7018 100.862 55.0236 100.385C53.6228 99.402 51.8153 98.133 50.4946 98.133C48.9265 98.133 42.4446 100.335 39.3997 101.437L36.3301 104.196L37.0454 102.181C37.2887 101.496 37.809 100.947 38.4828 100.674Z" fill="#AD5B30"/>
<path opacity="0.5" d="M48.4922 105.519C50.3932 106.06 55.4027 107.142 60.233 107.142C65.0634 107.142 70.0729 106.06 71.9739 105.519C69.2033 107.64 63.7115 109.023 60.233 109.023C56.7546 109.023 51.2627 107.64 48.4922 105.519Z" fill="#D27F52"/>
<path d="M59.1554 43.3839C28.1189 43.3839 -0.0962248 49.7377 -10.3242 53.3012V19.3162H129.223V53.3012C118.799 49.7377 90.192 43.3839 59.1554 43.3839Z" fill="url(#paint4_linear_6103_442615)"/>
<path d="M59.1554 39.4371C28.1189 39.4371 -0.0962248 45.7909 -10.3242 49.3544V15.3694H129.223V49.3544C118.799 45.7909 90.192 39.4371 59.1554 39.4371Z" fill="#595A2F"/>
<path d="M59.1554 34.899C28.1189 34.899 -0.0962248 41.8139 -10.3242 45.6921V-7.0813H129.223V45.6921C118.799 41.8139 90.192 34.899 59.1554 34.899Z" fill="url(#paint5_linear_6103_442615)"/>
<mask id="mask1_6103_442615" style="mask-type:alpha" maskUnits="userSpaceOnUse" x="-11" y="-19" width="141" height="50">
<path d="M59.1535 16.3605C28.1169 16.3605 -0.0981779 25.5705 -10.3262 30.7359V-18.5264H129.221V30.7359C118.797 25.5705 90.19 16.3605 59.1535 16.3605Z" fill="url(#paint6_linear_6103_442615)"/>
</mask>
<g mask="url(#mask1_6103_442615)">
<path d="M59.1535 16.3605C28.1169 16.3605 -0.0981779 25.5705 -10.3262 30.7359V-18.5264H129.221V30.7359C118.797 25.5705 90.19 16.3605 59.1535 16.3605Z" fill="url(#paint7_linear_6103_442615)"/>
<path d="M41.5322 -20.0703L-19.291 40.7531" stroke="#4B6940" stroke-width="1.57872"/>
<path d="M41.5322 -20.0703L-19.291 40.7531" stroke="#39391B" stroke-width="1.57872"/>
<path d="M58.9697 -20.0703L-1.85352 40.7531" stroke="#4B6940" stroke-width="1.57872"/>
<path d="M58.9697 -20.0703L-1.85352 40.7531" stroke="#39391B" stroke-width="1.57872"/>
<path d="M76.4112 -20.0703L15.5879 40.7531" stroke="#4B6940" stroke-width="1.57872"/>
<path d="M76.4112 -20.0703L15.5879 40.7531" stroke="#39391B" stroke-width="1.57872"/>
<path d="M93.8487 -20.0703L33.0254 40.7531" stroke="#4B6940" stroke-width="1.57872"/>
<path d="M93.8487 -20.0703L33.0254 40.7531" stroke="#39391B" stroke-width="1.57872"/>
<path d="M111.29 -20.0703L50.4668 40.7531" stroke="#4B6940" stroke-width="1.57872"/>
<path d="M111.29 -20.0703L50.4668 40.7531" stroke="#39391B" stroke-width="1.57872"/>
<path d="M128.728 -20.0703L67.9043 40.7531" stroke="#4B6940" stroke-width="1.57872"/>
<path d="M128.728 -20.0703L67.9043 40.7531" stroke="#39391B" stroke-width="1.57872"/>
<path d="M146.169 -20.0703L85.3457 40.7531" stroke="#4B6940" stroke-width="1.57872"/>
<path d="M146.169 -20.0703L85.3457 40.7531" stroke="#39391B" stroke-width="1.57872"/>
<path d="M77.4482 -20.0703L138.271 40.7531" stroke="#4B6940" stroke-width="1.57872"/>
<path d="M77.4482 -20.0703L138.271 40.7531" stroke="#39391B" stroke-width="1.57872"/>
<path d="M60.0107 -20.0703L120.834 40.7531" stroke="#4B6940" stroke-width="1.57872"/>
<path d="M60.0107 -20.0703L120.834 40.7531" stroke="#39391B" stroke-width="1.57872"/>
<path d="M42.5693 -20.0703L103.393 40.7531" stroke="#4B6940" stroke-width="1.57872"/>
<path d="M42.5693 -20.0703L103.393 40.7531" stroke="#39391B" stroke-width="1.57872"/>
<path d="M25.1318 -20.0703L85.9551 40.7531" stroke="#4B6940" stroke-width="1.57872"/>
<path d="M25.1318 -20.0703L85.9551 40.7531" stroke="#39391B" stroke-width="1.57872"/>
<path d="M7.69041 -20.0703L68.5137 40.7531" stroke="#4B6940" stroke-width="1.57872"/>
<path d="M7.69041 -20.0703L68.5137 40.7531" stroke="#39391B" stroke-width="1.57872"/>
<path d="M-9.74709 -20.0703L51.0762 40.7531" stroke="#4B6940" stroke-width="1.57872"/>
<path d="M-9.74709 -20.0703L51.0762 40.7531" stroke="#39391B" stroke-width="1.57872"/>
<path d="M-27.1885 -20.0703L33.6348 40.7531" stroke="#4B6940" stroke-width="1.57872"/>
<path d="M-27.1885 -20.0703L33.6348 40.7531" stroke="#39391B" stroke-width="1.57872"/>
</g>
<path fill-rule="evenodd" clip-rule="evenodd" d="M-4.44336 -20.091V5.63732C-4.44336 7.16144 -3.68809 8.58649 -2.38936 9.38414C5.59447 14.2876 21.1492 22.0757 34.4009 23.0419C35.6053 23.1297 36.7724 22.6622 37.6432 21.8256L55.5374 4.63379C56.3827 3.82159 57.5096 3.36799 58.6819 3.36799H58.8437H61H61.1618C62.3342 3.36799 63.461 3.82159 64.3064 4.63379L82.2005 21.8256C83.0714 22.6622 84.2384 23.1297 85.4429 23.0419C98.6946 22.0757 114.249 14.2876 122.233 9.38414C123.532 8.58649 124.287 7.16144 124.287 5.63732V-20.091C124.287 -21.3719 123.771 -22.6158 122.702 -23.3215C112.015 -30.3772 83.7137 -30.112 65.6696 -29.9428C63.6056 -29.9235 61.6758 -29.9054 59.9219 -29.8997C58.168 -29.9054 56.2382 -29.9235 54.1741 -29.9428C36.1301 -30.112 7.82868 -30.3772 -2.85857 -23.3215C-3.92755 -22.6158 -4.44336 -21.3719 -4.44336 -20.091Z" fill="black"/>
<path d="M-4.44336 -17.3282V8.40014C-4.44336 9.92426 -3.68809 11.3493 -2.38936 12.147C5.59447 17.0504 21.1492 24.8385 34.4009 25.8047C35.6053 25.8926 36.7724 25.4251 37.6432 24.5884L55.5374 7.39661C56.3828 6.58441 57.5096 6.13081 58.6819 6.13081H61.1605C62.3328 6.13081 63.4597 6.58441 64.3051 7.39661L82.1992 24.5884C83.07 25.4251 84.2371 25.8926 85.4416 25.8047C98.6932 24.8385 114.248 17.0504 122.232 12.147C123.531 11.3493 124.286 9.92426 124.286 8.40014V-17.3282C124.286 -18.6091 123.77 -19.853 122.701 -20.5587C112.014 -27.6144 83.7124 -27.3492 65.6683 -27.18C63.6045 -27.1607 61.6749 -27.1426 59.9212 -27.1369C58.1675 -27.1426 56.2379 -27.1607 54.1742 -27.18C36.1301 -27.3492 7.8287 -27.6144 -2.85856 -20.5587C-3.92754 -19.853 -4.44336 -18.6091 -4.44336 -17.3282Z" fill="#222B25"/>
<path fill-rule="evenodd" clip-rule="evenodd" d="M124.284 -16.2608L99.6275 -19.5928L74.7851 17.4671L77.7278 20.2942L102.58 -14.3685H107.35L82.1122 24.5065L82.1971 24.5881C83.068 25.4248 84.2351 25.8923 85.4395 25.8045C88.8085 25.5589 92.3263 24.8723 95.8307 23.9043L124.284 -15.4163V-16.2608ZM24.274 23.9773L53.3365 -16.1856L28.1236 -19.5928L4.31226 15.929C5.49272 16.5441 6.73404 17.1663 8.02396 17.7836L31.0764 -14.3685H35.8464L13.4072 20.1953C16.8923 21.6488 20.578 22.9718 24.274 23.9773Z" fill="url(#paint8_linear_6103_442615)"/>
<path fill-rule="evenodd" clip-rule="evenodd" d="M59.9212 -22.4007L59.9057 -22.4007C58.1375 -22.4065 56.1959 -22.4247 54.1394 -22.444L54.1298 -22.4441C45.074 -22.5289 33.6866 -22.6329 23.2508 -21.8556C18.0373 -21.4673 13.1727 -20.8661 9.03004 -19.9656C5.18414 -19.1296 2.26014 -18.0973 0.292813 -16.9431V8.23577C8.11591 13.0102 22.5579 20.1023 34.4789 21.0607L52.2561 3.98127C53.9836 2.32156 56.2863 1.39464 58.6819 1.39464H61.1605C63.5561 1.39464 65.8588 2.32156 67.5863 3.98128L85.3635 21.0607C97.2845 20.1023 111.727 13.0102 119.55 8.23577V-16.9431C117.582 -18.0973 114.658 -19.1296 110.812 -19.9656C106.67 -20.8661 101.805 -21.4673 96.5916 -21.8556C86.1559 -22.6329 74.7684 -22.5289 65.7127 -22.4441L65.7031 -22.444C63.6466 -22.4247 61.7049 -22.4065 59.9367 -22.4007L59.9212 -22.4007ZM0.292813 -17.3282C0.292813 -17.3323 0.293092 -17.3322 0.292813 -17.3281V-17.3282ZM59.9212 -27.1369C58.1675 -27.1426 56.2379 -27.1607 54.1742 -27.18C36.1301 -27.3492 7.8287 -27.6144 -2.85856 -20.5587C-3.92754 -19.853 -4.44336 -18.6091 -4.44336 -17.3282V8.40014C-4.44336 9.92426 -3.68809 11.3493 -2.38936 12.147C5.59447 17.0504 21.1492 24.8385 34.4009 25.8047C35.6053 25.8926 36.7724 25.4251 37.6432 24.5884L55.5374 7.39661C56.3828 6.58441 57.5096 6.13081 58.6819 6.13081H61.1605C62.3328 6.13081 63.4597 6.58441 64.3051 7.39661L82.1992 24.5884C83.07 25.4251 84.2371 25.8926 85.4416 25.8047C98.6932 24.8385 114.248 17.0504 122.232 12.147C123.531 11.3493 124.286 9.92426 124.286 8.40014V-17.3282C124.286 -18.6091 123.77 -19.853 122.701 -20.5587C112.014 -27.6144 83.7124 -27.3492 65.6683 -27.18C63.6045 -27.1607 61.6749 -27.1426 59.9212 -27.1369Z" fill="#354039"/>
</g>
<defs>
<linearGradient id="paint0_linear_6103_442615" x1="59.5" y1="-0.000732422" x2="59.5" y2="118.999" gradientUnits="userSpaceOnUse">
<stop stop-color="#FFD3BB"/>
<stop offset="1" stop-color="#FFBD99"/>
</linearGradient>
<linearGradient id="paint1_linear_6103_442615" x1="34.4632" y1="45.1995" x2="34.4632" y2="70.0543" gradientUnits="userSpaceOnUse">
<stop stop-color="#EA7A40"/>
<stop offset="1" stop-color="#D27F52" stop-opacity="0"/>
</linearGradient>
<linearGradient id="paint2_linear_6103_442615" x1="84.529" y1="45.1995" x2="84.529" y2="70.0543" gradientUnits="userSpaceOnUse">
<stop stop-color="#EA7A40"/>
<stop offset="1" stop-color="#D27F52" stop-opacity="0"/>
</linearGradient>
<linearGradient id="paint3_linear_6103_442615" x1="59.9727" y1="59.9551" x2="59.9727" y2="91.6418" gradientUnits="userSpaceOnUse">
<stop stop-color="#FFC6A7"/>
<stop offset="0.921875" stop-color="#F9A275"/>
</linearGradient>
<linearGradient id="paint4_linear_6103_442615" x1="59.4493" y1="19.3162" x2="59.4493" y2="53.3012" gradientUnits="userSpaceOnUse">
<stop stop-color="#EA7A40"/>
<stop offset="1" stop-color="#D27F52" stop-opacity="0"/>
</linearGradient>
<linearGradient id="paint5_linear_6103_442615" x1="59.4493" y1="8.70595" x2="59.4493" y2="45.6921" gradientUnits="userSpaceOnUse">
<stop stop-color="#6C6D46"/>
<stop offset="1" stop-color="#707146"/>
</linearGradient>
<linearGradient id="paint6_linear_6103_442615" x1="59.4473" y1="-18.5264" x2="59.4473" y2="44.2805" gradientUnits="userSpaceOnUse">
<stop stop-color="#5C745E"/>
<stop offset="1" stop-color="#5C745E" stop-opacity="0"/>
</linearGradient>
<linearGradient id="paint7_linear_6103_442615" x1="59.4473" y1="-15.18" x2="59.4473" y2="26.2777" gradientUnits="userSpaceOnUse">
<stop stop-color="#6B6C42"/>
<stop offset="1" stop-color="#4E4F2A"/>
</linearGradient>
<linearGradient id="paint8_linear_6103_442615" x1="64.298" y1="-19.5928" x2="49.4563" y2="94.9966" gradientUnits="userSpaceOnUse">
<stop stop-color="#2E3932"/>
<stop offset="1" stop-color="#2E3932" stop-opacity="0"/>
</linearGradient>
</defs>
</svg>
