<svg width="119" height="119" viewBox="0 0 119 119" fill="none" xmlns="http://www.w3.org/2000/svg">
<mask id="mask0_6103_442672" style="mask-type:alpha" maskUnits="userSpaceOnUse" x="-1" y="0" width="120" height="120">
<rect x="-0.00366211" y="0.000244141" width="119" height="119" fill="#D9D9D9"/>
</mask>
<g mask="url(#mask0_6103_442672)">
<path d="M-0.00366211 0.000244141H118.996V119H-0.00366211V0.000244141Z" fill="url(#paint0_linear_6103_442672)"/>
<path fill-rule="evenodd" clip-rule="evenodd" d="M27.5491 95.6206C27.403 98.9812 29.0785 107.013 36.9497 112.253C36.4866 111.498 35.6568 109.576 36.0428 107.935C37.3471 110.402 42.2187 116.056 51.2698 118.94C53.1983 117.292 57.0553 112.628 57.0553 107.157C56.6505 107.698 55.4743 108.806 54.008 108.913C54.1327 107.65 54.3073 104.843 54.008 103.724H59.486H59.5067H64.9846C64.6854 104.843 64.86 107.65 64.9846 108.913C63.5183 108.806 62.3422 107.698 61.9374 107.157C61.9374 112.628 65.7944 117.292 67.7229 118.94C76.774 116.056 81.6455 110.402 82.9499 107.935C83.3359 109.576 82.5061 111.498 82.043 112.253C89.9142 107.013 91.5897 98.9812 91.4435 95.6206C98.9602 118.218 73.2977 132.507 59.5067 136.834V136.841C59.5032 136.84 59.4998 136.839 59.4963 136.838C59.4929 136.839 59.4894 136.84 59.486 136.841V136.834C45.6949 132.507 20.0325 118.218 27.5491 95.6206Z" fill="url(#paint1_linear_6103_442672)"/>
<mask id="mask1_6103_442672" style="mask-type:alpha" maskUnits="userSpaceOnUse" x="34" y="79" width="51" height="21">
<path d="M36.0153 81.8557C41.2476 81.0197 49.1783 79.7524 59.4941 79.7524C69.8099 79.7524 77.7408 81.0197 82.973 81.8557C83.5966 81.9553 84.1819 82.0489 84.7283 82.1334C83.0256 83.0444 81.3584 85.2061 79.4584 87.6698L79.4583 87.6698C77.3437 90.4117 74.9406 93.5276 71.879 95.7098C67.2593 99.0026 63.4297 99.5936 59.4941 99.5936C55.5586 99.5936 51.729 99.0026 47.1093 95.7098C44.0477 93.5276 41.6446 90.4117 39.53 87.6698L39.53 87.6698C37.6299 85.2061 35.9628 83.0444 34.26 82.1334C34.8064 82.0489 35.3917 81.9553 36.0153 81.8557L36.0153 81.8557Z" fill="black"/>
</mask>
<g mask="url(#mask1_6103_442672)">
<path d="M36.0153 81.8557C41.2476 81.0197 49.1783 79.7524 59.4941 79.7524C69.8099 79.7524 77.7408 81.0197 82.973 81.8557C83.5966 81.9553 84.1819 82.0489 84.7283 82.1334C83.0256 83.0444 81.3584 85.2061 79.4584 87.6698L79.4583 87.6698C77.3437 90.4117 74.9406 93.5276 71.879 95.7098C67.2593 99.0026 63.4297 99.5936 59.4941 99.5936C55.5586 99.5936 51.729 99.0026 47.1093 95.7098C44.0477 93.5276 41.6446 90.4117 39.53 87.6698L39.53 87.6698C37.6299 85.2061 35.9628 83.0444 34.26 82.1334C34.8064 82.0489 35.3917 81.9553 36.0153 81.8557L36.0153 81.8557Z" fill="black"/>
<path d="M59.7062 91.6034C50.2495 88.4908 46.9789 94.3873 46.5256 97.7247L72.4634 97.1904C71.808 89.3686 63.6855 90.2067 59.7062 91.6034Z" fill="#CC376F"/>
<path d="M60.0072 84.0734C48.0429 84.0734 38.7661 82.2853 35.6233 81.3912L61.3076 78.709L82.2777 80.7409C79.8393 81.8517 71.9715 84.0734 60.0072 84.0734Z" fill="white"/>
<path d="M57.8917 94.4806C69.8561 94.4806 79.1328 96.2687 82.2756 97.1628L58.4978 102.731L35.6212 97.8131C38.0596 96.7023 45.9274 94.4806 57.8917 94.4806Z" fill="white"/>
<path d="M46.8275 88.6694L48.9383 82.3372H43.5237L46.8275 88.6694Z" fill="white"/>
<path d="M72.1652 88.6694L70.0544 82.3372H75.469L72.1652 88.6694Z" fill="white"/>
</g>
<path d="M49.012 71.9257C49.1795 70.7292 50.1249 68.387 52.566 68.5903C54.0385 68.7129 54.9259 70.241 55.8251 71.7896C56.7892 73.45 57.7671 75.134 59.4946 75.134V76.5952C58.2096 76.5952 56.138 75.3769 55.1903 72.3606C55.1412 72.3771 55.0801 72.4007 55.0078 72.4286C54.5174 72.6178 53.5099 73.0065 52.1929 72.7459C50.7486 72.46 50.0878 71.4665 49.9602 70.8268C49.7427 70.9197 49.2485 71.2695 49.012 71.9257Z" fill="url(#paint2_linear_6103_442672)"/>
<path d="M69.9775 71.9257C69.8099 70.7292 68.8645 68.387 66.4234 68.5903C64.9509 68.7129 64.0636 70.241 63.1644 71.7896C62.2002 73.45 61.2222 75.134 59.4946 75.134V76.5952C60.7796 76.5952 62.8515 75.3769 63.7991 72.3606C63.8483 72.3771 63.9093 72.4007 63.9816 72.4286C64.472 72.6178 65.4796 73.0065 66.7966 72.7459C68.2408 72.46 68.9016 71.4665 69.0292 70.8268C69.2468 70.9197 69.741 71.2695 69.9775 71.9257Z" fill="url(#paint3_linear_6103_442672)"/>
<path d="M46.6979 43.7889C50.3162 46.1583 50.4262 42.8016 50.0289 40.8271C52.0746 44.2127 51.1962 47.1776 47.9833 47.0316C44.7703 46.8856 36.1127 40.8271 26.6753 38.5375C19.1255 36.7059 13.6238 43.7535 11.8167 47.5063C11.8702 37.6005 18.6689 34.2348 22.0616 33.7901C20.7141 33.0285 18.6352 32.993 17.7642 33.0704C30.2794 27.5563 42.175 40.8271 46.6979 43.7889Z" fill="url(#paint4_linear_6103_442672)"/>
<path d="M19.6439 46.7478C27.7233 39.4305 37.7889 44.1647 41.8118 47.4464C40.3502 47.2481 38.8611 47.5291 38.2993 47.6944C41.4218 49.443 44.9422 52.6839 46.3121 54.0858C40.8576 53.8426 35.2989 56.483 29.0106 57.3863C23.9799 58.1089 17.4414 55.8808 14.801 54.6764C15.7738 54.5027 18.4837 51.7233 20.4987 48.9092C22.1107 46.658 23.7645 45.8635 24.3898 45.7477C22.7778 45.7199 20.5542 46.4029 19.6439 46.7478Z" fill="url(#paint5_linear_6103_442672)"/>
<path d="M31.3635 45.7202C25.2218 44.9525 20.6352 51.1582 19.1096 54.357C20.5122 55.2182 24.6608 56.5419 30.0348 54.9474C35.4088 53.3529 40.6893 52.4622 42.6578 52.2161C41.4521 50.3707 37.5052 46.4879 31.3635 45.7202Z" fill="#FCC553"/>
<path fill-rule="evenodd" clip-rule="evenodd" d="M32.8115 54.1792C33.1204 53.7726 33.3038 53.2653 33.3038 52.7152C33.3038 51.3775 32.2193 50.293 30.8815 50.293C29.5437 50.293 28.4592 51.3775 28.4592 52.7152C28.4592 53.7339 29.088 54.6057 29.9786 54.9636C29.9967 54.9583 30.0147 54.953 30.0328 54.9476C30.9675 54.6703 31.8994 54.4143 32.8115 54.1792Z" fill="black"/>
<path d="M72.3026 43.7889C68.6843 46.1583 68.5743 42.8016 68.9715 40.8271C66.9259 44.2127 67.8043 47.1776 71.0172 47.0316C74.2301 46.8856 82.8878 40.8271 92.3251 38.5375C99.875 36.7059 105.377 43.7535 107.184 47.5063C107.13 37.6005 100.332 34.2348 96.9389 33.7901C98.2864 33.0285 100.365 32.993 101.236 33.0704C88.7211 27.5563 76.8255 40.8271 72.3026 43.7889Z" fill="url(#paint6_linear_6103_442672)"/>
<path d="M99.3566 46.7478C91.2772 39.4305 81.2116 44.1647 77.1887 47.4464C78.6503 47.2481 80.1394 47.5291 80.7012 47.6944C77.5787 49.443 74.0583 52.6839 72.6884 54.0858C78.1429 53.8426 83.7016 56.483 89.9899 57.3863C95.0206 58.1089 101.559 55.8808 104.199 54.6764C103.227 54.5027 100.517 51.7233 98.5018 48.9092C96.8898 46.658 95.236 45.8635 94.6107 45.7477C96.2227 45.7199 98.4463 46.4029 99.3566 46.7478Z" fill="url(#paint7_linear_6103_442672)"/>
<path d="M87.637 45.7202C93.7787 44.9525 98.3653 51.1582 99.8909 54.357C98.4883 55.2182 94.3397 56.5419 88.9657 54.9474C83.5917 53.3529 78.3112 52.4622 76.3427 52.2161C77.5484 50.3707 81.4953 46.4879 87.637 45.7202Z" fill="#FCC553"/>
<path fill-rule="evenodd" clip-rule="evenodd" d="M86.1851 54.1792C85.8762 53.7726 85.6928 53.2653 85.6928 52.7152C85.6928 51.3775 86.7773 50.293 88.1151 50.293C89.4529 50.293 90.5374 51.3775 90.5374 52.7152C90.5374 53.7339 89.9086 54.6057 89.018 54.9636C88.9999 54.9583 88.9819 54.953 88.9638 54.9476C88.0291 54.6703 87.0972 54.4143 86.1851 54.1792Z" fill="black"/>
<path d="M-1.17944 14.3201C4.20059 8.40792 19.3582 -2.50264 36.9485 1.15243C54.4395 4.78685 58.2827 24.7594 59.4872 34.1186V34.2771C59.4906 34.2507 59.494 34.2242 59.4974 34.1976C59.5008 34.2242 59.5042 34.2507 59.5075 34.2771V34.1186C60.712 24.7594 64.5553 4.78685 82.0462 1.15243C99.6365 -2.50264 114.794 8.40792 120.174 14.3201V-4.27319H-1.17944V14.3201Z" fill="url(#paint8_linear_6103_442672)"/>
<mask id="mask2_6103_442672" style="mask-type:alpha" maskUnits="userSpaceOnUse" x="8" y="-9" width="26" height="35">
<path d="M8.55298 -8.7207C7.52967 4.61986 9.19754 12.8246 12.1545 19.6906C14.3635 24.8198 20.3628 26.9183 25.6766 25.2005C33.3437 22.7221 35.9859 13.8027 31.8945 6.8609C29.3572 2.55595 27.2099 -2.12367 26.6833 -6.43608L8.55298 -8.7207Z" fill="#926369"/>
</mask>
<g mask="url(#mask2_6103_442672)">
<path d="M8.55298 -8.7207C7.52967 4.61986 9.19754 12.8246 12.1545 19.6906C14.3635 24.8198 20.3628 26.9183 25.6766 25.2005C33.3437 22.7221 35.9859 13.8027 31.8945 6.8609C29.3572 2.55595 27.2099 -2.12367 26.6833 -6.43608L8.55298 -8.7207Z" fill="#B90709"/>
<path d="M20.1983 14.1156C7.67728 6.73138 11.183 -13.5108 11.4733 -14.4359L3.79137 5.51216L10.503 24.2854L18.9895 28.9808L33.8546 30.1896L39.0839 10.2848C36.9624 14.0231 30.2151 20.0229 20.1983 14.1156Z" fill="url(#paint9_linear_6103_442672)"/>
</g>
<mask id="mask3_6103_442672" style="mask-type:alpha" maskUnits="userSpaceOnUse" x="85" y="-9" width="26" height="35">
<path d="M110.44 -8.7207C111.463 4.61986 109.795 12.8246 106.838 19.6906C104.629 24.8198 98.6299 26.9183 93.3161 25.2005C85.6489 22.7221 83.0068 13.8027 87.0982 6.8609C89.6355 2.55595 91.7828 -2.12367 92.3093 -6.43608L110.44 -8.7207Z" fill="#926369"/>
</mask>
<g mask="url(#mask3_6103_442672)">
<path d="M110.44 -8.7207C111.463 4.61986 109.795 12.8246 106.838 19.6906C104.629 24.8198 98.6299 26.9183 93.3161 25.2005C85.6489 22.7221 83.0068 13.8027 87.0982 6.8609C89.6355 2.55595 91.7828 -2.12367 92.3093 -6.43608L110.44 -8.7207Z" fill="#B90709"/>
<path d="M98.7944 14.1156C111.315 6.73138 107.81 -13.5108 107.519 -14.4359L115.201 5.51216L108.49 24.2854L100.003 28.9808L85.138 30.1896L79.9088 10.2848C82.0303 14.0231 88.7776 20.0229 98.7944 14.1156Z" fill="url(#paint10_linear_6103_442672)"/>
</g>
</g>
<defs>
<linearGradient id="paint0_linear_6103_442672" x1="59.4963" y1="0.000244141" x2="59.4963" y2="119" gradientUnits="userSpaceOnUse">
<stop stop-color="#DA1818"/>
<stop offset="1" stop-color="#F23F4F"/>
</linearGradient>
<linearGradient id="paint1_linear_6103_442672" x1="59.4964" y1="95.6206" x2="59.4964" y2="136.841" gradientUnits="userSpaceOnUse">
<stop/>
<stop offset="1" stop-color="#7A2222"/>
</linearGradient>
<linearGradient id="paint2_linear_6103_442672" x1="59.4947" y1="68.5779" x2="59.4947" y2="76.5952" gradientUnits="userSpaceOnUse">
<stop/>
<stop offset="1" stop-color="#7A2222"/>
</linearGradient>
<linearGradient id="paint3_linear_6103_442672" x1="59.4947" y1="68.5779" x2="59.4947" y2="76.5952" gradientUnits="userSpaceOnUse">
<stop/>
<stop offset="1" stop-color="#7A2222"/>
</linearGradient>
<linearGradient id="paint4_linear_6103_442672" x1="31.4728" y1="31.7439" x2="31.4728" y2="47.5063" gradientUnits="userSpaceOnUse">
<stop/>
<stop offset="1" stop-color="#7A2222"/>
</linearGradient>
<linearGradient id="paint5_linear_6103_442672" x1="30.5565" y1="42.8845" x2="30.5565" y2="57.5274" gradientUnits="userSpaceOnUse">
<stop/>
<stop offset="1" stop-color="#7A2222"/>
</linearGradient>
<linearGradient id="paint6_linear_6103_442672" x1="87.5277" y1="31.7439" x2="87.5277" y2="47.5063" gradientUnits="userSpaceOnUse">
<stop/>
<stop offset="1" stop-color="#7A2222"/>
</linearGradient>
<linearGradient id="paint7_linear_6103_442672" x1="88.4439" y1="42.8845" x2="88.4439" y2="57.5274" gradientUnits="userSpaceOnUse">
<stop/>
<stop offset="1" stop-color="#7A2222"/>
</linearGradient>
<linearGradient id="paint8_linear_6103_442672" x1="59.4974" y1="-4.27319" x2="59.4974" y2="34.2771" gradientUnits="userSpaceOnUse">
<stop/>
<stop offset="1" stop-opacity="0.56"/>
</linearGradient>
<linearGradient id="paint9_linear_6103_442672" x1="27.3869" y1="-9.44265" x2="15.6587" y2="27.9357" gradientUnits="userSpaceOnUse">
<stop stop-color="#94090B"/>
<stop offset="1" stop-color="#94090B" stop-opacity="0"/>
</linearGradient>
<linearGradient id="paint10_linear_6103_442672" x1="91.6058" y1="-9.44265" x2="103.334" y2="27.9357" gradientUnits="userSpaceOnUse">
<stop stop-color="#94090B"/>
<stop offset="1" stop-color="#94090B" stop-opacity="0"/>
</linearGradient>
</defs>
</svg>
