<svg width="119" height="119" viewBox="0 0 119 119" fill="none" xmlns="http://www.w3.org/2000/svg">
<mask id="mask0_6103_442724" style="mask-type:alpha" maskUnits="userSpaceOnUse" x="-1" y="0" width="120" height="120">
<rect x="-0.00390625" y="0.000244141" width="119" height="119" fill="#D9D9D9"/>
</mask>
<g mask="url(#mask0_6103_442724)">
<path d="M-0.00390625 0.000244141H118.996V119H-0.00390625V0.000244141Z" fill="url(#paint0_linear_6103_442724)"/>
<path fill-rule="evenodd" clip-rule="evenodd" d="M59.1602 119.523C62.9683 119.449 70.7271 118.167 74.3418 113.453C72.6411 114.835 67.1986 117.587 58.957 117.632C50.7155 117.587 45.273 114.835 43.5723 113.453C47.187 118.167 54.9458 119.449 58.7538 119.523V119.526C58.8201 119.527 58.8878 119.527 58.957 119.526C59.0262 119.527 59.094 119.527 59.1602 119.526V119.523Z" fill="#C67A48"/>
<path fill-rule="evenodd" clip-rule="evenodd" d="M49.2645 109.973C49.298 109.972 49.331 109.97 49.3638 109.969C50.9877 109.903 52.3206 110.365 53.7275 110.852C55.1876 111.358 56.7275 111.892 58.7551 111.892V107.286C57.9557 107.286 56.7816 106.824 55.685 106.191C54.3144 105.399 51.7412 104.18 48.9694 105.49C48.1704 105.868 47.3059 106.354 46.4149 106.856C44.2149 108.094 41.854 109.423 39.9238 109.423C41.885 110.272 46.5978 110.081 49.2645 109.973ZM68.2472 109.973L68.1479 109.969C66.524 109.903 65.1911 110.365 63.7842 110.852C62.3241 111.358 60.7843 111.892 58.7566 111.892V107.286C59.556 107.286 60.7301 106.824 61.8267 106.191C63.1974 105.399 65.7705 104.18 68.5424 105.49C69.3413 105.868 70.2059 106.354 71.0968 106.856C73.2969 108.094 75.6577 109.423 77.5879 109.423C75.6268 110.272 70.9139 110.081 68.2472 109.973Z" fill="#B86A37"/>
<path d="M47.4391 87.908C46.9027 89.2544 46.6174 92.1801 49.7374 93.0012C51.9579 93.5855 53.2882 94.2117 54.5034 95.1443C55.9164 96.2287 57.1738 97.1936 59.4942 97.2137C61.8147 97.1936 63.072 96.2287 64.485 95.1443C65.7002 94.2117 67.0305 93.5855 69.251 93.0012C72.371 92.1801 72.0858 89.2544 71.5493 87.908C74.5786 91.2673 72.3015 93.9227 69.537 94.4629C67.6889 94.824 66.0998 96.2064 64.3412 97.7364C64.2203 97.8416 64.0987 97.9474 63.9761 98.0536C62.51 99.3242 60.8091 99.4344 59.5682 99.441V99.4414C59.5437 99.4414 59.5191 99.4414 59.4942 99.4413C59.4694 99.4414 59.4447 99.4414 59.4202 99.4414V99.441C58.1793 99.4344 56.4784 99.3242 55.0123 98.0536C54.8897 97.9474 54.7681 97.8416 54.6473 97.7364C52.8886 96.2064 51.2995 94.824 49.4515 94.4629C46.6869 93.9227 44.4099 91.2673 47.4391 87.908Z" fill="#8E4E24"/>
<path opacity="0.2" fill-rule="evenodd" clip-rule="evenodd" d="M4.83789 44.772C4.97075 50.4222 5.97486 63.4293 8.9285 70.2553C12.6205 78.7878 24.8251 83.212 36.4144 82.6853C47.3594 82.1879 51.4438 74.5502 53.9374 69.8872C54.0842 69.6128 54.2255 69.3486 54.3623 69.0968C56.7623 64.6804 57.9415 63.7497 59.6172 63.706C61.2929 63.7497 62.4721 64.6804 64.8721 69.0968C65.0089 69.3486 65.1502 69.6128 65.297 69.8872C67.7906 74.5502 71.875 82.1879 82.82 82.6853C94.4092 83.212 106.614 78.7878 110.306 70.2553C113.26 63.4293 114.264 50.4222 114.396 44.772L59.6172 52.0903L4.83789 44.772Z" fill="#B86A37"/>
<path fill-rule="evenodd" clip-rule="evenodd" d="M4.83789 44.772C4.97075 49.8927 5.97486 61.6808 8.9285 67.8672C12.6205 75.6001 24.8251 79.6096 36.4144 79.1323C47.3594 78.6815 51.4438 71.7596 53.9374 67.5336C54.0842 67.2848 54.2255 67.0454 54.3623 66.8172C56.7623 62.8147 57.9415 61.9712 59.6172 61.9316C61.2929 61.9712 62.4721 62.8147 64.8721 66.8172C65.0089 67.0454 65.1502 67.2848 65.297 67.5336C67.7906 71.7596 71.875 78.6815 82.82 79.1323C94.4092 79.6096 106.614 75.6001 110.306 67.8672C113.26 61.6808 114.264 49.8927 114.396 44.772L59.6172 51.4045L4.83789 44.772Z" fill="#020000"/>
<path d="M15.848 70.0002C10.9712 65.506 10.6474 53.5834 11.0951 48.1838C23.4247 48.1838 48.8487 49.0265 51.907 52.3972C55.7299 56.6106 48.704 70.0002 42.8147 73.3707C36.9254 76.7413 21.9439 75.6179 15.848 70.0002Z" fill="#392A21"/>
<path fill-rule="evenodd" clip-rule="evenodd" d="M19.7279 72.517C22.5959 73.8651 26.1001 74.7175 29.5822 75.0743L44.5529 50.0747C41.2628 49.5546 37.1937 49.1653 32.9208 48.8796L19.7279 72.517ZM28.3883 48.6168C26.8295 48.5391 25.2704 48.4735 23.7375 48.4187L12.8389 65.0596C13.4026 66.6144 14.1196 68.0093 15.024 69.1187L28.3883 48.6168Z" fill="url(#paint1_linear_6103_442724)"/>
<path d="M103.386 70.0002C108.263 65.506 108.587 53.5834 108.139 48.1838C95.8096 48.1838 70.3857 49.0265 67.3274 52.3972C63.5045 56.6106 70.5303 70.0002 76.4196 73.3707C82.3089 76.7413 97.2905 75.6179 103.386 70.0002Z" fill="#392A21"/>
<path fill-rule="evenodd" clip-rule="evenodd" d="M80.5287 74.7842C83.7931 75.4258 87.8767 75.4272 91.8129 74.7882L107.745 48.1838C104.289 48.1887 99.877 48.2583 95.2395 48.4274L80.5287 74.7842ZM90.4252 48.6375C88.7517 48.7232 87.0813 48.8231 85.4469 48.9386L72.063 69.3743C72.999 70.5389 73.983 71.5615 74.9628 72.3582L90.4252 48.6375Z" fill="url(#paint2_linear_6103_442724)"/>
<path opacity="0.2" d="M145.313 32.1821C145.313 49.8191 106.891 64.1168 59.4961 64.1168C12.101 64.1168 -26.3203 49.8191 -26.3203 32.1821C-26.3203 14.545 12.101 -9.53882 59.4961 -9.53882C106.891 -9.53882 145.313 14.545 145.313 32.1821Z" fill="#1A0B02"/>
<path d="M145.313 24.519C145.313 42.156 106.891 56.4537 59.4961 56.4537C12.101 56.4537 -26.3203 42.156 -26.3203 24.519C-26.3203 6.88191 12.101 -17.2019 59.4961 -17.2019C106.891 -17.2019 145.313 6.88191 145.313 24.519Z" fill="url(#paint3_linear_6103_442724)"/>
<path fill-rule="evenodd" clip-rule="evenodd" d="M120.109 -3.51709C109.633 4.65204 86.4345 10.3314 59.499 10.3314C32.5635 10.3314 9.36489 4.65204 -1.11113 -3.51709C-4.93208 0.220301 -7.06055 4.04819 -7.06055 7.53543C-7.06055 20.5837 22.7392 31.1614 59.499 31.1614C96.2588 31.1614 126.059 20.5837 126.059 7.53543C126.059 4.04819 123.93 0.220301 120.109 -3.51709Z" fill="url(#paint4_linear_6103_442724)"/>
</g>
<defs>
<linearGradient id="paint0_linear_6103_442724" x1="59.4961" y1="0.000244141" x2="59.4961" y2="119" gradientUnits="userSpaceOnUse">
<stop stop-color="#DB854E"/>
<stop offset="1" stop-color="#FFC39B"/>
</linearGradient>
<linearGradient id="paint1_linear_6103_442724" x1="28.696" y1="48.4187" x2="27.0212" y2="84.8055" gradientUnits="userSpaceOnUse">
<stop stop-color="#543F32"/>
<stop offset="1" stop-color="#543F32" stop-opacity="0"/>
</linearGradient>
<linearGradient id="paint2_linear_6103_442724" x1="89.9038" y1="48.1838" x2="88.3666" y2="85.1678" gradientUnits="userSpaceOnUse">
<stop stop-color="#543F32"/>
<stop offset="1" stop-color="#543F32" stop-opacity="0"/>
</linearGradient>
<linearGradient id="paint3_linear_6103_442724" x1="59.4961" y1="-17.2019" x2="59.4961" y2="56.4537" gradientUnits="userSpaceOnUse">
<stop offset="0.0208333" stop-color="#322C35"/>
<stop offset="0.505208" stop-color="#464248"/>
</linearGradient>
<linearGradient id="paint4_linear_6103_442724" x1="59.499" y1="-3.51709" x2="59.499" y2="31.1616" gradientUnits="userSpaceOnUse">
<stop stop-color="#0B0B0B"/>
<stop offset="1" stop-color="#201E1E"/>
</linearGradient>
</defs>
</svg>
