<svg width="119" height="119" viewBox="0 0 119 119" fill="none" xmlns="http://www.w3.org/2000/svg">
<mask id="mask0_6103_442008" style="mask-type:alpha" maskUnits="userSpaceOnUse" x="-1" y="-1" width="120" height="120">
<rect x="-0.00012207" y="-0.000366211" width="118.648" height="118.648" fill="#F3B286"/>
</mask>
<g mask="url(#mask0_6103_442008)">
<rect x="-0.00012207" y="-0.000366211" width="118.648" height="118.648" fill="url(#paint0_linear_6103_442008)"/>
<path d="M59.1975 20.3533C56.4282 3.03711 28.2109 -5.68537 12.7175 -6.59631H112.071C72.2054 -6.59631 60.2113 11.3701 59.1975 20.3533Z" fill="url(#paint1_linear_6103_442008)"/>
<path d="M26.9309 96.6713C26.9309 67.5538 49.7421 44.4003 59.3655 44.4003C68.9889 44.4003 91.8001 67.5538 91.8001 96.6713C91.8001 119.965 70.177 123.801 59.3655 122.807C48.554 123.801 26.9309 119.965 26.9309 96.6713Z" fill="url(#paint2_linear_6103_442008)"/>
<path fill-rule="evenodd" clip-rule="evenodd" d="M59.1484 86.7033V76.1958H60.4068V86.7033H59.1484Z" fill="black"/>
<mask id="mask1_6103_442008" style="mask-type:alpha" maskUnits="userSpaceOnUse" x="42" y="81" width="35" height="20">
<path d="M59.3226 81.6589C53.5537 81.2626 42.6238 85.194 42.6238 100.107C45.1156 99.143 51.898 97.228 59.3226 97.1738C66.7472 97.228 73.5296 99.143 76.0214 100.107C76.0214 85.194 65.0915 81.2626 59.3226 81.6589Z" fill="black"/>
</mask>
<g mask="url(#mask1_6103_442008)">
<path d="M59.3226 81.6589C53.5537 81.2626 42.6238 85.194 42.6238 100.107C45.1156 99.143 51.898 97.228 59.3226 97.1738C66.7472 97.228 73.5296 99.143 76.0214 100.107C76.0214 85.194 65.0915 81.2626 59.3226 81.6589Z" fill="black"/>
<ellipse cx="59.3228" cy="100.929" rx="12.3143" ry="8.31686" fill="#702D13"/>
<path d="M59.1156 87.5184V81.0564C44.1685 81.0564 41.8202 91.6242 42.5144 98.0185C45.4591 89.1011 51.7546 86.9209 54.9682 86.9209L57.5376 88.4236C58.2367 88.8324 59.1156 88.3282 59.1156 87.5184Z" fill="white"/>
<path d="M60.4454 87.5184V81.0564C75.3925 81.0564 77.7408 91.6242 77.0466 98.0185C74.1019 89.1011 67.8064 86.9209 64.5928 86.9209L62.0234 88.4236C61.3244 88.8324 60.4454 88.3282 60.4454 87.5184Z" fill="white"/>
</g>
<path d="M46.4469 63.5218C47.2198 61.8887 48.9962 60.9852 50.7833 61.2513C53.511 61.6574 57.0834 62.0783 59.8468 62.0828C62.6102 62.0783 66.1826 61.6574 68.9103 61.2513C70.6974 60.9852 72.4738 61.8887 73.2466 63.5218C74.334 65.8196 72.9823 68.6112 70.9035 70.0742C68.5163 71.7543 66.5251 74.0829 65.109 76.1406C63.9004 77.8967 61.9787 79.1277 59.8468 79.1277C57.7149 79.1277 55.7932 77.8967 54.5846 76.1406C53.1685 74.0829 51.1773 71.7543 48.7901 70.0742C46.7113 68.6112 45.3596 65.8196 46.4469 63.5218Z" fill="#4A1C0A"/>
<path d="M55.7946 77.5107C55.3401 77.1088 54.9327 76.6465 54.5845 76.1405C53.1684 74.0829 51.1772 71.7543 48.7901 70.0742C48.1367 69.6144 47.5552 69.0234 47.0986 68.3577C50.3356 68.4299 55.5495 69.409 55.7035 73.0029C55.7828 74.8535 55.8029 76.361 55.7946 77.5107Z" fill="black"/>
<path d="M72.5933 68.3599C72.137 69.0247 71.556 69.6149 70.9034 70.0742C68.5162 71.7543 66.5251 74.0829 65.1089 76.1405C64.783 76.6141 64.4052 77.0495 63.9854 77.4329C63.9786 76.2933 63.9995 74.812 64.077 73.0029C64.2296 69.4416 69.3507 68.4479 72.5933 68.3599Z" fill="black"/>
<path fill-rule="evenodd" clip-rule="evenodd" d="M46.2134 39.4797C48.075 41.1652 52.2018 43.9348 54.6552 42.2249C57.1485 40.4873 58.6562 23.3504 59.1032 14.9247V14.8502C59.1039 14.8626 59.1045 14.8751 59.1052 14.8875C59.1059 14.8751 59.1065 14.8626 59.1072 14.8502V14.9247C59.5542 23.3504 61.0619 40.4873 63.5552 42.2249C66.0086 43.9348 70.1354 41.1652 71.997 39.4797C72.0663 39.4169 72.1527 39.3792 72.2458 39.3713L88.3912 38.001C88.636 37.9802 88.8462 38.1733 88.8462 38.419V53.4631C88.8462 53.7551 88.5557 53.9582 88.2797 53.8629C78.2244 50.3938 65.3955 52.3512 59.6405 53.9146C59.3844 53.9842 59.13 53.8058 59.1052 53.5482C59.0804 53.8058 58.826 53.9842 58.5699 53.9146C52.8149 52.3512 39.986 50.3938 29.9308 53.8629C29.6547 53.9582 29.3643 53.7551 29.3643 53.4631V38.419C29.3643 38.1733 29.5744 37.9802 29.8192 38.001L45.9646 39.3713C46.0577 39.3792 46.1441 39.4169 46.2134 39.4797Z" fill="url(#paint3_linear_6103_442008)"/>
<path d="M37.0943 40.3168C39.3562 45.8531 37.0728 51.8552 31.9941 53.723C26.9154 55.5907 20.9647 52.6168 18.7027 47.0806C16.4407 41.5443 18.7241 35.5422 23.8028 33.6744C28.8815 31.8067 34.8323 34.7806 37.0943 40.3168Z" fill="#4A1C0A"/>
<ellipse cx="27.647" cy="44.3399" rx="8.78992" ry="10.0995" transform="rotate(-21.1879 27.647 44.3399)" fill="white"/>
<circle cx="29.7162" cy="44.9459" r="3.62386" fill="#171416"/>
<circle cx="27.5444" cy="42.5292" r="1.81097" fill="white"/>
<path d="M16.9786 20.4907L12.6175 23.0188C10.9203 24.0027 10.0944 26.0584 11.056 27.7683C17.7578 39.6856 39.6091 47.3203 44.5052 46.5859C47.8682 46.0814 48.862 40.7682 48.9829 36.5611C49.034 34.7807 47.772 33.2903 46.0794 32.7357C36.7994 29.6944 26.9868 24.1466 21.4836 20.6227C20.1194 19.7492 18.38 19.6783 16.9786 20.4907Z" fill="#FCC084"/>
<path d="M81.5449 40.3168C79.2829 45.8531 81.5663 51.8552 86.645 53.723C91.7237 55.5907 97.6745 52.6168 99.9365 47.0806C102.198 41.5443 99.915 35.5422 94.8363 33.6744C89.7576 31.8067 83.8069 34.7806 81.5449 40.3168Z" fill="#4A1C0A"/>
<ellipse cx="8.78992" cy="10.0995" rx="8.78992" ry="10.0995" transform="matrix(-0.9324 -0.361427 -0.361427 0.9324 102.838 38.1)" fill="white"/>
<circle cx="3.62386" cy="3.62386" r="3.62386" transform="matrix(-1 0 0 1 92.5469 41.322)" fill="#171416"/>
<circle cx="1.81097" cy="1.81097" r="1.81097" transform="matrix(-1 0 0 1 92.9058 40.7183)" fill="white"/>
<path d="M101.661 20.4907L106.022 23.0188C107.719 24.0027 108.545 26.0584 107.583 27.7683C100.881 39.6856 79.03 47.3203 74.134 46.5859C70.771 46.0814 69.7772 40.7682 69.6563 36.5611C69.6051 34.7807 70.8672 33.2903 72.5597 32.7357C81.8398 29.6944 91.6524 24.1466 97.1556 20.6227C98.5197 19.7492 100.259 19.6783 101.661 20.4907Z" fill="#FCC084"/>
</g>
<defs>
<linearGradient id="paint0_linear_6103_442008" x1="59.3241" y1="-0.000366211" x2="59.3241" y2="118.648" gradientUnits="userSpaceOnUse">
<stop stop-color="#D0752F"/>
<stop offset="1" stop-color="#E18D4D"/>
</linearGradient>
<linearGradient id="paint1_linear_6103_442008" x1="62.3945" y1="-19.9706" x2="62.3945" y2="20.3533" gradientUnits="userSpaceOnUse">
<stop stop-color="#FFC395"/>
<stop offset="1" stop-color="#F19E5F" stop-opacity="0"/>
</linearGradient>
<linearGradient id="paint2_linear_6103_442008" x1="59.3655" y1="44.4003" x2="59.3655" y2="122.947" gradientUnits="userSpaceOnUse">
<stop stop-color="#C77134"/>
<stop offset="1" stop-color="#B5652D"/>
</linearGradient>
<linearGradient id="paint3_linear_6103_442008" x1="73.9747" y1="14.8502" x2="73.9747" y2="54.0729" gradientUnits="userSpaceOnUse">
<stop stop-color="#BF6D35"/>
<stop offset="1" stop-color="#753819" stop-opacity="0"/>
</linearGradient>
</defs>
</svg>
