<svg width="119" height="119" viewBox="0 0 119 119" fill="none" xmlns="http://www.w3.org/2000/svg">
<mask id="mask0_6103_442762" style="mask-type:alpha" maskUnits="userSpaceOnUse" x="0" y="-1" width="119" height="120">
<rect y="-0.000244141" width="119" height="119" fill="#D9D9D9"/>
</mask>
<g mask="url(#mask0_6103_442762)">
<path d="M0 -0.000244141H119V119H0V-0.000244141Z" fill="url(#paint0_linear_6103_442762)"/>
<path d="M59.7822 22.1274C59.7822 22.1281 59.7827 22.1286 59.7834 22.1286C76.841 22.271 91.9966 28.8197 102.928 35.794C112.761 42.0673 115.422 54.8193 111.75 66.1558L111.316 67.4955C107.929 77.9534 96.2511 83.129 85.905 80.49C75.6836 77.8827 65.3711 76.4706 59.4995 76.4261C53.6279 76.4706 43.3154 77.8827 33.0939 80.49C22.7478 83.129 11.0697 77.9534 7.68259 67.4955L7.24871 66.1558C3.57706 54.8193 6.23749 42.0673 16.0707 35.794C27.0024 28.8197 42.158 22.271 59.2156 22.1286C59.2162 22.1286 59.2167 22.1281 59.2167 22.1274C59.2167 22.1268 59.2172 22.1262 59.2179 22.1262C59.3118 22.1262 59.4057 22.1264 59.4995 22.1268C59.5933 22.1264 59.6871 22.1262 59.7811 22.1262C59.7817 22.1262 59.7822 22.1268 59.7822 22.1274Z" fill="url(#paint1_linear_6103_442762)"/>
<path d="M59.7649 26.5653C59.7649 26.5659 59.7654 26.5664 59.766 26.5664C75.8404 26.696 90.1225 32.6578 100.424 39.0069C109.691 44.7179 112.198 56.327 108.738 66.6473L108.329 67.8669C105.137 77.3875 94.1318 82.0991 84.3821 79.6967C74.7497 77.3231 65.0317 76.0376 59.4985 75.9971C53.9653 76.0376 44.2472 77.3231 34.6149 79.6967C24.8652 82.0991 13.8601 77.3875 10.6683 67.8669L10.2594 66.6473C6.79936 56.327 9.30646 44.7179 18.5728 39.0069C28.8745 32.6578 43.1565 26.696 59.231 26.5664C59.2315 26.5664 59.232 26.5659 59.232 26.5653C59.232 26.5647 59.2325 26.5642 59.2331 26.5642C59.3216 26.5642 59.4101 26.5644 59.4985 26.5647C59.5869 26.5644 59.6753 26.5642 59.7639 26.5642C59.7645 26.5642 59.7649 26.5647 59.7649 26.5653Z" fill="url(#paint2_linear_6103_442762)"/>
<rect x="27.2344" y="49.1067" width="13.4229" height="17.9924" rx="6.71146" fill="#56E9FB"/>
<rect x="79.2773" y="49.1067" width="13.4229" height="17.9924" rx="6.71146" fill="#56E9FB"/>
<path d="M36.9335 5.22656C25.9477 6.27922 16.1856 10.9415 11.4023 13.7989L13.8244 -8.41528H28.9912L36.9335 5.22656Z" fill="url(#paint3_linear_6103_442762)"/>
<path d="M82.0704 5.22656C93.0562 6.27922 102.818 10.9415 107.602 13.7989L105.18 -8.41528H90.0127L82.0704 5.22656Z" fill="url(#paint4_linear_6103_442762)"/>
<path d="M-13.1719 115.865C-8.21027 116.2 5.53366 116.039 20.8165 112.709C39.9202 108.548 47.084 101.129 61.4117 101.129" stroke="#C7CDEC" stroke-width="1.97341"/>
<path d="M134.203 115.865C129.242 116.2 115.498 116.039 100.215 112.709C81.1111 108.548 73.9473 101.129 59.6196 101.129" stroke="#C7CDEC" stroke-width="1.97341"/>
<path d="M74.1911 86.4108C74.1911 90.4078 67.6145 95.6974 59.5018 95.6974C51.3891 95.6974 44.8125 90.4078 44.8125 86.4108C44.8125 82.4138 51.3891 79.1736 59.5018 79.1736C67.6145 79.1736 74.1911 82.4138 74.1911 86.4108Z" fill="#0F0E12"/>
</g>
<defs>
<linearGradient id="paint0_linear_6103_442762" x1="59.5" y1="-0.000244141" x2="59.5" y2="119" gradientUnits="userSpaceOnUse">
<stop stop-color="#F4EFFF"/>
<stop offset="1" stop-color="white"/>
</linearGradient>
<linearGradient id="paint1_linear_6103_442762" x1="59.4995" y1="22.1262" x2="59.4995" y2="81.1711" gradientUnits="userSpaceOnUse">
<stop stop-color="#BCC4E8"/>
<stop offset="1" stop-color="#BCC4E8" stop-opacity="0.78"/>
</linearGradient>
<linearGradient id="paint2_linear_6103_442762" x1="59.4985" y1="26.5642" x2="59.4985" y2="80.3167" gradientUnits="userSpaceOnUse">
<stop stop-color="#1F353F"/>
<stop offset="1" stop-color="#090F11"/>
</linearGradient>
<linearGradient id="paint3_linear_6103_442762" x1="24.1679" y1="-8.41528" x2="24.1679" y2="13.7989" gradientUnits="userSpaceOnUse">
<stop stop-color="#164C72"/>
<stop offset="0.520833" stop-color="#164C72"/>
</linearGradient>
<linearGradient id="paint4_linear_6103_442762" x1="94.836" y1="-8.41528" x2="94.836" y2="13.7989" gradientUnits="userSpaceOnUse">
<stop stop-color="#164C72"/>
<stop offset="0.520833" stop-color="#164C72"/>
</linearGradient>
</defs>
</svg>
