<svg width="119" height="119" viewBox="0 0 119 119" fill="none" xmlns="http://www.w3.org/2000/svg">
<mask id="mask0_6103_442788" style="mask-type:alpha" maskUnits="userSpaceOnUse" x="0" y="-1" width="119" height="120">
<rect y="-0.000244141" width="119" height="119" fill="#D9D9D9"/>
</mask>
<g mask="url(#mask0_6103_442788)">
<rect y="-0.000244141" width="119" height="119" fill="url(#paint0_linear_6103_442788)"/>
<g style="mix-blend-mode:multiply" opacity="0.2">
<path fill-rule="evenodd" clip-rule="evenodd" d="M0 76.1474V3.44275H119V119.197H98.8669C98.2212 114.331 97.945 108.106 98.475 100.43C99.7793 81.5381 94.9969 64.5128 92.4427 58.3616C77.5153 56.0033 45.3381 48.9146 32.9468 21.5791C27.857 37.9151 14.7295 65.565 0 76.1474Z" fill="#DB9154"/>
</g>
<path fill-rule="evenodd" clip-rule="evenodd" d="M65.839 104.413C65.3046 104.463 63.3754 104.121 59.9336 102.347C55.6313 100.129 53.5306 100.748 52.5504 101.341C52.2209 101.541 51.94 101.799 51.6845 102.034C51.3364 102.354 51.0352 102.631 50.7221 102.658L51.1074 107.245C52.0083 107.169 53.0076 106.696 54.2013 106.076C55.4353 105.436 56.3988 105.582 57.6739 105.775C57.9405 105.815 58.2208 105.858 58.52 105.895C60.25 106.113 64.1894 105.837 65.839 104.413ZM36.1083 106.91C36.6437 106.871 38.4888 106.212 41.5863 103.888C45.4583 100.983 47.6328 101.243 48.6983 101.665C49.0564 101.806 49.3765 102.014 49.6677 102.203C50.0643 102.461 50.4074 102.684 50.7206 102.658L51.1059 107.245C50.205 107.32 49.1407 107.021 47.8605 106.609C46.5369 106.184 45.6112 106.488 44.3862 106.891C44.1301 106.975 43.8608 107.064 43.5721 107.151C41.9027 107.654 37.9725 108.04 36.1083 106.91Z" fill="#DB9154"/>
<path opacity="0.6" fill-rule="evenodd" clip-rule="evenodd" d="M51.7325 114.71C48.8423 115.054 42.5453 114.482 40.1484 109.457C41.2531 110.674 45.074 112.969 51.5345 112.439C58.0019 111.887 61.3906 108.983 62.2773 107.598C60.7525 112.952 54.64 114.567 51.7325 114.71Z" fill="#DC985F"/>
<path d="M57.6864 90.5928L39.8828 92.7395C41.3018 94.0149 45.0312 96.4584 48.5964 96.0285C52.7893 95.5229 56.1419 92.2256 57.6864 90.5928Z" fill="#DC985F"/>
<path d="M66.3917 62.8174C62.3003 65.5243 60.594 69.441 60.444 71.3975C62.5396 70.9501 67.8087 71.5124 75.1598 70.5236C82.511 69.5348 84.9499 63.7342 86.1821 61.1018C84.6217 61.8357 82.5563 61.6655 81.7186 61.4887C82.5003 61.2577 83.3489 60.2363 83.6754 59.7545C82.4501 60.3233 80.0361 60.4625 78.8377 60.3737C79.9389 60.0333 80.5374 59.066 80.6452 58.6931C74.9441 60.8086 71.1761 59.652 66.3917 62.8174Z" fill="black"/>
<mask id="mask1_6103_442788" style="mask-type:alpha" maskUnits="userSpaceOnUse" x="60" y="61" width="24" height="11">
<path d="M60.7197 71.1403C66.0696 58.0804 77.6782 60.4285 83.2298 63.5734C81.9384 66.4345 78.9226 69.8824 70.7892 70.5133C64.2824 71.018 61.9413 71.0344 60.7197 71.1403Z" fill="#F7F7F7"/>
</mask>
<g mask="url(#mask1_6103_442788)">
<path d="M60.7197 71.1403C66.0696 58.0804 77.6782 60.4285 83.2298 63.5734C81.9384 66.4345 78.9226 69.8824 70.7892 70.5133C64.2824 71.018 61.9413 71.0344 60.7197 71.1403Z" fill="#F7F7F7"/>
<circle cx="5.38643" cy="5.38643" r="5.38643" transform="matrix(-0.996264 0.0863654 0.0863654 0.996264 75.2695 60.3787)" fill="#789F35"/>
<circle cx="5.38643" cy="5.38643" r="5.38643" transform="matrix(-0.996264 0.0863654 0.0863654 0.996264 75.2695 60.3787)" fill="#815633"/>
<circle cx="2.0166" cy="2.0166" r="2.0166" transform="matrix(-0.996264 0.0863654 0.0863654 0.996264 72.2031 64.0276)" fill="#789F35"/>
<circle cx="2.0166" cy="2.0166" r="2.0166" transform="matrix(-0.996264 0.0863654 0.0863654 0.996264 72.2031 64.0276)" fill="black"/>
</g>
<path d="M31.1605 65.4049C35.1001 67.6224 37.0485 71.3163 37.3963 73.2423C35.4814 73.0392 30.8512 74.2043 24.1974 74.0685C17.5435 73.9326 14.7364 68.452 13.3508 65.9792C14.8207 66.5285 16.6411 66.1217 17.3676 65.8497C16.6462 65.7102 15.7788 64.7934 15.4353 64.3525C16.5886 64.7763 18.7534 64.6367 19.8107 64.4105C18.7929 64.1992 18.154 63.3073 18.0171 62.9493C23.3252 64.3942 26.5536 62.8116 31.1605 65.4049Z" fill="black"/>
<mask id="mask2_6103_442788" style="mask-type:alpha" maskUnits="userSpaceOnUse" x="16" y="64" width="22" height="10">
<path d="M37.1232 73.0191C30.9289 60.6633 20.8496 64.3319 16.2509 68.0947C17.7142 70.7879 20.7772 73.8653 28.0884 73.5555C33.9374 73.3077 36.0239 73.0546 37.1232 73.0191Z" fill="#F7F7F7"/>
</mask>
<g mask="url(#mask2_6103_442788)">
<path d="M37.1232 73.0191C30.9289 60.6633 20.8496 64.3319 16.2509 68.0947C17.7142 70.7879 20.7772 73.8653 28.0884 73.5555C33.9374 73.3077 36.0239 73.0546 37.1232 73.0191Z" fill="#F7F7F7"/>
<circle cx="27.2217" cy="68.9499" r="5.38643" transform="rotate(4.95455 27.2217 68.9499)" fill="#789F35"/>
<circle cx="27.2217" cy="68.9499" r="5.38643" transform="rotate(4.95455 27.2217 68.9499)" fill="#815633"/>
<circle cx="27.2219" cy="68.9506" r="2.0166" transform="rotate(4.95455 27.2219 68.9506)" fill="#789F35"/>
<circle cx="27.2219" cy="68.9506" r="2.0166" transform="rotate(4.95455 27.2219 68.9506)" fill="black"/>
</g>
<path d="M57.6131 60.0638L55.9366 57.5942C55.455 56.8846 55.6281 55.9161 56.3439 55.4436C71.0869 45.7123 85.5886 49.4821 89.5801 53.3547C74.7145 51.5628 64.4223 57.0999 60.0377 60.4164C59.2712 60.9962 58.1529 60.859 57.6131 60.0638Z" fill="#8C4D19"/>
<path d="M38.4334 60.5993L39.4059 58.1913C39.6919 57.4831 39.429 56.6666 38.7687 56.2829C25.0462 48.3092 13.3758 53.7375 10.5568 58.0433C22.3938 54.6502 31.5762 58.5691 35.8949 61.3407C36.7899 61.9151 38.0351 61.5855 38.4334 60.5993Z" fill="#8C4D19"/>
<path d="M22.6878 124.991C9.59782 101.803 7.30884 61.0527 7.80059 43.5759H-4.89453V124.991H22.6878Z" fill="url(#paint1_linear_6103_442788)"/>
<path d="M-8.26953 76.685C9.94149 72.5054 27.5592 35.1218 33.6969 14.5844C46.3138 43.6009 79.0767 51.1255 94.2758 53.6288C96.8765 60.1583 101.746 78.2305 100.418 98.2838C99.0899 118.337 102.733 129.06 104.721 131.915H123.462V-4.66724H-8.26953V76.685Z" fill="url(#paint2_linear_6103_442788)"/>
<path fill-rule="evenodd" clip-rule="evenodd" d="M61.3882 32.8585C29.5495 36.3919 -4.77006 35.7772 -20.9727 32.1087L-18.9577 24.4738C-4.20626 27.8138 28.9358 28.5442 60.3787 25.0546C76.0349 23.3171 90.9923 20.561 102.816 16.6783C114.924 12.7024 122.633 7.89914 125.394 2.76538L132.989 6.27004C128.634 14.3681 118.009 20.0286 105.652 24.0862C93.011 28.2371 77.3727 31.0845 61.3882 32.8585Z" fill="url(#paint3_linear_6103_442788)"/>
</g>
<defs>
<linearGradient id="paint0_linear_6103_442788" x1="59.5" y1="-0.000244141" x2="59.5" y2="119" gradientUnits="userSpaceOnUse">
<stop stop-color="#F0BA8E"/>
<stop offset="1" stop-color="#EDB485"/>
</linearGradient>
<linearGradient id="paint1_linear_6103_442788" x1="8.89661" y1="43.5759" x2="8.89661" y2="124.991" gradientUnits="userSpaceOnUse">
<stop stop-color="#9B7836"/>
<stop offset="1" stop-color="#D7B443"/>
</linearGradient>
<linearGradient id="paint2_linear_6103_442788" x1="57.596" y1="-4.66724" x2="69.2988" y2="115.657" gradientUnits="userSpaceOnUse">
<stop stop-color="#EED47B"/>
<stop offset="1" stop-color="#DCB63F"/>
</linearGradient>
<linearGradient id="paint3_linear_6103_442788" x1="56.0083" y1="2.76538" x2="56.0083" y2="35.2085" gradientUnits="userSpaceOnUse">
<stop stop-color="#9A7718"/>
<stop offset="1" stop-color="#B58C1E"/>
</linearGradient>
</defs>
</svg>
