<svg width="119" height="119" viewBox="0 0 119 119" fill="none" xmlns="http://www.w3.org/2000/svg">
<mask id="mask0_6103_442829" style="mask-type:alpha" maskUnits="userSpaceOnUse" x="0" y="-1" width="120" height="120">
<rect x="0.00390625" y="-0.000244141" width="119" height="119" fill="#D9D9D9"/>
</mask>
<g mask="url(#mask0_6103_442829)">
<rect x="0.00390625" y="-0.000244141" width="119" height="119" fill="#F8DDBA"/>
<path d="M68.9858 94.0003C59.7806 95.0028 51.8423 93.9092 50.8398 94.0003C52.2069 95.5801 56.5361 98.6849 60.3275 98.4662C64.119 98.2474 67.6795 95.3978 68.9858 94.0003Z" fill="#DCA388"/>
<mask id="mask1_6103_442829" style="mask-type:alpha" maskUnits="userSpaceOnUse" x="42" y="104" width="35" height="13">
<path d="M50.8249 105.559C47.7924 106.583 43.7728 107.662 42.0996 107.662C44.8408 110.236 51.2916 116.28 59.5211 116.28C67.8269 116.28 74.1818 110.044 76.9132 107.662C74.8867 107.359 71.9094 107.109 67.8269 105.559C63.9518 104.087 61.6393 105.559 59.5211 105.559C57.4028 105.559 54.6156 104.28 50.8249 105.559Z" fill="#CE494C"/>
</mask>
<g mask="url(#mask1_6103_442829)">
<path d="M50.8249 105.559C47.7924 106.583 43.7728 107.662 42.0996 107.662C44.8408 110.236 51.2916 116.28 59.5211 116.28C67.8269 116.28 74.1818 110.044 76.9132 107.662C74.8867 107.359 71.9094 107.109 67.8269 105.559C63.9518 104.087 61.6393 105.559 59.5211 105.559C57.4028 105.559 54.6156 104.28 50.8249 105.559Z" fill="#CE494C"/>
<path d="M59.6372 109.773C52.1553 109.773 44.8228 108.329 42.0918 107.606C42.0918 110.39 47.7302 115.505 50.5495 117.714H60.7841L75.0774 114.626L77.5478 107.606C74.695 108.329 67.119 109.773 59.6372 109.773Z" fill="#BD2C2F"/>
</g>
<path d="M39.8435 58.8645C48.4008 60.9364 48.6996 69.7079 47.7793 73.8346C43.7109 76.5195 30.2241 76.5564 23.9812 68.9009C15.0447 57.9423 29.1468 56.2747 39.8435 58.8645Z" fill="#9896BF"/>
<path d="M52.1953 62.1636C49.6914 67.4288 45.5827 63.9093 36.8583 61.1608C29.8767 58.9613 22.3732 60.5384 19.1611 62.0656C26.8058 53.1601 35.8598 56.1739 40.6973 57.9485C45.4169 59.6799 49.2013 61.8004 52.0155 61.875C52.1604 61.8789 52.2575 62.0327 52.1953 62.1636Z" fill="black"/>
<path d="M42.0248 67.3928C46.3347 69.7362 48.3729 73.4909 48.6913 75.4272C46.5649 75.1624 41.364 76.1777 33.955 75.8275C26.5459 75.4773 23.6151 69.909 22.1602 67.3928C23.7782 67.9892 25.8212 67.6413 26.6404 67.3928C25.8417 67.2302 24.9081 66.2859 24.5411 65.8341C25.811 66.2949 28.2281 66.2251 29.4143 66.0331C28.2878 65.7891 27.608 64.8772 27.4684 64.5149C33.3309 66.1302 36.9849 64.6524 42.0248 67.3928Z" fill="black"/>
<mask id="mask2_6103_442829" style="mask-type:alpha" maskUnits="userSpaceOnUse" x="25" y="66" width="24" height="10">
<path d="M48.3978 75.1949C41.94 62.6459 30.5775 65.9877 25.3184 69.6004C26.852 72.3393 30.1543 75.5138 38.3118 75.4399C44.8378 75.3807 47.1717 75.1949 48.3978 75.1949Z" fill="#F7F7F7"/>
</mask>
<g mask="url(#mask2_6103_442829)">
<path d="M48.3978 75.1949C41.94 62.6459 30.5775 65.9877 25.3184 69.6004C26.852 72.3393 30.1543 75.5138 38.3118 75.4399C44.8378 75.3807 47.1717 75.1949 48.3978 75.1949Z" fill="#F7F7F7"/>
<circle cx="36.9157" cy="70.5239" r="5.38643" fill="#789F35"/>
<circle cx="36.9157" cy="70.5239" r="5.38643" fill="#56A5D7"/>
<circle cx="36.917" cy="70.5242" r="2.0166" fill="#789F35"/>
<circle cx="36.917" cy="70.5242" r="2.0166" fill="black"/>
</g>
<path d="M79.1604 58.8645C70.6031 60.9364 70.3043 69.7079 71.2246 73.8346C75.293 76.5195 88.7798 76.5564 95.0227 68.9009C103.959 57.9423 89.8571 56.2747 79.1604 58.8645Z" fill="#9896BF"/>
<path d="M66.8086 62.1636C69.3125 67.4288 73.4212 63.9093 82.1456 61.1608C89.1272 58.9613 96.6307 60.5384 99.8428 62.0656C92.1981 53.1601 83.1441 56.1739 78.3066 57.9485C73.587 59.6799 69.8026 61.8004 66.9884 61.875C66.8435 61.8789 66.7464 62.0327 66.8086 62.1636Z" fill="black"/>
<path d="M76.983 67.3928C72.6731 69.7362 70.6349 73.4909 70.3165 75.4272C72.4429 75.1624 77.6438 76.1777 85.0528 75.8275C92.4619 75.4773 95.3927 69.909 96.8477 67.3928C95.2296 67.9892 93.1866 67.6413 92.3674 67.3928C93.1661 67.2302 94.0997 66.2859 94.4667 65.8341C93.1968 66.2949 90.7797 66.2251 89.5935 66.0331C90.72 65.7891 91.3998 64.8772 91.5394 64.5149C85.6769 66.1302 82.0229 64.6524 76.983 67.3928Z" fill="black"/>
<mask id="mask3_6103_442829" style="mask-type:alpha" maskUnits="userSpaceOnUse" x="70" y="66" width="24" height="10">
<path d="M70.6139 75.1949C77.0718 62.6459 88.4342 65.9877 93.6934 69.6004C92.1597 72.3393 88.8574 75.5138 80.6999 75.4399C74.1739 75.3807 71.84 75.1949 70.6139 75.1949Z" fill="#F7F7F7"/>
</mask>
<g mask="url(#mask3_6103_442829)">
<path d="M70.6139 75.1949C77.0718 62.6459 88.4342 65.9877 93.6934 69.6004C92.1597 72.3393 88.8574 75.5138 80.6999 75.4399C74.1739 75.3807 71.84 75.1949 70.6139 75.1949Z" fill="#F7F7F7"/>
<circle cx="5.38643" cy="5.38643" r="5.38643" transform="matrix(-1 0 0 1 87.4824 65.1375)" fill="#789F35"/>
<circle cx="5.38643" cy="5.38643" r="5.38643" transform="matrix(-1 0 0 1 87.4824 65.1375)" fill="#56A5D7"/>
<circle cx="2.0166" cy="2.0166" r="2.0166" transform="matrix(-1 0 0 1 84.1113 68.5076)" fill="#789F35"/>
<circle cx="2.0166" cy="2.0166" r="2.0166" transform="matrix(-1 0 0 1 84.1113 68.5076)" fill="black"/>
</g>
<path opacity="0.2" d="M101.669 49.3277C115.708 58.055 123.943 76.4759 124.122 84.6384V1.13794H-3.17578V84.6384C-0.0749185 67.154 15.315 54.3907 44.3 44.7895C67.5868 37.0758 74.0972 29.0173 76.5321 23.873C78.7795 33.7253 85.1618 39.0657 101.669 49.3277Z" fill="#A8794C"/>
<path d="M101.669 43.2786C115.708 52.6336 123.943 72.3795 124.122 81.1291V-8.3772H-3.17578V81.1291C-0.0749185 62.387 15.315 48.7058 44.3 38.414C67.5868 30.1455 74.0972 21.5074 76.5321 15.9931C78.7795 26.554 85.1618 32.2786 101.669 43.2786Z" fill="#86592E"/>
<path d="M22.9346 37.1773C55.489 17.572 56.7832 8.57456 59.7786 -0.000244141C55.5304 4.55212 48.6573 15.8887 20.5374 31.5939C-7.8667 47.4578 -6.68953 60.805 -7.05469 66.442C-6.12909 62.1498 1.16459 50.2879 22.9346 37.1773Z" fill="url(#paint0_linear_6103_442829)"/>
<path d="M109.96 38.1377C90.7095 22.5593 90.6824 16.6357 89.5193 10.8321C91.8523 14.152 95.2702 22.0865 112.009 34.7493C128.917 47.54 126.958 56.0491 126.688 59.7202C126.476 56.8667 122.834 48.5554 109.96 38.1377Z" fill="url(#paint1_linear_6103_442829)"/>
<path d="M58.3258 17.2046C24.4689 17.2046 1.79585 31.0735 -5.30859 38.0079C-2.69618 30.2994 8.11039 24.3469 13.1871 22.3343C12.7026 20.0965 12.6832 15.0627 16.4821 12.83C20.281 10.5972 24.9133 11.0951 26.7546 11.6231C26.3669 9.58643 27.0841 4.98512 33.0537 2.87304C39.0234 0.760967 44.1984 3.14942 46.0397 4.60766C46.6535 2.34482 49.97 -3.40602 58.3258 -3.40602C66.6817 -3.40602 70.6083 2.34482 71.5271 4.60766C72.9808 3.22476 77.4968 0.866281 83.9316 2.4956C90.3665 4.12491 91.3555 8.90808 91.0457 11.096C103.139 9.98262 105.296 18.0546 104.862 22.2297C117.866 27.999 123.255 35.6985 124.324 38.827C116.432 31.6196 92.1827 17.2046 58.3258 17.2046Z" fill="#F4B944"/>
<path d="M-6.94531 38.5222C1.01323 31.6511 25.6108 17.9089 60.3326 17.9089C95.0544 17.9089 118.825 33.4147 126.371 41.1676" stroke="#CB901C" stroke-width="2.96011"/>
<ellipse cx="59.1488" cy="6.72847" rx="5.84993" ry="6.571" fill="#FFD789"/>
<ellipse cx="59.1489" cy="6.72822" rx="4.37738" ry="4.91694" fill="#EB4821"/>
<path d="M62.2295 7.02898C62.5512 3.85557 60.3882 2.753 58.98 2.83612C58.8187 2.84565 58.7679 3.04079 58.8844 3.15283C59.9209 4.14927 61.1651 5.9667 61.8793 7.10498C61.9765 7.25978 62.211 7.21079 62.2295 7.02898Z" fill="#F47050"/>
<ellipse cx="80.9964" cy="10.9415" rx="3.77568" ry="4.24108" fill="#FFD789"/>
<ellipse cx="80.9952" cy="10.9413" rx="2.82526" ry="3.17351" fill="#8EBA33"/>
<path d="M82.9988 10.9485C83.0999 9.14116 81.9004 8.44869 81.0251 8.42704C80.8635 8.42304 80.8099 8.61569 80.9233 8.73095C81.5239 9.34171 82.211 10.3284 82.6575 11.026C82.756 11.1799 82.9885 11.131 82.9988 10.9485Z" fill="#AED65B"/>
<ellipse cx="96.9692" cy="17.4656" rx="2.91675" ry="3.27627" fill="#FFD789"/>
<ellipse cx="96.9694" cy="17.4651" rx="2.18254" ry="2.45156" fill="#8EBA33"/>
<path d="M98.5206 17.3513C98.5398 16.102 97.7253 15.5857 97.08 15.5283C96.919 15.514 96.8634 15.7044 96.9745 15.8218C97.3945 16.2659 97.8591 16.9245 98.1872 17.4294C98.2868 17.5827 98.5178 17.534 98.5206 17.3513Z" fill="#AED65B"/>
<ellipse cx="37.8792" cy="10.9415" rx="3.77568" ry="4.24108" fill="#FFD789"/>
<ellipse cx="37.878" cy="10.9413" rx="2.82526" ry="3.17351" fill="#8EBA33"/>
<path d="M39.8816 10.9485C39.9827 9.14116 38.7832 8.44869 37.9079 8.42704C37.7463 8.42304 37.6927 8.61569 37.8061 8.73095C38.4068 9.34171 39.0938 10.3284 39.5403 11.026C39.6389 11.1799 39.8714 11.131 39.8816 10.9485Z" fill="#AED65B"/>
<ellipse cx="20.5203" cy="17.4655" rx="2.91675" ry="3.27627" fill="#FFD789"/>
<ellipse cx="20.5204" cy="17.465" rx="2.18254" ry="2.45156" fill="#8EBA33"/>
<path d="M22.0716 17.3512C22.0908 16.1019 21.2763 15.5856 20.631 15.5282C20.47 15.5138 20.4144 15.7042 20.5255 15.8217C20.9455 16.2658 21.4101 16.9243 21.7383 17.4293C21.8378 17.5826 22.0688 17.5339 22.0716 17.3512Z" fill="#AED65B"/>
</g>
<defs>
<linearGradient id="paint0_linear_6103_442829" x1="26.362" y1="-0.000244141" x2="26.362" y2="66.442" gradientUnits="userSpaceOnUse">
<stop stop-color="#6A4624"/>
<stop offset="1" stop-color="#6A4624" stop-opacity="0"/>
</linearGradient>
<linearGradient id="paint1_linear_6103_442829" x1="111.088" y1="13.8339" x2="105.119" y2="56.7184" gradientUnits="userSpaceOnUse">
<stop stop-color="#6A4624"/>
<stop offset="1" stop-color="#6A4624" stop-opacity="0"/>
</linearGradient>
</defs>
</svg>
