<svg width="119" height="119" viewBox="0 0 119 119" fill="none" xmlns="http://www.w3.org/2000/svg">
<mask id="mask0_6103_442894" style="mask-type:alpha" maskUnits="userSpaceOnUse" x="0" y="-1" width="119" height="120">
<rect y="-0.000244141" width="119" height="119" fill="#D9D9D9"/>
</mask>
<g mask="url(#mask0_6103_442894)">
<rect y="-0.000244141" width="119" height="119" fill="url(#paint0_linear_6103_442894)"/>
<path d="M65.0322 87.8879C55.9597 87.4586 49.4987 85.8946 47.4023 85.1663C48.1507 86.6935 51.1383 89.9135 55.3955 90.2118C59.6527 90.5102 63.4516 88.7565 65.0322 87.8879Z" fill="#D99478"/>
<mask id="mask1_6103_442894" style="mask-type:alpha" maskUnits="userSpaceOnUse" x="35" y="94" width="34" height="17">
<path d="M42.4716 97.455C40.0608 97.2352 37.0954 95.362 35.9141 94.4529C39.105 105.174 44.7748 110.914 53.6385 110.089C60.4359 109.456 66.6501 103.064 68.6897 99.7679C65.7434 100.484 61.9625 99.8853 59.2627 99.2355C56.5629 98.5857 53.7647 99.6661 52.7494 99.5364C51.7341 99.4067 51.3301 98.6513 49.4431 97.7943C47.5561 96.9372 45.4852 97.7298 42.4716 97.455Z" fill="black"/>
</mask>
<g mask="url(#mask1_6103_442894)">
<path d="M42.4716 97.455C40.0608 97.2352 37.0954 95.362 35.9141 94.4529C39.105 105.174 44.7748 110.914 53.6385 110.089C60.4359 109.456 66.6501 103.064 68.6897 99.7679C65.7434 100.484 61.9625 99.8853 59.2627 99.2355C56.5629 98.5857 53.7647 99.6661 52.7494 99.5364C51.7341 99.4067 51.3301 98.6513 49.4431 97.7943C47.5561 96.9372 45.4852 97.7298 42.4716 97.455Z" fill="#F98F8C"/>
<path d="M51.3865 103.84C43.2572 102.376 37.5089 96.7261 35.651 94.0841L34.209 98.0058L39.0333 108.739L46.5142 111.099L59.1344 110.516L69.4411 105.238L69.1667 99.2988C66.6272 101.423 59.5158 105.304 51.3865 103.84Z" fill="#E47A76"/>
</g>
<mask id="mask2_6103_442894" style="mask-type:alpha" maskUnits="userSpaceOnUse" x="6" y="22" width="111" height="67">
<path d="M7.6413 48.715C9.02004 37.0661 12.4071 30.1983 14.4851 27.049C15.2713 25.8575 16.3257 24.8585 17.5848 24.1858C28.8236 18.1817 44.1493 29.8928 53.1719 35.7281C62.6901 41.8838 73.2076 40.637 89.846 37.9036C106.484 35.1702 117.129 41.62 115.99 59.4851C114.851 77.3502 105.315 92.067 92.1649 88.0905C79.0147 84.114 65.4681 74.393 58.2014 73.0261C50.9347 71.6592 33.6329 77.0427 20.9011 76.4522C8.16931 75.8617 5.4747 67.0205 7.6413 48.715Z" fill="#D43128"/>
</mask>
<g mask="url(#mask2_6103_442894)">
<path d="M7.6413 48.715C9.02004 37.0661 12.4071 30.1983 14.4851 27.049C15.2713 25.8575 16.3257 24.8585 17.5848 24.1858C28.8236 18.1817 44.1493 29.8928 53.1719 35.7281C62.6901 41.8838 73.2076 40.637 89.846 37.9036C106.484 35.1702 117.129 41.62 115.99 59.4851C114.851 77.3502 105.315 92.067 92.1649 88.0905C79.0147 84.114 65.4681 74.393 58.2014 73.0261C50.9347 71.6592 33.6329 77.0427 20.9011 76.4522C8.16931 75.8617 5.4747 67.0205 7.6413 48.715Z" fill="url(#paint1_linear_6103_442894)"/>
<circle cx="63.4832" cy="56.4991" r="9.00308" transform="rotate(-2.64543 63.4832 56.4991)" fill="#3F0E0E"/>
<circle cx="44.6551" cy="29.7369" r="9.00308" transform="rotate(-2.64543 44.6551 29.7369)" fill="#3F0E0E"/>
<circle cx="91.2332" cy="36.1046" r="9.00308" transform="rotate(-2.64543 91.2332 36.1046)" fill="#3F0E0E"/>
<circle cx="23.6412" cy="76.5317" r="12.0061" transform="rotate(-2.64543 23.6412 76.5317)" fill="#3F0E0E"/>
<circle cx="92.0552" cy="92.0224" r="12.0061" transform="rotate(-2.64543 92.0552 92.0224)" fill="#3F0E0E"/>
</g>
<path d="M35.5977 43.816C47.025 47.0755 49.7909 56.79 49.7455 61.2398C40.8856 63.6222 23.6009 62.448 19.9692 53.6286C17.99 48.8224 21.3135 39.7415 35.5977 43.816Z" stroke="black" stroke-width="1.18404"/>
<path d="M12.567 44.902C13.5514 48.3971 17.5433 50.6092 19.4162 51.2784C21.7635 48.604 26.197 43.2628 25.1531 43.293C24.1092 43.3232 22.6011 42.6675 21.9775 42.3358C22.1831 42.8849 22.8554 43.4592 23.1659 43.6777C21.933 43.5184 20.7659 42.7673 20.3365 42.4116C20.6763 43.1348 21.6282 43.8763 22.0616 44.1567C20.4862 43.9952 19.3451 43.0583 18.9715 42.6101C19.4839 43.5597 20.665 44.4841 21.1915 44.8276C19.4108 44.5134 18.4275 43.5136 18.1584 43.0529C18.5771 44.3132 19.6257 45.2304 20.0977 45.5315C18.4199 45.1042 17.0292 43.4806 16.5436 42.7222C17.392 44.7015 18.8663 45.8589 19.4973 46.1902C17.0631 45.3836 15.2878 43.6588 14.7045 42.8973C15.7031 44.6173 18.2162 46.5798 19.348 47.346C17.2532 46.8661 15.1896 44.8156 14.4196 43.8504C15.73 46.3082 18.051 48.2434 19.0477 48.9039C16.07 47.5953 13.7043 44.5587 12.8937 43.204C14.1708 46.5609 17.4386 49.1548 18.9128 50.0321C15.3517 49.0496 13.1985 46.2027 12.567 44.902Z" fill="black"/>
<path d="M35.5977 43.816C47.025 47.0755 49.7909 56.79 49.7455 61.2398C40.8856 63.6222 23.6009 62.448 19.9692 53.6286C17.99 48.8224 21.3135 39.7415 35.5977 43.816Z" fill="white"/>
<mask id="mask3_6103_442894" style="mask-type:alpha" maskUnits="userSpaceOnUse" x="19" y="42" width="31" height="21">
<path d="M35.5977 43.816C47.025 47.0755 49.7909 56.79 49.7455 61.2398C40.8856 63.6222 23.6009 62.448 19.9692 53.6286C17.99 48.8224 21.3135 39.7415 35.5977 43.816Z" fill="white"/>
</mask>
<g mask="url(#mask3_6103_442894)">
<circle cx="36.4072" cy="53.2036" r="8.88924" transform="rotate(-2.64543 36.4072 53.2036)" fill="#2C83AC"/>
<circle cx="36.4091" cy="53.2037" r="3.52366" transform="rotate(-2.64543 36.4091 53.2037)" fill="black"/>
</g>
<path d="M94.2033 54.377C82.3483 53.5596 76.4461 61.7562 74.9769 65.9567C82.5001 71.2079 99.1553 75.9768 105.568 68.9162C109.062 65.0685 109.022 55.3986 94.2033 54.377Z" stroke="black" stroke-width="1.18404"/>
<path d="M115.493 63.2235C113.38 66.1762 108.874 66.9003 106.885 66.8932C105.586 63.5804 103.231 57.0505 104.203 57.4336C105.175 57.8167 106.816 57.7124 107.515 57.6124C107.135 58.059 106.307 58.3706 105.941 58.4706C107.155 58.7397 108.508 58.4299 109.033 58.2413C108.467 58.806 107.32 59.1799 106.817 59.2963C108.354 59.6797 109.745 59.1864 110.249 58.8917C109.444 59.6108 108.019 60.0789 107.407 60.223C109.189 60.5326 110.453 59.9264 110.863 59.5845C110.041 60.6275 108.743 61.1339 108.197 61.2567C109.92 61.4249 111.78 60.3705 112.494 59.8222C111.024 61.3955 109.244 61.983 108.538 62.0802C111.101 62.1487 113.357 61.1298 114.164 60.6118C112.641 61.8902 109.61 62.8819 108.286 63.218C110.419 63.4784 113.056 62.2511 114.108 61.605C112.041 63.4713 109.2 64.5027 108.039 64.7852C111.284 64.5662 114.541 62.5142 115.763 61.5155C113.421 64.2388 109.467 65.5679 107.782 65.8921C111.465 66.1781 114.458 64.2322 115.493 63.2235Z" fill="black"/>
<path d="M94.2033 54.377C82.3483 53.5596 76.4461 61.7562 74.9769 65.9567C82.5001 71.2079 99.1553 75.9768 105.568 68.9162C109.062 65.0685 109.022 55.3986 94.2033 54.377Z" fill="white"/>
<mask id="mask4_6103_442894" style="mask-type:alpha" maskUnits="userSpaceOnUse" x="74" y="54" width="34" height="19">
<path d="M94.2033 54.377C82.3483 53.5596 76.4461 61.7562 74.9769 65.9567C82.5001 71.2079 99.1553 75.9768 105.568 68.9162C109.062 65.0685 109.022 55.3986 94.2033 54.377Z" fill="white"/>
</mask>
<g mask="url(#mask4_6103_442894)">
<circle cx="8.88924" cy="8.88924" r="8.88924" transform="matrix(-0.923815 -0.38284 -0.38284 0.923815 101.867 58.1222)" fill="#2C83AC"/>
<circle cx="3.52366" cy="3.52366" r="3.52366" transform="matrix(-0.923815 -0.38284 -0.38284 0.923815 94.8555 61.0251)" fill="black"/>
</g>
<path d="M17.6726 3.17869C8.32253 13.9262 0.165374 47.4478 -1.55032 58.6695L-1.5503 -1.41046L122.128 -7.12491L124.981 54.6273C118.411 51.1648 108.875 42.7845 104.929 39.0272C106.592 42.0753 109.319 46.6035 110.474 48.4866C95.5824 47.0112 77.9873 38.3356 71.0512 34.1822C74.5068 37.8687 79.2188 41.324 81.1429 42.5908C50.1631 39.2026 29.8402 16.8 23.5512 6.02227C25.154 21.3038 38.3498 31.1646 44.7474 34.1848C25.5923 29.5777 18.7162 11.5944 17.6726 3.17869Z" fill="url(#paint2_linear_6103_442894)"/>
<path opacity="0.3" d="M44.2807 -17.6273C51.3496 8.92017 86.4714 33.255 103.149 42.1039C77.5824 21.9708 63.6958 -6.5883 59.9483 -18.3512L44.2807 -17.6273Z" fill="#1D255C"/>
</g>
<defs>
<linearGradient id="paint0_linear_6103_442894" x1="59.5" y1="-0.000244141" x2="59.5" y2="119" gradientUnits="userSpaceOnUse">
<stop stop-color="#F5C6B8"/>
<stop offset="1" stop-color="#F8BBA2"/>
</linearGradient>
<linearGradient id="paint1_linear_6103_442894" x1="59.8065" y1="20.8713" x2="63.0146" y2="90.3028" gradientUnits="userSpaceOnUse">
<stop stop-color="#E24C44"/>
<stop offset="1" stop-color="#C8283C"/>
</linearGradient>
<linearGradient id="paint2_linear_6103_442894" x1="60.2885" y1="-4.26804" x2="63.1417" y2="57.4841" gradientUnits="userSpaceOnUse">
<stop stop-color="#39458F"/>
<stop offset="1" stop-color="#232D75"/>
</linearGradient>
</defs>
</svg>
