<svg width="119" height="119" viewBox="0 0 119 119" fill="none" xmlns="http://www.w3.org/2000/svg">
<mask id="mask0_6103_442938" style="mask-type:alpha" maskUnits="userSpaceOnUse" x="0" y="-1" width="119" height="120">
<rect y="-0.000244141" width="119" height="119" fill="#D9D9D9"/>
</mask>
<g mask="url(#mask0_6103_442938)">
<rect x="-6.03125" y="-10.0906" width="129.415" height="129.415" fill="url(#paint0_linear_6103_442938)"/>
<path d="M36.8547 44.946C33.7701 57.3848 26.9189 84.1201 24.1912 91.5512C29.0876 83.3209 36.8547 65.6842 36.8547 44.946Z" fill="#D89A67"/>
<path d="M49.7664 59.9713C47.0445 65.7328 42.577 61.8987 33.0754 58.9053C25.4828 56.5133 17.3225 58.2284 13.8293 59.8893C22.1431 50.2044 31.9895 53.4819 37.2504 55.4119C42.3982 57.3004 46.523 59.6145 49.5863 59.6827C49.7312 59.6859 49.8283 59.8402 49.7664 59.9713Z" fill="black"/>
<path d="M66.675 59.9713C69.3969 65.7328 73.8644 61.8987 83.366 58.9053C90.9586 56.5133 99.1189 58.2284 102.612 59.8893C94.2983 50.2044 84.4519 53.4819 79.191 55.4119C74.0432 57.3004 69.9184 59.6145 66.8551 59.6827C66.7102 59.6859 66.6131 59.8402 66.675 59.9713Z" fill="black"/>
<mask id="mask1_6103_442938" style="mask-type:alpha" maskUnits="userSpaceOnUse" x="41" y="103" width="37" height="13">
<path d="M50.4991 104.388C47.3877 105.438 43.2345 106.877 41.5469 107.466C44.3594 110.106 51.8718 115.388 59.4214 115.388C66.971 115.388 74.4634 110.499 77.2659 108.054C75.4357 107.647 72.132 105.978 67.9433 104.388C63.9674 102.878 61.5948 104.388 59.4214 104.388C57.2481 104.388 54.3884 103.075 50.4991 104.388Z" fill="#C48F89"/>
</mask>
<g mask="url(#mask1_6103_442938)">
<path d="M50.4991 104.388C47.3877 105.438 43.2345 106.877 41.5469 107.466C44.3594 110.106 51.8718 115.388 59.4214 115.388C66.971 115.388 74.4634 110.499 77.2659 108.054C75.4357 107.647 72.132 105.978 67.9433 104.388C63.9674 102.878 61.5948 104.388 59.4214 104.388C57.2481 104.388 54.3884 103.075 50.4991 104.388Z" fill="#DE6B69"/>
<path d="M59.5717 109.303C53.4655 109.303 44.7349 108.045 41.1328 107.416C43.5056 110.475 50.5152 116.592 59.5717 116.592C68.6283 116.592 75.3668 110.837 77.568 108.035C74.1375 108.407 65.678 109.303 59.5717 109.303Z" fill="#C94644"/>
</g>
<path d="M68.4929 93.6763C59.0483 94.7048 50.9036 93.5828 49.875 93.6763C51.2776 95.2971 55.7194 98.4827 59.6095 98.2582C63.4995 98.0338 67.1526 95.1101 68.4929 93.6763Z" fill="#CC8C56"/>
<path d="M39.6529 67.7044C44.5728 70.3795 46.8995 74.6657 47.2629 76.876C44.8356 76.5738 38.8986 77.7327 30.4408 77.3329C21.9831 76.9331 18.6375 70.5768 16.9766 67.7044C18.8236 68.3852 21.1558 67.9881 22.091 67.7044C21.1791 67.5188 20.1134 66.4409 19.6946 65.9251C21.1441 66.4512 23.9033 66.3715 25.2574 66.1523C23.9715 65.8738 23.1955 64.8327 23.0361 64.4192C29.7284 66.2631 33.8996 64.5762 39.6529 67.7044Z" fill="black"/>
<mask id="mask2_6103_442938" style="mask-type:alpha" maskUnits="userSpaceOnUse" x="20" y="66" width="27" height="11">
<path d="M46.9242 76.6106C39.5523 62.2854 26.5817 66.1003 20.5781 70.2242C22.3289 73.3508 26.0985 76.9747 35.4107 76.8903C42.8604 76.8227 45.5246 76.6106 46.9242 76.6106Z" fill="#F7F7F7"/>
</mask>
<g mask="url(#mask2_6103_442938)">
<path d="M46.9242 76.6106C39.5523 62.2854 26.5817 66.1003 20.5781 70.2242C22.3289 73.3508 26.0985 76.9747 35.4107 76.8903C42.8604 76.8227 45.5246 76.6106 46.9242 76.6106Z" fill="#F7F7F7"/>
<circle cx="33.8207" cy="70.8278" r="6.14882" fill="#789F35"/>
<circle cx="33.8207" cy="70.8278" r="6.14882" fill="#CE494C"/>
<circle cx="33.8176" cy="70.8281" r="2.30202" fill="#789F35"/>
<circle cx="33.8176" cy="70.8281" r="2.30202" fill="black"/>
</g>
<path d="M78.1401 67.7044C73.2202 70.3795 70.8935 74.6657 70.5301 76.876C72.9574 76.5738 78.8944 77.7327 87.3521 77.3329C95.8099 76.9331 99.1555 70.5768 100.816 67.7044C98.9694 68.3852 96.6372 67.9881 95.702 67.7044C96.6138 67.5188 97.6795 66.4409 98.0984 65.9251C96.6488 66.4512 93.8896 66.3715 92.5355 66.1523C93.8215 65.8738 94.5975 64.8327 94.7569 64.4192C88.0646 66.2631 83.8934 64.5762 78.1401 67.7044Z" fill="black"/>
<mask id="mask3_6103_442938" style="mask-type:alpha" maskUnits="userSpaceOnUse" x="70" y="66" width="28" height="11">
<path d="M70.8687 76.6106C78.2406 62.2854 91.2113 66.1003 97.2148 70.2242C95.4641 73.3508 91.6945 76.9747 82.3823 76.8903C74.9326 76.8227 72.2684 76.6106 70.8687 76.6106Z" fill="#F7F7F7"/>
</mask>
<g mask="url(#mask3_6103_442938)">
<path d="M70.8687 76.6106C78.2406 62.2854 91.2113 66.1003 97.2148 70.2242C95.4641 73.3508 91.6945 76.9747 82.3823 76.8903C74.9326 76.8227 72.2684 76.6106 70.8687 76.6106Z" fill="#F7F7F7"/>
<circle cx="6.14882" cy="6.14882" r="6.14882" transform="matrix(-1 0 0 1 90.1211 64.679)" fill="#789F35"/>
<circle cx="6.14882" cy="6.14882" r="6.14882" transform="matrix(-1 0 0 1 90.1211 64.679)" fill="#CE494C"/>
<circle cx="2.30202" cy="2.30202" r="2.30202" transform="matrix(-1 0 0 1 86.2773 68.5261)" fill="#789F35"/>
<circle cx="2.30202" cy="2.30202" r="2.30202" transform="matrix(-1 0 0 1 86.2773 68.5261)" fill="black"/>
</g>
<path d="M21.014 57.9285C6.8591 50.7893 1.09324 32.5108 -0.0203322 24.264L131.74 -10.0907L148.849 55.5275C136.498 60.0472 125.901 59.5583 122.146 58.7488C124.138 61.0263 129.22 64.3111 131.512 65.6688C120.423 68.0668 109.515 63.0808 105.448 60.2881C96.418 61.7176 81.1087 53.8409 76.3735 36.2711C72.5853 22.2153 65.6948 12.8526 62.723 9.92816C48.4905 22.024 51.5057 45.5295 54.7923 55.7702C38.8212 41.8083 39.5069 23.9451 41.8462 16.7587C25.5201 30.7568 28.8589 47.6544 32.5691 54.3534C27.2534 52.9545 22.7863 48.975 21.2172 47.1601C20.7979 50.5958 20.9071 55.7706 21.014 57.9285Z" fill="#86592E"/>
<path d="M12.1386 88.9283L24.9017 141.73H-7.71484V-13.5579H58.369V51.3515L35.6603 25.319L20.3637 38.0742C17.2439 44.9579 12.1386 88.9283 12.1386 88.9283Z" fill="#4D4E4D"/>
<path d="M104.404 88.9283L91.6412 141.73H124.258V-13.5579H58.174V51.3515L80.8826 25.319L96.1792 38.0742C99.2991 44.9579 104.404 88.9283 104.404 88.9283Z" fill="#4D4E4D"/>
<path d="M8.86771 88.9283L22.534 141.73H-12.3906V-13.5579H58.3694V51.3515L34.0538 25.319L17.6749 38.0742C14.3342 44.9579 8.86771 88.9283 8.86771 88.9283Z" fill="url(#paint1_linear_6103_442938)"/>
<path d="M106.083 95.7426L94.1809 141.73H129.105V-13.5579H58.3454V51.3515L82.661 25.319L99.04 38.0742C101.545 43.2367 105.246 69.2581 106.941 81.9483C107.556 86.558 107.249 91.2404 106.083 95.7426Z" fill="url(#paint2_linear_6103_442938)"/>
<path d="M-9.37891 26.2724V-17.2936L125.56 -28.8597V26.2724L89.0323 7.21099L59.2472 -14.5948L-9.37891 26.2724Z" fill="#616161"/>
<path d="M-11.918 26.1166C3.32756 20.1068 38.5663 3.33953 57.5569 -15.6511C68.462 -5.89244 98.2514 16.1233 130.169 26.1166" stroke="#4D4E4D" stroke-width="4.93351"/>
</g>
<defs>
<linearGradient id="paint0_linear_6103_442938" x1="58.6764" y1="-10.0906" x2="58.6764" y2="119.325" gradientUnits="userSpaceOnUse">
<stop stop-color="#F0BA8E"/>
<stop offset="1" stop-color="#EDB485"/>
</linearGradient>
<linearGradient id="paint1_linear_6103_442938" x1="22.9894" y1="14.5132" x2="22.9894" y2="141.73" gradientUnits="userSpaceOnUse">
<stop stop-color="#676968"/>
<stop offset="1" stop-color="#A3A3A3"/>
</linearGradient>
<linearGradient id="paint2_linear_6103_442938" x1="93.7254" y1="-26.0355" x2="93.7254" y2="141.73" gradientUnits="userSpaceOnUse">
<stop stop-color="#808080"/>
<stop offset="1" stop-color="#A3A3A3"/>
</linearGradient>
</defs>
</svg>
