<svg width="119" height="119" viewBox="0 0 119 119" fill="none" xmlns="http://www.w3.org/2000/svg">
<mask id="mask0_6103_442047" style="mask-type:alpha" maskUnits="userSpaceOnUse" x="0" y="-1" width="119" height="120">
<rect y="-0.000488281" width="119" height="119" fill="#F3B286"/>
</mask>
<g mask="url(#mask0_6103_442047)">
<rect y="-0.000488281" width="119" height="119" fill="url(#paint0_linear_6103_442047)"/>
<path d="M62.8825 6.48326C61.2514 10.2277 60.652 16.9517 71.3036 13.8925C78.6041 11.7959 85.2853 6.97779 89.8404 2.85172C91.9314 0.957718 93.5744 -0.790469 94.6237 -2.0627L36.1148 -4.73047C32.9402 -1.32875 28.0682 6.10741 33.9768 8.63829C39.8854 11.1692 48.9428 8.25613 52.7328 6.48326C51.3399 8.1881 49.3898 11.5774 52.7328 11.4957C56.0759 11.4141 60.8922 8.12007 62.8825 6.48326Z" fill="url(#paint1_linear_6103_442047)"/>
<path d="M37.2082 17.719C48.3069 15.5275 54.8647 23.3704 56.7562 27.5658C62.5219 17.6374 87.7272 15.8865 93.2312 31.8561C97.6343 44.6317 89.302 62.8504 84.5855 70.3628L16.7202 61.7703C18.4003 30.6226 23.3348 20.4583 37.2082 17.719Z" fill="url(#paint2_linear_6103_442047)"/>
<path d="M20.9029 53.0978C12.2074 49.1365 9.55552 36.4967 11.9191 27.999L12.4747 26.4148C12.9421 25.0824 14.0426 24.051 15.4375 23.8313C26.154 22.1437 41.2737 26.2387 49.5277 29.2312C50.9127 29.7334 51.919 30.9583 52.0025 32.4291C52.4932 41.077 47.9609 49.0827 45.5174 50.9512C39.8557 55.2808 29.5984 57.0591 20.9029 53.0978Z" fill="url(#paint3_linear_6103_442047)"/>
<path opacity="0.8" fill-rule="evenodd" clip-rule="evenodd" d="M48.1534 47.6511C47.2496 49.1655 46.3375 50.2907 45.601 50.8847L36.4299 25.4102C38.3202 25.837 40.1571 26.3076 41.8966 26.7951L48.1534 47.6511ZM31.1663 55.3023L20.4021 23.4402C24.2816 23.3944 28.4601 23.8674 32.5335 24.6124L41.6784 53.1903C38.6229 54.5415 34.9643 55.3256 31.1663 55.3023Z" fill="url(#paint4_linear_6103_442047)"/>
<path d="M82.7267 62.5266C92.2261 61.4947 98.7112 50.3259 99.1343 41.5158L99.1039 39.8373C99.0784 38.4255 98.3572 37.1008 97.1018 36.4545C87.4565 31.4885 71.8155 30.631 63.0394 30.8817C61.5667 30.9238 60.2268 31.7709 59.6859 33.1412C56.5058 41.198 58.2962 50.2217 60.0298 52.7628C64.0465 58.6506 73.2273 63.5585 82.7267 62.5266Z" fill="url(#paint5_linear_6103_442047)"/>
<path opacity="0.8" fill-rule="evenodd" clip-rule="evenodd" d="M92.8352 56.8351C92.0071 57.7753 91.1083 58.6344 90.1453 59.386L80.2039 31.7719C82.0055 32.0142 83.8129 32.312 85.587 32.6744L92.8352 56.8351ZM75.1257 62.1458L64.553 30.8506C67.9364 30.8081 72.1016 30.9273 76.4667 31.344L86.1733 61.6771C85.0771 62.1048 83.9269 62.3962 82.7287 62.5263C80.1379 62.8078 77.5708 62.6474 75.1257 62.1458Z" fill="url(#paint6_linear_6103_442047)"/>
<path d="M13.5545 25.5289C12.7398 27.3876 11.6586 31.5915 11.0032 34.3781C10.8203 35.1555 10.0289 35.6298 9.25951 35.4154C8.70375 35.2605 8.29816 34.7793 8.26216 34.2035C7.95325 29.2628 8.76666 23.782 9.64089 21.6026C27.281 19.6189 45.0976 24.9304 52.3085 28.1427C52.859 28.3879 53.1416 28.9876 53.0097 29.5756C52.8418 30.3242 52.0646 30.7634 51.3319 30.5359C37.8427 26.3474 21.7365 25.4547 13.5545 25.5289Z" fill="#6C6C7D"/>
<ellipse cx="51.7411" cy="82.4558" rx="53.773" ry="33.1898" transform="rotate(9.09655 51.7411 82.4558)" fill="url(#paint7_linear_6103_442047)"/>
<path d="M33.8811 101.636C36.9799 103.156 46.0653 106 57.6165 105.218C52.8092 107.535 41.3321 110.062 33.8811 101.636Z" fill="#EAAB85"/>
<mask id="mask1_6103_442047" style="mask-type:alpha" maskUnits="userSpaceOnUse" x="14" y="67" width="78" height="36">
<path d="M91.5651 76.4865C55.406 82.3439 26.4935 72.9217 15.3799 67.6787C9.82272 98.1536 43.513 104.382 65.933 102.262C87.8957 100.186 92.2071 84.861 91.5651 76.4865Z" fill="#191523"/>
</mask>
<g mask="url(#mask1_6103_442047)">
<path d="M91.5651 76.4865C55.406 82.3439 26.4935 72.9217 15.3799 67.6787C9.82272 98.1536 43.513 104.382 65.933 102.262C87.8957 100.186 92.2071 84.861 91.5651 76.4865Z" fill="#191523"/>
<path d="M17.7114 74.5187V66.6779C55.8518 80.1145 80.6547 78.5625 88.2887 76.1068L85.9444 84.4857C73.5976 87.0472 54.7851 85.8959 46.9221 85.0001L45.8951 81.7246L43.8916 84.4857C30.0706 81.8279 20.6794 76.7336 17.7114 74.5187Z" fill="white"/>
<path d="M92.3279 93.2188C58.1329 81.5203 33.8113 93.0705 25.9248 100.308L50.4299 106.967L82.646 108.176L92.3279 93.2188Z" fill="#E05F72"/>
<path fill-rule="evenodd" clip-rule="evenodd" d="M78.7393 89.6287C71.7458 89.2005 57.3649 89.8122 51.7434 95.5616C52.9218 93.4137 56.9552 89.3318 64.3071 88.2223C68.8127 88.2545 73.6329 88.6835 78.7393 89.6287Z" fill="#BF4153"/>
</g>
<path d="M61.0552 35.5402C59.1192 33.9999 54.0227 31.5273 49.125 33.9594" stroke="black" stroke-width="2.76276"/>
<ellipse cx="54.447" cy="52.3055" rx="16.2779" ry="7.64093" transform="rotate(6.79228 54.447 52.3055)" fill="#FACAAD"/>
<path d="M59.6888 53.2891C57.7279 55.0304 56.5343 54.605 55.7946 54.8227C57.0156 56.1551 58.8579 55.9096 60.1178 55.3488C62.0227 59.6471 65.247 57.0114 64.8268 54.1431C64.4066 51.2748 61.6815 51.5195 59.6888 53.2891Z" fill="black"/>
<path d="M46.7659 52.1263C47.7961 54.5379 49.057 54.6626 49.6331 55.1752C47.9602 55.8591 46.3989 54.8508 45.4989 53.8059C41.9417 56.8801 40.1507 53.1203 41.7549 50.7058C43.359 48.2912 45.719 49.6755 46.7659 52.1263Z" fill="black"/>
<path d="M97.9064 38.0417C98.2187 40.0617 98.1923 44.4125 98.1158 47.2828C98.0943 48.0886 98.7337 48.7725 99.5286 48.7844C100.105 48.7931 100.621 48.4409 100.803 47.8907C102.354 43.2214 102.962 37.717 102.674 35.371C86.1854 28.4507 67.6732 28.5078 59.9116 29.5545C59.3203 29.6342 58.8953 30.1346 58.8729 30.741C58.8445 31.5079 59.4737 32.1483 60.2301 32.1372C74.2916 31.9303 90.0411 35.6459 97.9064 38.0417Z" fill="#6C6C7D"/>
<path d="M52.5665 59.068C51.3236 61.0101 48.6278 66.8522 47.7888 74.6831C46.5458 70.8375 45.7612 62.3307 52.5665 59.068Z" fill="#EAAB85"/>
</g>
<defs>
<linearGradient id="paint0_linear_6103_442047" x1="59.5" y1="-0.000488281" x2="59.5" y2="126.48" gradientUnits="userSpaceOnUse">
<stop stop-color="#823912"/>
<stop offset="1" stop-color="#A75A31"/>
</linearGradient>
<linearGradient id="paint1_linear_6103_442047" x1="62.911" y1="-4.73047" x2="53.3504" y2="32.0708" gradientUnits="userSpaceOnUse">
<stop stop-color="#6F3110"/>
<stop offset="1" stop-color="#5B2A10"/>
</linearGradient>
<linearGradient id="paint2_linear_6103_442047" x1="60.5785" y1="17.4862" x2="52.569" y2="67.5102" gradientUnits="userSpaceOnUse">
<stop stop-color="#FACAAD"/>
<stop offset="1" stop-color="#F0AF87"/>
</linearGradient>
<linearGradient id="paint3_linear_6103_442047" x1="31.568" y1="23.4371" x2="31.568" y2="55.3028" gradientUnits="userSpaceOnUse">
<stop/>
<stop offset="1" stop-color="#504E4E"/>
</linearGradient>
<linearGradient id="paint4_linear_6103_442047" x1="34.2777" y1="23.4371" x2="34.2777" y2="55.3028" gradientUnits="userSpaceOnUse">
<stop stop-color="#625656"/>
<stop offset="1" stop-color="#615353" stop-opacity="0"/>
</linearGradient>
<linearGradient id="paint5_linear_6103_442047" x1="81.9101" y1="31.0173" x2="71.9085" y2="61.2727" gradientUnits="userSpaceOnUse">
<stop/>
<stop offset="1" stop-color="#504E4E"/>
</linearGradient>
<linearGradient id="paint6_linear_6103_442047" x1="78.6941" y1="30.8425" x2="78.6941" y2="62.6642" gradientUnits="userSpaceOnUse">
<stop stop-color="#625656"/>
<stop offset="1" stop-color="#615353" stop-opacity="0"/>
</linearGradient>
<linearGradient id="paint7_linear_6103_442047" x1="51.7411" y1="49.266" x2="51.7411" y2="115.646" gradientUnits="userSpaceOnUse">
<stop stop-color="#FACAAD"/>
<stop offset="1" stop-color="#F0AF87"/>
</linearGradient>
</defs>
</svg>
