<svg width="119" height="119" viewBox="0 0 119 119" fill="none" xmlns="http://www.w3.org/2000/svg">
<mask id="mask0_6103_442086" style="mask-type:alpha" maskUnits="userSpaceOnUse" x="0" y="-1" width="119" height="120">
<rect y="-0.000488281" width="119" height="119" fill="#F3B286"/>
</mask>
<g mask="url(#mask0_6103_442086)">
<rect y="-0.000488281" width="119" height="119" fill="url(#paint0_linear_6103_442086)"/>
<ellipse cx="25.0093" cy="74.7645" rx="11.8887" ry="4.93839" transform="rotate(-1.78604 25.0093 74.7645)" fill="url(#paint1_linear_6103_442086)"/>
<ellipse cx="103.412" cy="72.3197" rx="11.8887" ry="4.93839" transform="rotate(-1.78604 103.412 72.3197)" fill="url(#paint2_linear_6103_442086)"/>
<path d="M92.3055 82.4758C92.5927 91.6872 80.3021 97.6902 64.925 98.1697C49.5478 98.6492 36.9071 93.4237 36.6199 84.2122C36.3326 75.0007 48.5076 65.2915 63.8848 64.812C79.2619 64.3325 92.0182 73.2643 92.3055 82.4758Z" fill="url(#paint3_linear_6103_442086)"/>
<path d="M48.4934 86.1503C53.2058 87.3705 60.6546 89.2992 64.3586 79.9802C68.636 89.0503 75.9501 86.6613 80.5773 85.1499C82.1676 84.6304 83.4405 84.2146 84.1637 84.4033C82.4979 85.5237 78.1019 87.7976 73.8449 87.9303C69.5879 88.063 65.8081 86.1309 64.5003 84.5251C63.295 86.2093 59.643 88.3731 55.386 88.5059C51.129 88.6386 46.5999 86.6431 44.8675 85.6287C45.5775 85.3953 46.8739 85.731 48.4934 86.1503Z" fill="#40345C"/>
<path d="M64.2284 75.8311C62.9947 75.8803 59.4689 75.366 55.235 72.9151C49.9426 69.8516 50.5621 64.1528 63.8513 63.7384C77.1406 63.324 78.1139 68.9731 73.0227 72.3605C68.9498 75.0704 65.4628 75.8034 64.2284 75.8311Z" fill="#0F0E12"/>
<path d="M50.2837 59.0414C44.1021 73.5657 29.8332 76.3631 20.3566 70.6184C10.88 64.8738 5.3292 52.0194 15.9657 38.2383C24.7682 26.8335 38.8509 24.2466 45.4766 28.2637C52.6792 32.6306 55.1059 47.7112 50.2837 59.0414Z" fill="#40345C"/>
<path d="M32.9317 45.5394C27.3936 45.7121 22.8402 49.3105 21.2557 51.0881C23.4501 50.0443 27.3994 47.9705 33.0021 47.7958C37.8398 47.6449 41.1131 49.4935 42.587 50.4229C41.6761 48.7231 38.4698 45.3668 32.9317 45.5394Z" fill="#FBF9FF"/>
<path d="M76.7357 58.2166C83.8101 72.3276 98.2256 74.2304 107.326 67.9065C116.426 61.5826 121.165 48.4074 109.691 35.3157C100.195 24.4815 85.9783 22.7771 79.6159 27.1991C72.6993 32.0063 71.2169 47.2088 76.7357 58.2166Z" fill="#40345C"/>
<path d="M93.2124 43.6599C98.7504 43.4872 103.519 46.7949 105.211 48.4703C102.956 47.5653 98.8853 45.7415 93.2827 45.9162C88.445 46.0671 85.2932 48.116 83.88 49.1354C84.6833 47.3822 87.6743 43.8326 93.2124 43.6599Z" fill="#FBF9FF"/>
</g>
<defs>
<linearGradient id="paint0_linear_6103_442086" x1="59.5" y1="-0.000488281" x2="59.5" y2="118.999" gradientUnits="userSpaceOnUse">
<stop stop-color="#F4EFFF"/>
<stop offset="1" stop-color="white"/>
</linearGradient>
<linearGradient id="paint1_linear_6103_442086" x1="25.0093" y1="69.8262" x2="25.0093" y2="79.7029" gradientUnits="userSpaceOnUse">
<stop stop-color="#F0BDAC"/>
<stop offset="1" stop-color="#F0BDAC" stop-opacity="0"/>
</linearGradient>
<linearGradient id="paint2_linear_6103_442086" x1="103.412" y1="67.3813" x2="103.412" y2="77.2581" gradientUnits="userSpaceOnUse">
<stop stop-color="#F0BDAC"/>
<stop offset="1" stop-color="#F0BDAC" stop-opacity="0"/>
</linearGradient>
<linearGradient id="paint3_linear_6103_442086" x1="64.1779" y1="74.2134" x2="65.0213" y2="101.26" gradientUnits="userSpaceOnUse">
<stop stop-color="#E2DEED"/>
<stop offset="1" stop-color="white"/>
</linearGradient>
</defs>
</svg>
