<svg width="119" height="119" viewBox="0 0 119 119" fill="none" xmlns="http://www.w3.org/2000/svg">
<mask id="mask0_6103_442111" style="mask-type:alpha" maskUnits="userSpaceOnUse" x="0" y="-1" width="119" height="120">
<rect y="-0.000488281" width="119" height="119" fill="#F3B286"/>
</mask>
<g mask="url(#mask0_6103_442111)">
<rect y="-0.000488281" width="119" height="119" fill="url(#paint0_linear_6103_442111)"/>
<path d="M30.8914 7.2688C40.0544 12.2669 45.4689 26.1849 47.0308 32.5191L43.4323 34.9092C41.8053 22.9286 34.3937 11.4903 30.8914 7.2688Z" fill="url(#paint1_linear_6103_442111)"/>
<path d="M92.6975 10.5966C83.5345 15.5947 78.12 29.5126 76.5581 35.8469L80.1566 38.237C81.7836 26.2563 89.1951 14.8181 92.6975 10.5966Z" fill="url(#paint2_linear_6103_442111)"/>
<path d="M122.603 86.4897C118.661 76.8251 105.437 69.8875 99.3168 67.6267L96.5392 70.9353C108.263 73.8924 118.8 82.5371 122.603 86.4897Z" fill="url(#paint3_linear_6103_442111)"/>
<path d="M-1.18872 84.6462C4.03703 75.6111 18.0861 70.5464 24.4574 69.1435L26.7568 72.8006C14.7391 74.1274 3.1191 81.2505 -1.18872 84.6462Z" fill="url(#paint4_linear_6103_442111)"/>
<path d="M62.9485 115.946C56.6241 107.643 57.3629 92.7268 58.5229 86.3068L62.7836 85.5939C59.3781 97.195 61.4745 110.662 62.9485 115.946Z" fill="url(#paint5_linear_6103_442111)"/>
<path d="M130.095 30.0262C116.755 31.4762 96.2616 43.4388 87.6824 49.2388C102.472 42.5687 122.12 37.5179 130.095 35.8263V30.0262Z" fill="url(#paint6_linear_6103_442111)"/>
<path d="M112.035 119C106.379 106.831 88.4699 91.2636 80.2225 85.0008C91.2879 96.8663 102.379 113.852 106.542 120.862L112.035 119Z" fill="url(#paint7_linear_6103_442111)"/>
<path d="M6.18254 123.917C12.665 109.311 31.8432 89.9989 40.6219 82.1686C28.6405 96.7364 16.3321 117.312 11.6755 125.779L6.18254 123.917Z" fill="url(#paint8_linear_6103_442111)"/>
<path d="M55.0286 -5.2738C59.5423 3.99118 59.6809 23.1349 59.1859 31.5486C62.5118 24.1841 63.5413 3.93179 63.6403 -5.2738H55.0286Z" fill="url(#paint9_linear_6103_442111)"/>
<path d="M-1.9866 29.7668C7.9911 30.9545 24.7081 41.581 31.8193 46.7458C22.7542 31.5836 3.7232 20.9922 -4.65918 17.5918L-1.9866 29.7668Z" fill="url(#paint10_linear_6103_442111)"/>
<path d="M107.877 66.9134C107.877 82.2262 86.2177 94.6398 59.4998 94.6398C32.7819 94.6398 11.1228 82.2262 11.1228 66.9134C11.1228 51.6005 32.7819 24.3597 59.4998 24.3597C89.079 24.3597 107.877 51.6005 107.877 66.9134Z" fill="url(#paint11_linear_6103_442111)"/>
<path fill-rule="evenodd" clip-rule="evenodd" d="M59.3023 86.8557C85.313 86.8557 106.399 75.0153 106.399 60.4095C106.399 59.7049 106.356 58.9737 106.272 58.2202C107.328 61.3357 107.877 64.2985 107.877 66.9134C107.877 82.2263 86.2174 94.6398 59.4995 94.6398C32.7817 94.6398 11.1226 82.2263 11.1226 66.9134C11.1226 64.9023 11.4962 62.6854 12.2057 60.3516C12.2057 60.3709 12.2056 60.3902 12.2056 60.4095C12.2056 75.0153 33.2915 86.8557 59.3023 86.8557Z" fill="url(#paint12_linear_6103_442111)"/>
<mask id="mask1_6103_442111" style="mask-type:alpha" maskUnits="userSpaceOnUse" x="46" y="64" width="27" height="15">
<path d="M69.828 64.7983H49.1404C47.6984 64.7983 46.5927 66.0784 46.9948 67.4631C48.4076 72.328 52.0873 78.8106 59.4104 78.8106C66.7201 78.8106 70.4842 72.3515 71.9662 67.4896C72.3902 66.0987 71.2821 64.7983 69.828 64.7983Z" fill="black"/>
</mask>
<g mask="url(#mask1_6103_442111)">
<path d="M69.828 64.7983H49.1404C47.6984 64.7983 46.5927 66.0784 46.9948 67.4631C48.4076 72.328 52.0873 78.8106 59.4104 78.8106C66.7201 78.8106 70.4842 72.3515 71.9662 67.4896C72.3902 66.0987 71.2821 64.7983 69.828 64.7983Z" fill="black"/>
<path d="M76.1863 75.5229C58.5885 69.5026 46.0719 75.4466 42.0133 79.1712L54.6243 82.5984L71.2037 83.2205L76.1863 75.5229Z" fill="#E05F72"/>
<path fill-rule="evenodd" clip-rule="evenodd" d="M69.191 73.6758C65.5913 73.4556 58.1923 73.7708 55.2998 76.7291C55.9062 75.6239 57.9815 73.5235 61.7643 72.9523C64.0829 72.9688 66.5633 73.1895 69.191 73.6758Z" fill="#BF4153"/>
<path d="M50.7193 64.2998L51.3336 62.2776L67.9435 63.0072L68.3224 65.1911C68.4815 66.108 67.8782 66.9838 66.9648 67.162C66.057 67.3391 65.1728 66.7624 64.9691 65.8602L64.4618 63.6142L64.4422 66.0248C64.4347 66.9508 63.7097 67.7122 62.7851 67.765C61.8502 67.8185 61.0376 67.1295 60.9375 66.1984L60.6173 63.2228L60.2856 66.4808C60.155 67.7643 59.0085 68.6988 57.725 68.5681C56.3816 68.4314 55.4336 67.1873 55.6582 65.8558L56.096 63.259L54.8903 65.8831C54.3841 66.9847 53.0923 67.4823 51.978 67.0048C50.9303 66.5558 50.388 65.3905 50.7193 64.2998Z" fill="#F7F9F8"/>
</g>
<path d="M42.1336 34.9777C41.9041 37.769 43.5356 40.9841 44.3801 42.2428L39.4569 43.1033C35.2889 42.3003 34.5018 39.2636 34.6293 37.8456C35.9294 39.681 38.3894 40.7453 39.4569 41.048C37.7744 39.1744 37.9273 36.2204 38.2141 34.9777C38.3671 37.1572 40.5084 39.7096 41.56 40.7134C40.604 37.5397 41.5441 35.5672 42.1336 34.9777Z" fill="#F29839"/>
<path d="M52.0636 49.8034C52.0636 42.1044 47.3294 40.8271 44.4981 41.1346C36.6679 41.5303 29.7002 48.1879 29.3021 54.4503C28.9039 60.7128 34.5584 61.9466 40.9952 62.3421C47.4319 62.7377 52.0636 58.5175 52.0636 49.8034Z" fill="#F29839"/>
<path d="M50.4049 50.6407C50.4049 43.4549 46.0155 42.2627 43.3903 42.5497C36.1301 42.919 29.6698 49.1329 29.3006 54.978C28.9315 60.823 34.1743 61.9747 40.1424 62.3438C46.1105 62.713 50.4049 58.7741 50.4049 50.6407Z" fill="#F7F9F8"/>
<ellipse cx="7.1372" cy="8.13391" rx="7.1372" ry="8.13391" transform="matrix(0.889257 0.457408 -0.457409 0.889256 38.9573 42.1702)" fill="#E46887"/>
<ellipse cx="41.5837" cy="53.204" rx="4.2221" ry="4.2221" fill="#2A1F19"/>
<ellipse cx="38.9116" cy="50.7068" rx="2.17823" ry="2.17822" fill="#F7F9F8"/>
<path d="M75.4541 34.9777C75.6835 37.769 74.052 40.9841 73.2076 42.2428L78.1308 43.1033C82.2987 42.3003 83.0858 39.2636 82.9584 37.8456C81.6583 39.681 79.1983 40.7453 78.1308 41.048C79.8133 39.1744 79.6603 36.2204 79.3735 34.9777C79.2206 37.1572 77.0792 39.7096 76.0277 40.7134C76.9836 37.5397 76.0436 35.5672 75.4541 34.9777Z" fill="#F29839"/>
<path d="M65.5241 49.8034C65.5241 42.1044 70.2582 40.8271 73.0895 41.1346C80.9198 41.5303 87.8874 48.1879 88.2856 54.4503C88.6837 60.7128 83.0292 61.9466 76.5925 62.3421C70.1557 62.7377 65.5241 58.5175 65.5241 49.8034Z" fill="#F29839"/>
<path d="M67.1827 50.6407C67.1827 43.4549 71.5722 42.2627 74.1974 42.5497C81.4575 42.919 87.9179 49.1329 88.287 54.978C88.6562 60.823 83.4134 61.9747 77.4453 62.3438C71.4771 62.713 67.1827 58.7741 67.1827 50.6407Z" fill="#F7F9F8"/>
<ellipse cx="7.1372" cy="8.13391" rx="7.1372" ry="8.13391" transform="matrix(-0.889257 0.457408 0.457409 0.889256 78.8276 42.1702)" fill="#E46887"/>
<ellipse cx="4.2221" cy="4.2221" rx="4.2221" ry="4.2221" transform="matrix(-1 0 0 1 80.4233 48.9819)" fill="#2A1F19"/>
<ellipse cx="2.17823" cy="2.17822" rx="2.17823" ry="2.17822" transform="matrix(-1 0 0 1 75.1313 48.5286)" fill="#F7F9F8"/>
</g>
<defs>
<linearGradient id="paint0_linear_6103_442111" x1="59.5" y1="-0.000488281" x2="59.5" y2="118.999" gradientUnits="userSpaceOnUse">
<stop stop-color="#F36068"/>
<stop offset="1" stop-color="#FF8086"/>
</linearGradient>
<linearGradient id="paint1_linear_6103_442111" x1="38.9611" y1="7.2688" x2="38.9611" y2="34.9092" gradientUnits="userSpaceOnUse">
<stop stop-color="#E03C45"/>
<stop offset="1" stop-color="#E03C45" stop-opacity="0"/>
</linearGradient>
<linearGradient id="paint2_linear_6103_442111" x1="84.6278" y1="10.5966" x2="84.6278" y2="38.237" gradientUnits="userSpaceOnUse">
<stop stop-color="#E03C45"/>
<stop offset="1" stop-color="#E03C45" stop-opacity="0"/>
</linearGradient>
<linearGradient id="paint3_linear_6103_442111" x1="123.506" y1="78.4707" x2="96.0389" y2="75.3784" gradientUnits="userSpaceOnUse">
<stop stop-color="#E03C45"/>
<stop offset="1" stop-color="#E03C45" stop-opacity="0"/>
</linearGradient>
<linearGradient id="paint4_linear_6103_442111" x1="-0.986878" y1="76.5791" x2="26.6449" y2="77.2704" gradientUnits="userSpaceOnUse">
<stop stop-color="#E03C45"/>
<stop offset="1" stop-color="#E03C45" stop-opacity="0"/>
</linearGradient>
<linearGradient id="paint5_linear_6103_442111" x1="55.5818" y1="112.652" x2="66.8652" y2="87.4191" gradientUnits="userSpaceOnUse">
<stop stop-color="#E03C45"/>
<stop offset="1" stop-color="#E03C45" stop-opacity="0"/>
</linearGradient>
<linearGradient id="paint6_linear_6103_442111" x1="108.889" y1="30.0262" x2="108.889" y2="49.2388" gradientUnits="userSpaceOnUse">
<stop stop-color="#EE4F58"/>
<stop offset="1" stop-color="#EE4F58" stop-opacity="0.48"/>
</linearGradient>
<linearGradient id="paint7_linear_6103_442111" x1="105.226" y1="98.916" x2="87.031" y2="105.084" gradientUnits="userSpaceOnUse">
<stop stop-color="#EE4F58"/>
<stop offset="1" stop-color="#EE4F58" stop-opacity="0.48"/>
</linearGradient>
<linearGradient id="paint8_linear_6103_442111" x1="14.3045" y1="99.9584" x2="32.5" y2="106.127" gradientUnits="userSpaceOnUse">
<stop stop-color="#EE4F58"/>
<stop offset="1" stop-color="#EE4F58" stop-opacity="0.48"/>
</linearGradient>
<linearGradient id="paint9_linear_6103_442111" x1="59.3344" y1="-5.2738" x2="59.3344" y2="31.5486" gradientUnits="userSpaceOnUse">
<stop stop-color="#EE4F58"/>
<stop offset="1" stop-color="#EE4F58" stop-opacity="0.48"/>
</linearGradient>
<linearGradient id="paint10_linear_6103_442111" x1="13.5801" y1="17.5918" x2="13.5801" y2="46.7458" gradientUnits="userSpaceOnUse">
<stop stop-color="#EE4F58"/>
<stop offset="1" stop-color="#EE4F58" stop-opacity="0.48"/>
</linearGradient>
<linearGradient id="paint11_linear_6103_442111" x1="59.4998" y1="24.3597" x2="59.4998" y2="94.6398" gradientUnits="userSpaceOnUse">
<stop stop-color="#FDDC44"/>
<stop offset="1" stop-color="#F8AB33"/>
</linearGradient>
<linearGradient id="paint12_linear_6103_442111" x1="85.585" y1="89.9981" x2="52.6685" y2="34.7229" gradientUnits="userSpaceOnUse">
<stop stop-color="#F29839"/>
<stop offset="1" stop-color="#F29839" stop-opacity="0"/>
</linearGradient>
</defs>
</svg>
