<svg width="119" height="119" viewBox="0 0 119 119" fill="none" xmlns="http://www.w3.org/2000/svg">
<mask id="mask0_6103_442160" style="mask-type:alpha" maskUnits="userSpaceOnUse" x="0" y="-1" width="119" height="120">
<rect y="-0.000488281" width="119" height="119" fill="#F3B286"/>
</mask>
<g mask="url(#mask0_6103_442160)">
<rect y="-0.000488281" width="119" height="119" fill="url(#paint0_linear_6103_442160)"/>
<path fill-rule="evenodd" clip-rule="evenodd" d="M57.8773 14.3537C46.9057 3.44578 21.8244 -14.846 2.3447 -7.05415C10.9871 -3.11195 29.5456 9.23012 34.6401 27.0608C24.24 27.2854 0.761607 36.2716 -9.95143 70.4194L-14.1362 98.0389C-6.69454 85.6081 12.73 60.6456 30.8945 60.242C26.8367 68.1063 18.6027 87.7996 18.1293 103.658C17.5022 101.055 16.3496 94.4255 16.7562 88.7343C13.8202 94.6627 8.52416 110.314 10.8278 125.49H36.9127C37.2515 118.546 39.5212 102.658 45.89 94.6627C51.3669 87.7874 55.7258 51.1127 57.8773 26.2565C60.0287 51.1127 64.3876 87.7874 69.8645 94.6627C76.2333 102.658 78.503 118.546 78.8418 125.49H104.927C107.23 110.314 101.934 94.6627 98.9983 88.7343C99.4049 94.4255 98.2523 101.055 97.6252 103.658C97.1518 87.7996 88.9178 68.1063 84.86 60.242C103.025 60.6456 122.449 85.6081 129.891 98.0389L125.706 70.4194C114.993 36.2716 91.5145 27.2854 81.1144 27.0608C86.2089 9.23012 104.767 -3.11195 113.41 -7.05415C93.9301 -14.846 68.8488 3.44578 57.8773 14.3537Z" fill="#D9653C"/>
<path d="M59.4981 -0.200562C25.2614 -0.150017 9.83411 14.5405 8.49008 40.5873C7.78106 54.3281 11.621 60.8217 16.1453 68.4725C19.9613 74.9255 24.2641 79.3177 26.7347 92.46C30.7386 113.759 50.2417 116.081 59.4868 115.924C68.7319 116.081 88.2575 113.759 92.2615 92.46C94.7321 79.3177 99.0349 74.9255 102.851 68.4725C107.375 60.8217 111.215 54.3281 110.506 40.5873C109.162 14.5405 93.7347 -0.150017 59.4981 -0.200562Z" fill="url(#paint1_linear_6103_442160)"/>
<path d="M14.375 67.9469C12.3223 63.0657 10.3124 56.0032 9.56396 53.082L19.4511 69.1565L26.8961 82.6376L23.9765 81.5016C23.8597 82.8345 22.5167 83.7737 21.8598 84.0766C22.3853 79.9566 20.7649 75.1397 19.889 73.2463C19.2467 76.2152 17.0858 77.6065 16.0856 77.9311C16.3707 76.6369 16.4277 72.8281 14.375 67.9469Z" fill="#FBC33E"/>
<path d="M104.616 67.9469C106.669 63.0657 108.679 56.0032 109.427 53.082L99.5404 69.1565L92.0953 82.6376L95.0149 81.5016C95.1317 82.8345 96.4748 83.7737 97.1317 84.0766C96.6061 79.9566 98.2265 75.1397 99.1024 73.2463C99.7447 76.2152 101.906 77.6065 102.906 77.9311C102.621 76.6369 102.564 72.8281 104.616 67.9469Z" fill="#FBC33E"/>
<path d="M82.0205 30.4145C90.6346 28.4595 96.8005 32.2785 98.8068 34.4324C95.8644 34.9786 94.4817 41.7946 88.1843 45.3094C83.1464 48.1213 77.9153 46.7419 75.9296 45.7006C74.6538 46.5777 73.7879 49.3249 73.5145 50.5888C71.1524 45.9201 71.253 32.8583 82.0205 30.4145Z" fill="url(#paint2_linear_6103_442160)"/>
<path d="M35.424 30.4145C26.81 28.4595 20.644 32.2785 18.6378 34.4324C21.5801 34.9786 22.9628 41.7946 29.2603 45.3094C34.2982 48.1213 39.5292 46.7419 41.515 45.7006C42.7907 46.5777 43.6566 49.3249 43.9301 50.5888C46.2922 45.9201 46.1916 32.8583 35.424 30.4145Z" fill="url(#paint3_linear_6103_442160)"/>
<mask id="mask1_6103_442160" style="mask-type:alpha" maskUnits="userSpaceOnUse" x="74" y="31" width="18" height="14">
<path d="M83.4868 44.7978C90.2334 44.265 91.727 38.4041 91.6305 35.5402C90.7197 30.1524 81.6037 30.4861 76.7265 35.3066C71.8492 40.1272 75.0535 45.4638 83.4868 44.7978Z" fill="white"/>
</mask>
<g mask="url(#mask1_6103_442160)">
<path d="M83.4868 44.7978C90.2334 44.265 91.727 38.4041 91.6305 35.5402C90.7197 30.1524 81.6037 30.4861 76.7265 35.3066C71.8492 40.1272 75.0535 45.4638 83.4868 44.7978Z" fill="white"/>
<ellipse cx="81.9214" cy="36.7717" rx="4.92966" ry="4.92966" fill="black"/>
<ellipse cx="85.695" cy="34.2464" rx="2.08468" ry="2.08467" fill="white"/>
</g>
<mask id="mask2_6103_442160" style="mask-type:alpha" maskUnits="userSpaceOnUse" x="25" y="31" width="19" height="14">
<path d="M33.9571 44.7978C27.2104 44.265 25.7168 38.4041 25.8134 35.5402C26.7242 30.1524 35.8402 30.4861 40.7174 35.3066C45.5946 40.1272 42.3904 45.4638 33.9571 44.7978Z" fill="white"/>
</mask>
<g mask="url(#mask2_6103_442160)">
<path d="M33.9571 44.7978C27.2104 44.265 25.7168 38.4041 25.8134 35.5402C26.7242 30.1524 35.8402 30.4861 40.7174 35.3066C45.5946 40.1272 42.3904 45.4638 33.9571 44.7978Z" fill="white"/>
<ellipse cx="4.92966" cy="4.92966" rx="4.92966" ry="4.92966" transform="matrix(-1 0 0 1 40.4521 31.842)" fill="black"/>
<ellipse cx="2.08468" cy="2.08467" rx="2.08468" ry="2.08467" transform="matrix(-1 0 0 1 33.8335 32.1617)" fill="white"/>
</g>
<path d="M59.2487 60.1795C50.2989 58.7672 26.5762 60.3472 26.5762 74.0128C26.6573 75.1941 27.4855 78.1306 30.1491 80.4268C30.1567 88.11 31.9782 104.804 39.2036 110.112C46.2754 115.308 55.2382 116.069 59.2487 116.069C62.9505 116.069 72.2219 115.308 79.2937 110.112C86.5191 104.804 88.3406 88.11 88.3483 80.4268C91.0118 78.1306 91.84 75.1941 91.9211 74.0128C91.9211 60.3472 68.1984 58.7672 59.2487 60.1795Z" fill="#FDF9D4"/>
<ellipse cx="40.8513" cy="70.9813" rx="1.40741" ry="1.40741" fill="#EAB54E"/>
<ellipse cx="32.846" cy="71.5454" rx="1.19704" ry="1.19704" fill="#EAB54E"/>
<ellipse cx="45.9836" cy="75.7468" rx="1.40741" ry="1.40741" fill="#EAB54E"/>
<ellipse cx="35.8417" cy="76.763" rx="1.79852" ry="1.79851" fill="#EAB54E"/>
<ellipse cx="1.40741" cy="1.40741" rx="1.40741" ry="1.40741" transform="matrix(-1 0 0 1 77.0239 69.5739)" fill="#EAB54E"/>
<ellipse cx="1.19704" cy="1.19704" rx="1.19704" ry="1.19704" transform="matrix(-1 0 0 1 84.8188 70.3484)" fill="#EAB54E"/>
<ellipse cx="1.40741" cy="1.40741" rx="1.40741" ry="1.40741" transform="matrix(-1 0 0 1 71.8916 74.3394)" fill="#EAB54E"/>
<ellipse cx="1.79852" cy="1.79851" rx="1.79852" ry="1.79851" transform="matrix(-1 0 0 1 82.4246 74.9645)" fill="#EAB54E"/>
<mask id="mask3_6103_442160" style="mask-type:alpha" maskUnits="userSpaceOnUse" x="33" y="77" width="52" height="34">
<path d="M59.2932 77.6259C56.1505 80.9285 46.6691 86.543 33.885 82.5798C34.3758 87.3797 36.2048 97.6276 39.5944 102.853C42.984 108.079 54.1392 110.314 59.2932 110.02C64.4471 110.314 75.6023 108.079 78.9919 102.853C82.3816 97.6276 84.2105 87.3797 84.7013 82.5798C71.9173 86.543 62.4359 80.9285 59.2932 77.6259Z" fill="#802C33"/>
</mask>
<g mask="url(#mask3_6103_442160)">
<path d="M59.2932 77.6259C56.1505 80.9285 46.6691 86.543 33.885 82.5798C34.3758 87.3797 36.2048 97.6276 39.5944 102.853C42.984 108.079 54.1392 110.314 59.2932 110.02C64.4471 110.314 75.6023 108.079 78.9919 102.853C82.3816 97.6276 84.2105 87.3797 84.7013 82.5798C71.9173 86.543 62.4359 80.9285 59.2932 77.6259Z" fill="#2A2C28"/>
<ellipse cx="59.2927" cy="102.917" rx="14.8162" ry="8.14074" fill="#C34557"/>
<path d="M46.6195 99.7797L43.1423 108.328L50.6505 110.795H66.2773L75.2808 108.328L71.4322 99.7808C71.2939 99.4736 70.8591 99.4698 70.7154 99.7744L68.6576 104.136C63.1708 105.504 54.9952 105.194 49.6806 104.136L47.3332 99.7424C47.1756 99.4474 46.7455 99.4699 46.6195 99.7797Z" fill="white"/>
<path d="M59.2932 77.6259C56.1505 80.8648 46.6691 86.3711 33.885 82.4843C34.3758 87.1917 36.2048 97.242 39.5944 102.367C42.984 107.492 54.1392 109.684 59.2932 109.396C64.4471 109.684 75.6023 107.492 78.9919 102.367C82.3816 97.242 84.2105 87.1917 84.7013 82.4843C71.9173 86.3711 62.4359 80.8648 59.2932 77.6259Z" stroke="#2A2C28" stroke-width="1.9734"/>
<path d="M42.4887 88.7697L37.7432 77.8249L47.8909 75.3581L69.0115 75.3581L81.1804 77.825L75.9269 88.7701C75.7732 89.0902 75.3079 89.0604 75.1964 88.7232L72.9782 82.0174C65.5625 80.6493 53.0134 80.9598 45.8304 82.0174L43.2189 88.7553C43.0913 89.0843 42.6291 89.0934 42.4887 88.7697Z" fill="white"/>
</g>
<path d="M59.9156 64.7587C59.9156 64.4862 59.6947 64.2653 59.4222 64.2653C59.1498 64.2653 58.9289 64.4862 58.9289 64.7587H59.9156ZM59.4222 77.3769L59.8261 77.6603L59.9156 77.5327V77.3769H59.4222ZM58.9289 64.7587V77.3769H59.9156V64.7587H58.9289ZM59.0184 77.0935C57.7217 78.9413 55.2122 80.5819 52.0725 81.7481C48.9458 82.9095 45.256 83.5768 41.6705 83.5252C38.0813 83.4735 34.6344 82.7023 31.9635 81.0249C29.309 79.3578 27.3997 76.7847 26.8676 73.0555L25.8907 73.1949C26.4661 77.2264 28.5517 80.0474 31.4387 81.8605C34.3095 83.6634 37.9509 84.4584 41.6563 84.5118C45.3654 84.5652 49.1764 83.8764 52.4161 82.673C55.6429 81.4745 58.3655 79.7417 59.8261 77.6603L59.0184 77.0935Z" fill="black"/>
<path d="M59.3273 77.3769L58.9234 77.6603L58.8339 77.5327V77.3769H59.3273ZM91.882 73.0555C91.9204 72.7858 92.1703 72.5983 92.4401 72.6368C92.7098 72.6753 92.8973 72.9252 92.8588 73.1949L91.882 73.0555ZM59.8206 64.7587V77.3769H58.8339V64.7587H59.8206ZM59.7311 77.0935C61.0278 78.9413 63.5373 80.5819 66.677 81.7481C69.8037 82.9095 73.4935 83.5768 77.079 83.5252C80.6682 83.4735 84.1152 82.7023 86.786 81.0249C89.4406 79.3578 91.3498 76.7847 91.882 73.0555L92.8588 73.1949C92.2834 77.2264 90.1978 80.0474 87.3108 81.8605C84.4401 83.6634 80.7987 84.4584 77.0932 84.5118C73.3842 84.5652 69.5731 83.8764 66.3334 82.673C63.1067 81.4745 60.384 79.7417 58.9234 77.6603L59.7311 77.0935Z" fill="black"/>
<mask id="mask4_6103_442160" style="mask-type:alpha" maskUnits="userSpaceOnUse" x="38" y="55" width="42" height="22">
<path d="M49.0574 55.3239C47.4381 55.3239 39.3414 56.0242 38.7746 59.7205C38.2079 63.4168 41.8514 65.9411 46.2236 66.9328C47.9619 67.3271 48.9917 68.8673 50.1369 70.5798C51.872 73.1748 53.8719 76.1655 59.002 76.1655C64.1321 76.1655 66.132 73.1748 67.8671 70.5799C69.0123 68.8673 70.0421 67.3272 71.7804 66.9329C76.1526 65.9412 79.7961 63.4169 79.2294 59.7206C78.6626 56.0242 70.5659 55.3239 68.9466 55.3239L49.0574 55.3239Z" fill="#802C33"/>
</mask>
<g mask="url(#mask4_6103_442160)">
<path d="M49.0574 55.3239C47.4381 55.3239 39.3414 56.0242 38.7746 59.7205C38.2079 63.4168 41.8514 65.9411 46.2236 66.9328C47.9619 67.3271 48.9917 68.8673 50.1369 70.5798C51.872 73.1748 53.8719 76.1655 59.002 76.1655C64.1321 76.1655 66.132 73.1748 67.8671 70.5799C69.0123 68.8673 70.0421 67.3272 71.7804 66.9329C76.1526 65.9412 79.7961 63.4169 79.2294 59.7206C78.6626 56.0242 70.5659 55.3239 68.9466 55.3239L49.0574 55.3239Z" fill="#802C33"/>
</g>
<path fill-rule="evenodd" clip-rule="evenodd" d="M30.1892 4.63023C36.4468 2.93905 51.0696 1.0078 59.5002 6.81225V-0.987183C51.8076 -0.809516 35.1758 0.5627 30.1892 4.63023ZM88.8117 4.63023C82.5541 2.93905 67.9313 1.0078 59.5007 6.81225V-0.987183C67.1932 -0.809515 83.8251 0.5627 88.8117 4.63023Z" fill="#DC6640"/>
</g>
<defs>
<linearGradient id="paint0_linear_6103_442160" x1="59.5" y1="-0.000488281" x2="59.5" y2="118.999" gradientUnits="userSpaceOnUse">
<stop stop-color="#DA6440"/>
<stop offset="1" stop-color="#F28A40"/>
</linearGradient>
<linearGradient id="paint1_linear_6103_442160" x1="59.4981" y1="1.48176" x2="59.4981" y2="115.931" gradientUnits="userSpaceOnUse">
<stop stop-color="#F6C44D"/>
<stop offset="1" stop-color="#FFC12E"/>
</linearGradient>
<linearGradient id="paint2_linear_6103_442160" x1="86.3917" y1="29.7789" x2="72.8966" y2="53.2757" gradientUnits="userSpaceOnUse">
<stop stop-color="#D98717" stop-opacity="0"/>
<stop offset="1" stop-color="#D98717"/>
</linearGradient>
<linearGradient id="paint3_linear_6103_442160" x1="31.0529" y1="29.7789" x2="44.5479" y2="53.2757" gradientUnits="userSpaceOnUse">
<stop stop-color="#D98717" stop-opacity="0"/>
<stop offset="1" stop-color="#D98717"/>
</linearGradient>
</defs>
</svg>
