<svg width="119" height="119" viewBox="0 0 119 119" fill="none" xmlns="http://www.w3.org/2000/svg">
<mask id="mask0_6103_442219" style="mask-type:alpha" maskUnits="userSpaceOnUse" x="0" y="0" width="120" height="120">
<rect x="0.117188" y="0.147583" width="119" height="119" fill="#F3B286"/>
</mask>
<g mask="url(#mask0_6103_442219)">
<rect x="0.117188" y="0.147583" width="119" height="119" fill="url(#paint0_linear_6103_442219)"/>
<path d="M66.4413 79.2532C61.8331 79.4773 61.5768 88.9949 62.0246 93.7257C65.9641 93.7257 70.8659 91.4504 72.8244 90.3128C72.6168 86.5329 71.0496 79.0291 66.4413 79.2532Z" fill="#E62B33"/>
<path d="M43.2654 86.9807C45.4285 91.184 51.9314 94.2368 59.6175 94.2368C67.3035 94.2368 73.8064 91.184 75.9695 86.9807" stroke="#3C0F11" stroke-width="2.56542" stroke-linecap="round"/>
<path d="M-0.546631 27.348V5.15051H131.392V25.154C131.392 30.0481 127.424 34.0155 122.53 34.0155H120.105C116.55 34.0155 113.669 31.134 113.669 27.5794V24.8356C113.669 22.7964 112.015 21.1433 109.976 21.1433C107.937 21.1433 106.284 22.7964 106.284 24.8356V41.0174C106.284 44.824 103.198 47.9097 99.3917 47.9097H98.7132C95.2814 47.9097 92.4994 45.1277 92.4994 41.6959V38.9283C92.4994 37.025 90.9565 35.4821 89.0532 35.4821C87.1499 35.4821 85.6071 37.025 85.6071 38.9283V47.0167C85.6071 50.8232 82.5213 53.909 78.7148 53.909C74.9083 53.909 71.8225 50.8232 71.8225 47.0167V33.442C71.8225 29.6355 68.7367 26.5497 64.9302 26.5497H64.3063C60.8443 26.5497 58.0379 29.3561 58.0379 32.818V34.9018C58.0379 37.2129 56.1644 39.0864 53.8533 39.0864C51.5422 39.0864 49.6687 37.2129 49.6687 34.9018V24.0971C49.6687 22.4658 48.3462 21.1433 46.7148 21.1433C45.0835 21.1433 43.761 22.4658 43.761 24.0971V38.4769C43.761 42.6912 40.3446 46.1076 36.1302 46.1076C31.9159 46.1076 28.4995 42.6912 28.4995 38.4769V27.7894C28.4995 24.1189 25.5239 21.1433 21.8533 21.1433C18.1828 21.1433 15.2072 24.1189 15.2072 27.7894V28.1841C15.2072 32.0726 12.0549 35.2249 8.1664 35.2249H7.33029C2.97999 35.2249 -0.546631 31.6983 -0.546631 27.348Z" fill="url(#paint1_linear_6103_442219)"/>
<path d="M0.117188 23.619V-1.6543H128.412V21.3372C128.412 26.0962 124.554 29.9541 119.795 29.9541H118.226C114.334 29.9541 111.179 26.7987 111.179 22.9063V19.4488C111.179 17.4659 109.571 15.8585 107.588 15.8585C105.605 15.8585 103.998 17.4659 103.998 19.4488V38.4668C103.998 42.1682 100.997 45.1688 97.2958 45.1688C93.5944 45.1688 90.5939 42.1682 90.5939 38.4668V34.9111C90.5939 33.0604 89.0936 31.5601 87.2429 31.5601C85.3922 31.5601 83.8919 33.0604 83.8919 34.9111V45.0362C83.8919 48.7376 80.8913 51.7382 77.1899 51.7382C73.4885 51.7382 70.4879 48.7376 70.4879 45.0362V28.4806C70.4879 24.7792 67.4874 21.7787 63.786 21.7787C60.0846 21.7787 57.084 24.7792 57.084 28.4806V31.4378C57.084 33.6851 55.2622 35.5069 53.0149 35.5069C50.7677 35.5069 48.9459 33.6851 48.9459 31.4378V18.7307C48.9459 17.1444 47.6599 15.8585 46.0736 15.8585C44.4873 15.8585 43.2013 17.1444 43.2013 18.7307V35.7753C43.2013 39.8733 39.8793 43.1954 35.7813 43.1954C31.6833 43.1954 28.3612 39.8733 28.3612 35.7753V22.3211C28.3612 18.7519 25.4678 15.8585 21.8986 15.8585C18.3294 15.8585 15.436 18.7519 15.436 22.3211V23.619C15.436 27.8492 12.0068 31.2784 7.7766 31.2784C3.54642 31.2784 0.117188 27.8492 0.117188 23.619Z" fill="#A94B24"/>
<path d="M25.5448 14.2748C41.3123 12.8334 39.7093 0.990452 36.9369 -4.75085H-6.69946V41.9524C3.46708 43.3488 5.45321 35.0233 5.17545 30.686C8.36987 32.5901 16.5504 35.256 23.7169 30.686C30.8835 26.1159 27.9216 17.841 25.5448 14.2748Z" fill="#FFFEFF"/>
</g>
<path d="M50.2845 66.7139C50.2845 62.8112 45.9516 59.6475 40.6067 59.6475C35.2618 59.6475 30.929 62.8112 30.929 66.7139" stroke="#3C0F11" stroke-width="2.56542" stroke-linecap="round"/>
<path d="M88.3097 66.7139C88.3097 62.8112 83.9768 59.6475 78.6319 59.6475C73.287 59.6475 68.9541 62.8112 68.9541 66.7139" stroke="#3C0F11" stroke-width="2.56542" stroke-linecap="round"/>
<ellipse cx="28.1609" cy="82.3866" rx="10.0076" ry="10.0076" fill="url(#paint2_linear_6103_442219)"/>
<ellipse cx="91.0772" cy="82.3866" rx="10.0076" ry="10.0076" fill="url(#paint3_linear_6103_442219)"/>
<defs>
<linearGradient id="paint0_linear_6103_442219" x1="59.6172" y1="0.147583" x2="59.6172" y2="119.147" gradientUnits="userSpaceOnUse">
<stop stop-color="#6FCDDC"/>
<stop offset="1" stop-color="#80DAE9"/>
</linearGradient>
<linearGradient id="paint1_linear_6103_442219" x1="65.4225" y1="5.15051" x2="83.4653" y2="72.6209" gradientUnits="userSpaceOnUse">
<stop stop-color="#3EB7CA"/>
<stop offset="1" stop-color="#59C2D2" stop-opacity="0"/>
</linearGradient>
<linearGradient id="paint2_linear_6103_442219" x1="28.1609" y1="72.379" x2="28.1609" y2="92.3942" gradientUnits="userSpaceOnUse">
<stop stop-color="#98EBF9"/>
<stop offset="1" stop-color="#98EBF9" stop-opacity="0.4"/>
</linearGradient>
<linearGradient id="paint3_linear_6103_442219" x1="91.0772" y1="72.379" x2="91.0772" y2="92.3942" gradientUnits="userSpaceOnUse">
<stop stop-color="#98EBF9"/>
<stop offset="1" stop-color="#98EBF9" stop-opacity="0.4"/>
</linearGradient>
</defs>
</svg>
