<svg width="119" height="119" viewBox="0 0 119 119" fill="none" xmlns="http://www.w3.org/2000/svg">
<mask id="mask0_6103_442240" style="mask-type:alpha" maskUnits="userSpaceOnUse" x="-1" y="-1" width="120" height="120">
<rect x="-0.00390625" y="-0.000366211" width="119" height="119" fill="#D9D9D9"/>
</mask>
<g mask="url(#mask0_6103_442240)">
<rect x="-0.00390625" y="-0.000366211" width="119" height="119" fill="url(#paint0_linear_6103_442240)"/>
<path d="M31.659 50.5021C38.9852 50.5021 45.7919 56.7298 48.6041 60.2631C46.2389 61.5633 39.7565 64.1638 32.7481 64.1638C25.7397 64.1638 20.4898 60.1924 18.7409 58.2066C17.2214 59.2261 14.7297 59.7148 13.6738 59.8318V56.9324C17.9536 57.0442 22.6544 50.5021 31.659 50.5021Z" fill="#0E1112"/>
<mask id="mask1_6103_442240" style="mask-type:alpha" maskUnits="userSpaceOnUse" x="21" y="52" width="25" height="11">
<path d="M32.3134 52.8263C27.0929 52.8263 22.8933 55.7421 21.0859 57.2C22.8473 58.8772 27.5587 62.2316 32.3134 62.2316C37.0681 62.2316 42.772 60.4112 45.0296 59.5011C42.7259 57.2761 37.5339 52.8263 32.3134 52.8263Z" fill="white"/>
</mask>
<g mask="url(#mask1_6103_442240)">
<path d="M32.3134 52.8263C27.0929 52.8263 22.8933 55.7421 21.0859 57.2C22.8473 58.8772 27.5587 62.2316 32.3134 62.2316C37.0681 62.2316 42.772 60.4112 45.0296 59.5011C42.7259 57.2761 37.5339 52.8263 32.3134 52.8263Z" fill="white"/>
<circle cx="32.5106" cy="56.5264" r="5.32704" fill="#363637"/>
<circle cx="34.3242" cy="55.9728" r="1.37888" fill="white"/>
</g>
<path d="M85.6886 50.5021C78.3625 50.5021 71.5557 56.7298 68.7436 60.2631C71.1087 61.5633 77.5912 64.1638 84.5996 64.1638C91.608 64.1638 96.8579 60.1924 98.6068 58.2066C100.126 59.2261 102.618 59.7148 103.674 59.8318V56.9324C99.3941 57.0442 94.6932 50.5021 85.6886 50.5021Z" fill="#0E1112"/>
<mask id="mask2_6103_442240" style="mask-type:alpha" maskUnits="userSpaceOnUse" x="72" y="52" width="25" height="11">
<path d="M85.0343 52.8263C90.2548 52.8263 94.4543 55.7421 96.2617 57.2C94.5004 58.8772 89.789 62.2316 85.0343 62.2316C80.2796 62.2316 74.5757 60.4112 72.3181 59.5011C74.6217 57.2761 79.8138 52.8263 85.0343 52.8263Z" fill="white"/>
</mask>
<g mask="url(#mask2_6103_442240)">
<path d="M85.0343 52.8263C90.2548 52.8263 94.4543 55.7421 96.2617 57.2C94.5004 58.8772 89.789 62.2316 85.0343 62.2316C80.2796 62.2316 74.5757 60.4112 72.3181 59.5011C74.6217 57.2761 79.8138 52.8263 85.0343 52.8263Z" fill="white"/>
<circle cx="84.4169" cy="56.5264" r="5.32704" fill="#363637"/>
<circle cx="82.4804" cy="55.7755" r="1.37888" fill="white"/>
</g>
<path d="M49.407 43.4959L49.9504 40.679C50.065 40.085 49.7144 39.5003 49.1364 39.3218L49.104 39.3117C43.1768 37.4808 35.671 35.1623 25.878 35.5406C20.1144 35.7633 14.313 41.7963 12.1328 45.2489C14.7661 43.3966 19.8055 40.9631 25.878 40.8009C34.433 40.5723 42.0357 42.7294 47.9229 44.4093C48.59 44.5997 49.2756 44.1771 49.407 43.4959Z" fill="black"/>
<path d="M67.9407 43.4959L67.3973 40.679C67.2827 40.085 67.6333 39.5003 68.2113 39.3218L68.2437 39.3117C74.1709 37.4808 81.6766 35.1623 91.4696 35.5406C97.2333 35.7633 103.035 41.7963 105.215 45.2489C102.582 43.3966 97.5421 40.9631 91.4696 40.8009C82.9147 40.5723 75.312 42.7294 69.4248 44.4093C68.7576 44.5997 68.0721 44.1771 67.9407 43.4959Z" fill="black"/>
<path d="M123.399 -8.6864H-4.41016V21.3328H123.399V-8.6864Z" fill="url(#paint1_linear_6103_442240)"/>
<path d="M45.5578 15.3866L40.6367 -7.02136H75.1732L71.3736 15.3866H45.5578Z" fill="url(#paint2_linear_6103_442240)"/>
<path d="M29.372 19.7536C27.2339 11.0995 22.9578 -6.51428 22.9578 -7.73608H2.62524L14.232 19.7536H29.372Z" fill="url(#paint3_linear_6103_442240)"/>
<path d="M87.9798 19.7535C90.1179 11.0994 94.394 -6.5144 94.394 -7.73621H114.727L103.12 19.7535H87.9798Z" fill="url(#paint4_linear_6103_442240)"/>
<path fill-rule="evenodd" clip-rule="evenodd" d="M59.498 7.65263C59.6149 7.65252 59.731 7.65247 59.8465 7.65247V7.65314C75.0915 7.68286 101.079 8.73614 119.916 18.8175V37.0745C113.995 32.7255 96.7033 24.041 59.498 23.9871C22.2928 24.041 5.00121 32.7255 -0.919922 37.0745V18.8175C17.9166 8.73614 43.9046 7.68286 59.1496 7.65314V7.65247C59.2651 7.65247 59.3812 7.65252 59.498 7.65263Z" fill="url(#paint5_linear_6103_442240)"/>
<path fill-rule="evenodd" clip-rule="evenodd" d="M41.2207 100.637C41.8767 100.644 44.1914 100.03 48.2017 97.5164C53.2146 94.3748 55.8365 94.9137 57.091 95.5362C57.5127 95.7454 57.8812 96.0313 58.2166 96.2915C58.6732 96.6459 59.0684 96.9525 59.4525 96.9525V102.579C58.3475 102.579 57.082 102.104 55.5648 101.472C53.9964 100.819 52.8378 101.095 51.3046 101.46C50.984 101.537 50.647 101.617 50.2864 101.694C48.2017 102.136 43.3756 102.203 41.2207 100.637ZM77.6855 100.637C77.0295 100.644 74.7149 100.03 70.7045 97.5164C65.6916 94.3748 63.0697 94.9137 61.8152 95.5362C61.3935 95.7454 61.025 96.0313 60.6897 96.2915C60.233 96.6459 59.8379 96.9525 59.4538 96.9525V102.579C60.5588 102.579 61.8243 102.104 63.3414 101.472C64.9099 100.819 66.0685 101.095 67.6017 101.46C67.9223 101.537 68.2593 101.617 68.6199 101.694C70.7045 102.136 75.5307 102.203 77.6855 100.637Z" fill="#BC6C0D"/>
<path fill-rule="evenodd" clip-rule="evenodd" d="M48.0569 77.339C47.4253 78.8088 47.0404 81.6456 49.4517 81.4179C50.2069 81.3466 50.8862 81.1504 51.519 80.9677C52.9068 80.5669 54.0708 80.2307 55.3207 81.4179C57.1092 83.1168 58.2826 83.6294 59.4453 83.6465C60.608 83.6294 61.7813 83.1168 63.5698 81.4179C64.8197 80.2307 65.9838 80.5669 67.3715 80.9677C68.0043 81.1504 68.6837 81.3466 69.4389 81.4179C71.8502 81.6456 71.4652 78.8088 70.8337 77.339C74.3395 81.2792 71.5933 84.9584 67.3814 84.2618C64.7571 83.8278 64.5742 83.9705 63.4031 84.8848C63.2754 84.9845 63.1359 85.0934 62.9802 85.2117C61.7534 86.1441 60.7546 86.3633 59.5063 86.3761V86.3767C59.4859 86.3767 59.4656 86.3767 59.4453 86.3766C59.425 86.3767 59.4046 86.3767 59.3842 86.3767V86.3761C58.136 86.3633 57.1371 86.1441 55.9103 85.2117C55.7546 85.0934 55.6152 84.9845 55.4874 84.8848C54.3163 83.9705 54.1335 83.8278 51.5091 84.2618C47.2973 84.9584 44.5511 81.2792 48.0569 77.339Z" fill="#BC6C0D"/>
<path fill-rule="evenodd" clip-rule="evenodd" d="M59.4473 111.734C63.003 111.857 70.6127 110.516 73.0176 104.151C71.7963 105.747 67.3749 108.934 59.4473 108.948C51.5196 108.934 47.0982 105.747 45.877 104.151C48.2818 110.516 55.8915 111.857 59.4473 111.734Z" fill="#BC6C0D"/>
</g>
<defs>
<linearGradient id="paint0_linear_6103_442240" x1="59.4961" y1="15.1778" x2="59.4961" y2="119" gradientUnits="userSpaceOnUse">
<stop stop-color="#FBBD34"/>
<stop offset="1" stop-color="#FED45C"/>
</linearGradient>
<linearGradient id="paint1_linear_6103_442240" x1="59.4944" y1="-8.6864" x2="59.4944" y2="21.3328" gradientUnits="userSpaceOnUse">
<stop stop-color="#FFE9C5"/>
<stop offset="1" stop-color="#FFE9C5" stop-opacity="0"/>
</linearGradient>
<linearGradient id="paint2_linear_6103_442240" x1="57.9049" y1="-7.02136" x2="57.9049" y2="15.3866" gradientUnits="userSpaceOnUse">
<stop stop-color="#2A2A70"/>
<stop offset="1" stop-color="#43438B"/>
</linearGradient>
<linearGradient id="paint3_linear_6103_442240" x1="15.9986" y1="-7.73608" x2="15.9986" y2="19.7536" gradientUnits="userSpaceOnUse">
<stop stop-color="#2A2A70"/>
<stop offset="1" stop-color="#43438B"/>
</linearGradient>
<linearGradient id="paint4_linear_6103_442240" x1="101.353" y1="-7.73621" x2="101.353" y2="19.7535" gradientUnits="userSpaceOnUse">
<stop stop-color="#2A2A70"/>
<stop offset="1" stop-color="#43438B"/>
</linearGradient>
<linearGradient id="paint5_linear_6103_442240" x1="59.498" y1="7.65247" x2="59.498" y2="37.0745" gradientUnits="userSpaceOnUse">
<stop stop-color="#BC6C0D"/>
<stop offset="1" stop-color="#E19534"/>
</linearGradient>
</defs>
</svg>
