<svg width="119" height="119" viewBox="0 0 119 119" fill="none" xmlns="http://www.w3.org/2000/svg">
<mask id="mask0_6103_442284" style="mask-type:alpha" maskUnits="userSpaceOnUse" x="-1" y="-1" width="120" height="120">
<rect x="-0.00366211" y="-0.000366211" width="119" height="119" fill="#D9D9D9"/>
</mask>
<g mask="url(#mask0_6103_442284)">
<path d="M-0.00366211 -0.000366211H118.996V119H-0.00366211V-0.000366211Z" fill="url(#paint0_linear_6103_442284)"/>
<path fill-rule="evenodd" clip-rule="evenodd" d="M49.0506 49.0782L53.0285 58.4194C50.466 56.9892 44.608 54.7545 41.6761 57.2574C38.0111 60.386 39.1285 64.9001 40.7375 64.8554C41.4981 64.8343 41.8192 64.2539 42.1494 63.6572C42.5178 62.9915 42.8974 62.3054 43.9108 62.3525C44.5428 62.3819 45.4401 63.6884 46.6355 65.4288C49.0747 68.9803 52.755 74.3388 57.9546 74.3388V76.2214C55.2272 75.4379 48.7878 72.7191 44.8489 68.1117C41.6277 64.344 37.2212 67.1595 32.6829 70.0591C30.2842 71.5917 27.8486 73.1478 25.5318 73.7678C20.1718 75.2022 15.6863 72.5411 14.1135 71.0312C16.1091 71.9998 21.1865 73.4898 25.5318 71.7007C30.9635 69.4644 35.7304 64.6974 38.0256 60.2835C40.3208 55.8697 43.8915 53.1037 49.0506 54.4572V49.0782ZM66.9225 49.0782L62.9447 58.4194C65.5071 56.9892 71.3651 54.7545 74.2971 57.2574C77.962 60.386 76.8447 64.9001 75.2357 64.8554C74.4751 64.8343 74.1539 64.2539 73.8237 63.6572C73.4554 62.9915 73.0758 62.3054 72.0624 62.3525C71.4303 62.3819 70.533 63.6884 69.3377 65.4288C66.8984 68.9803 63.2181 74.3388 58.0186 74.3388V76.2214C60.7459 75.4379 67.1853 72.7191 71.1243 68.1117C74.3454 64.344 78.752 67.1595 83.2902 70.0591C85.689 71.5917 88.1245 73.1478 90.4413 73.7678C95.8013 75.2022 100.287 72.5411 101.86 71.0312C99.8641 71.9998 94.7866 73.4898 90.4413 71.7007C85.0097 69.4644 80.2427 64.6974 77.9475 60.2835C75.6523 55.8697 72.0817 53.1037 66.9225 54.4572V49.0782Z" fill="url(#paint1_linear_6103_442284)"/>
<path d="M36.5879 35.9463C31.3288 32.885 22.6634 30.8466 18.9881 30.2101C13.1623 36.6404 17.554 49.9452 25.1083 51.3507C33.5464 52.9206 36.5879 48.3091 40.2183 46.2486C43.1225 44.6002 45.0914 46.3467 45.7128 47.426C45.7128 44.3844 43.1618 39.7729 36.5879 35.9463Z" fill="url(#paint2_linear_6103_442284)"/>
<path d="M80.811 35.9463C86.0701 32.885 94.7355 30.8466 98.4108 30.2101C104.237 36.6404 99.8449 49.9452 92.2906 51.3507C83.8525 52.9206 80.811 48.3091 77.1807 46.2486C74.2764 44.6002 72.3075 46.3467 71.6861 47.426C71.6861 44.3844 74.2372 39.7729 80.811 35.9463Z" fill="url(#paint3_linear_6103_442284)"/>
<path d="M39.6409 40.7045C34.2004 34.7199 25.5296 32.9972 21.8743 32.8839C19.4941 36.5393 19.9191 46.9101 28.0798 47.8452C34.6084 48.5932 38.5074 43.3964 39.6409 40.7045Z" fill="url(#paint4_linear_6103_442284)"/>
<path d="M77.7581 40.7045C83.1986 34.7199 91.8693 32.9972 95.5246 32.8839C97.9048 36.5393 97.4798 46.9101 89.3191 47.8452C82.7905 48.5932 78.8915 43.3964 77.7581 40.7045Z" fill="url(#paint5_linear_6103_442284)"/>
<mask id="mask1_6103_442284" style="mask-type:alpha" maskUnits="userSpaceOnUse" x="26" y="74" width="66" height="31">
<path d="M26.0588 79.1141C27.8841 77.4809 32.2696 74.2145 35.2093 74.2145C36.5048 74.2145 38.2859 75.2543 40.5922 76.6007C44.8273 79.0731 50.8334 82.5795 58.8557 82.5795C66.878 82.5795 72.8841 79.0731 77.1192 76.6007C79.4255 75.2543 81.2066 74.2145 82.5022 74.2145C85.4419 74.2145 89.8273 77.4809 91.6526 79.1141C90.1437 97.0514 80.4633 106.542 72.8853 103.777C66.8229 101.565 61.0062 100.535 58.8557 100.296C56.7052 100.535 50.8886 101.565 44.8262 103.777C37.2482 106.542 27.5678 97.0514 26.0588 79.1141Z" fill="#5A2200"/>
</mask>
<g mask="url(#mask1_6103_442284)">
<path d="M26.0588 79.1141C27.8841 77.4809 32.2696 74.2145 35.2093 74.2145C36.5048 74.2145 38.2859 75.2543 40.5922 76.6007C44.8273 79.0731 50.8334 82.5795 58.8557 82.5795C66.878 82.5795 72.8841 79.0731 77.1192 76.6007C79.4255 75.2543 81.2066 74.2145 82.5022 74.2145C85.4419 74.2145 89.8273 77.4809 91.6526 79.1141C90.1437 97.0514 80.4633 106.542 72.8853 103.777C66.8229 101.565 61.0062 100.535 58.8557 100.296C56.7052 100.535 50.8886 101.565 44.8262 103.777C37.2482 106.542 27.5678 97.0514 26.0588 79.1141Z" fill="url(#paint6_linear_6103_442284)"/>
<path d="M40.9716 92.4464C39.5245 95.9194 37.4749 102.768 36.8284 105.166H80.8821C80.0829 102.222 77.3144 95.065 76.03 92.4464L74.0321 98.1142C63.7001 99.2102 48.9511 98.5709 42.8681 98.1142L40.9716 92.4464Z" fill="url(#paint7_linear_6103_442284)"/>
<path d="M42.6181 86.2746L40.7854 74.3746H76.6365L74.2118 86.2746L69.9639 83.2371C60.8014 83.8557 52.3663 83.6279 46.9296 83.2663L42.6181 86.2746Z" fill="url(#paint8_linear_6103_442284)"/>
</g>
<path d="M11.0569 103.725C24.6545 99.1924 30.3616 82.9573 31.5 75.365C32.1919 74.9924 33.6958 74.1983 35.32 74.1984C36.7405 74.1985 39.0847 75.7057 40.1868 76.3625C39.2021 98.5437 20.3435 103.849 11.0569 103.725Z" fill="url(#paint9_linear_6103_442284)"/>
<path d="M106.655 103.725C93.057 99.1924 87.3498 82.9573 86.2114 75.365C85.5195 74.9924 84.0156 74.1983 82.3914 74.1984C80.9709 74.1985 78.6267 75.7057 77.5246 76.3625C78.5093 98.5437 97.3679 103.849 106.655 103.725Z" fill="url(#paint10_linear_6103_442284)"/>
<path opacity="0.6" d="M67.9804 107.172C61.5444 104.37 53.562 106.005 50.3752 107.172C51.434 105.931 54.5861 103.45 58.7248 103.45C62.8634 103.45 66.6196 105.931 67.9804 107.172Z" fill="url(#paint11_linear_6103_442284)"/>
<path d="M57.8019 31.1529C-2.89184 31.1529 -4.84103 8.58325 -0.558727 -2.16785H118.719C125.869 8.58325 118.496 31.1529 57.8019 31.1529Z" fill="#FBCA33"/>
<path d="M57.9126 24.4448C1.11321 24.4448 -0.710912 6.41904 3.29662 -2.1676H114.921C121.612 6.41904 114.712 24.4448 57.9126 24.4448Z" fill="#AB090D"/>
</g>
<defs>
<linearGradient id="paint0_linear_6103_442284" x1="59.4963" y1="-0.000366211" x2="59.4963" y2="119" gradientUnits="userSpaceOnUse">
<stop stop-color="#DA1818"/>
<stop offset="1" stop-color="#F23F4F"/>
</linearGradient>
<linearGradient id="paint1_linear_6103_442284" x1="57.9866" y1="49.0782" x2="57.9866" y2="76.2214" gradientUnits="userSpaceOnUse">
<stop stop-color="#560E04"/>
<stop offset="1" stop-color="#75362D" stop-opacity="0.3"/>
</linearGradient>
<linearGradient id="paint2_linear_6103_442284" x1="31.0079" y1="30.2101" x2="31.0079" y2="51.6705" gradientUnits="userSpaceOnUse">
<stop stop-color="#560E04"/>
<stop offset="1" stop-color="#75362D" stop-opacity="0.26"/>
</linearGradient>
<linearGradient id="paint3_linear_6103_442284" x1="86.391" y1="30.2101" x2="86.391" y2="51.6705" gradientUnits="userSpaceOnUse">
<stop stop-color="#560E04"/>
<stop offset="1" stop-color="#75362D" stop-opacity="0.26"/>
</linearGradient>
<linearGradient id="paint4_linear_6103_442284" x1="30.1262" y1="32.8839" x2="30.1262" y2="47.918" gradientUnits="userSpaceOnUse">
<stop stop-color="#F4AA31"/>
<stop offset="1" stop-color="#FFE134"/>
</linearGradient>
<linearGradient id="paint5_linear_6103_442284" x1="87.2727" y1="32.8839" x2="87.2727" y2="47.918" gradientUnits="userSpaceOnUse">
<stop stop-color="#F4AA31"/>
<stop offset="1" stop-color="#FFE134"/>
</linearGradient>
<linearGradient id="paint6_linear_6103_442284" x1="58.8557" y1="74.2145" x2="58.8557" y2="104.251" gradientUnits="userSpaceOnUse">
<stop stop-color="#5A2200"/>
<stop offset="0.973958" stop-color="#301403"/>
</linearGradient>
<linearGradient id="paint7_linear_6103_442284" x1="58.8552" y1="92.4464" x2="58.8552" y2="105.166" gradientUnits="userSpaceOnUse">
<stop stop-color="#F4AA31"/>
<stop offset="1" stop-color="#FFE134"/>
</linearGradient>
<linearGradient id="paint8_linear_6103_442284" x1="58.415" y1="76.1553" x2="58.415" y2="83.623" gradientUnits="userSpaceOnUse">
<stop stop-color="#F4AA31"/>
<stop offset="1" stop-color="#FFE134"/>
</linearGradient>
<linearGradient id="paint9_linear_6103_442284" x1="25.6218" y1="74.1984" x2="25.6218" y2="103.727" gradientUnits="userSpaceOnUse">
<stop stop-color="#F4AA31"/>
<stop offset="1" stop-color="#FFE134"/>
</linearGradient>
<linearGradient id="paint10_linear_6103_442284" x1="92.0896" y1="74.1984" x2="92.0896" y2="103.727" gradientUnits="userSpaceOnUse">
<stop stop-color="#F4AA31"/>
<stop offset="1" stop-color="#FFE134"/>
</linearGradient>
<linearGradient id="paint11_linear_6103_442284" x1="59.1778" y1="103.45" x2="59.1778" y2="107.172" gradientUnits="userSpaceOnUse">
<stop stop-color="#560E04"/>
<stop offset="1" stop-color="#75362D" stop-opacity="0.3"/>
</linearGradient>
</defs>
</svg>
