<svg width="110" height="76" viewBox="0 0 110 76" fill="none" xmlns="http://www.w3.org/2000/svg">
<rect y="0.25" width="110" height="75" rx="5" fill="#191A1E"/>
<g clip-path="url(#clip0_28_7752)">
<mask id="mask0_28_7752" style="mask-type:alpha" maskUnits="userSpaceOnUse" x="10" y="15" width="20" height="21">
<rect x="10" y="15.25" width="20" height="20" fill="#F3B286"/>
</mask>
<g mask="url(#mask0_28_7752)">
<rect x="10" y="15.25" width="20" height="20" fill="url(#paint0_linear_28_7752)"/>
<path d="M13.6816 25.7195L29.4545 24.6726C28.8404 24.504 26.5644 24.3472 21.7242 24.6726C16.3696 25.0325 14.8857 25.4787 13.6816 25.7195Z" fill="#A71216"/>
<ellipse cx="1.89527" cy="1.25588" rx="1.89527" ry="1.25588" transform="matrix(0.949615 0.313418 -0.31342 0.949615 13.0684 16.2539)" fill="#AB090D"/>
<ellipse cx="1.121" cy="0.91853" rx="1.121" ry="0.91853" transform="matrix(0.949615 0.313418 -0.31342 0.949615 17.6177 19.0044)" fill="#AB090D"/>
<ellipse cx="1.06117" cy="0.869508" rx="1.06117" ry="0.869508" transform="matrix(0.748807 0.662788 -0.66279 0.748805 24.0791 17.916)" fill="#AB090D"/>
<ellipse cx="0.729066" cy="0.59739" rx="0.729066" ry="0.59739" transform="matrix(0.568425 0.822735 -0.822737 0.568423 22.0972 15.5752)" fill="#AB090D"/>
<path d="M19.2224 18.0941C18.3601 18.3809 17.6716 17.6123 17.5263 16.9685C17.484 16.7811 17.5573 16.5924 17.6799 16.4445C18.1517 15.8754 18.7648 15.4051 19.3249 15.103C19.552 14.9805 19.8181 15.1301 19.8462 15.3866C19.9633 16.4563 19.9311 17.8585 19.2224 18.0941Z" fill="#F1BB42"/>
<path fill-rule="evenodd" clip-rule="evenodd" d="M17.8706 17.6496C18.1332 17.6594 18.4207 17.6266 18.728 17.5378C19.3911 17.3462 19.7361 16.7631 19.8955 16.0946C19.9196 16.9965 19.7815 17.9085 19.2225 18.0944C18.6666 18.2793 18.183 18.0256 17.8706 17.6496Z" fill="url(#paint1_linear_28_7752)"/>
<path d="M21.8164 21.065C20.9131 21.165 20.4006 20.2694 20.3931 19.6095C20.391 19.4174 20.5022 19.2482 20.653 19.1292C21.2333 18.6714 21.9313 18.3396 22.5421 18.1613C22.7898 18.0891 23.0187 18.291 22.9926 18.5477C22.8834 19.6183 22.5587 20.9827 21.8164 21.065Z" fill="#F1BB42"/>
<path fill-rule="evenodd" clip-rule="evenodd" d="M20.5884 20.3473C20.8431 20.4118 21.131 20.4399 21.45 20.4173C22.1388 20.3686 22.5982 19.8702 22.8938 19.2495C22.7288 20.1368 22.4031 21.0001 21.8173 21.065C21.2352 21.1295 20.8153 20.7804 20.5884 20.3473Z" fill="url(#paint2_linear_28_7752)"/>
<path d="M20.1774 25.2991L13.7964 25.6865C14.1813 27.4338 15.373 28.8427 17.6826 28.5526C19.5303 28.3206 20.2501 26.4959 20.1774 25.2991Z" fill="#AB090D"/>
<mask id="mask1_28_7752" style="mask-type:alpha" maskUnits="userSpaceOnUse" x="13" y="25" width="8" height="4">
<path d="M20.1774 25.2991L13.7964 25.6865C14.1666 27.1916 15.346 28.3978 17.6569 28.1282C19.5056 27.9126 20.2401 26.3316 20.1774 25.2991Z" fill="white"/>
</mask>
<g mask="url(#mask1_28_7752)">
<path d="M20.1774 25.2991L13.7964 25.6865C14.1666 27.1916 15.346 28.3978 17.6569 28.1282C19.5056 27.9126 20.2401 26.3316 20.1774 25.2991Z" fill="white"/>
</g>
<path d="M29.0842 24.6049L23.8838 24.9604C24.1946 26.5092 25.1392 27.614 27.0218 27.3524C28.5278 27.1431 29.1414 25.666 29.0842 24.6049Z" fill="#AB090D"/>
<mask id="mask2_28_7752" style="mask-type:alpha" maskUnits="userSpaceOnUse" x="23" y="24" width="7" height="4">
<path d="M29.0842 24.6049L23.8838 24.9604C24.1855 26.3418 25.1235 27.3218 27.0068 27.0744C28.5134 26.8765 29.1353 25.5524 29.0842 24.6049Z" fill="white"/>
</mask>
<g mask="url(#mask2_28_7752)">
<path d="M29.0842 24.6049L23.8838 24.9604C24.1855 26.3418 25.1235 27.3218 27.0068 27.0744C28.5134 26.8765 29.1353 25.5524 29.0842 24.6049Z" fill="white"/>
</g>
<path d="M16.9847 33.9515L16.145 32.293H17.9218L17.3571 33.9262C17.2986 34.0954 17.0656 34.1112 16.9847 33.9515Z" fill="white"/>
<path d="M27.8331 30.6187C23.0673 31.8101 17.14 32.0899 14.772 32.0809C14.772 32.6292 16.8207 32.6546 20.1397 32.2437C23.4587 31.8328 26.8725 31.2638 27.3782 31.0742C27.7828 30.9224 27.85 30.7073 27.8331 30.6187Z" fill="black"/>
<ellipse cx="0.735113" cy="0.448965" rx="0.735113" ry="0.448965" transform="matrix(0.855845 0.517232 -0.517234 0.855844 21.1411 28.3618)" fill="#570D11"/>
<ellipse cx="0.593915" cy="0.362729" rx="0.593915" ry="0.362729" transform="matrix(-0.519866 0.854248 -0.854249 -0.519864 24.4761 28.6255)" fill="#570D11"/>
</g>
<mask id="mask3_28_7752" style="mask-type:alpha" maskUnits="userSpaceOnUse" x="10" y="15" width="20" height="21">
<rect x="10" y="15.25" width="20" height="20" fill="#F3B286"/>
</mask>
<g mask="url(#mask3_28_7752)">
<rect x="10" y="15.25" width="20" height="20" fill="url(#paint3_linear_28_7752)"/>
<ellipse cx="10.7887" cy="21.5153" rx="2.27068" ry="1.00841" transform="rotate(-5.09106 10.7887 21.5153)" fill="#67585D"/>
<ellipse cx="2.27068" cy="1.00841" rx="2.27068" ry="1.00841" transform="matrix(-0.996055 -0.0887389 -0.0887393 0.996055 33.2788 20.8257)" fill="#67585D"/>
<ellipse cx="10.7889" cy="19.2208" rx="1.06246" ry="0.60705" transform="rotate(-5.09106 10.7889 19.2208)" fill="#67585D"/>
<ellipse cx="1.06246" cy="0.60705" rx="1.06246" ry="0.60705" transform="matrix(-0.996055 -0.0887389 -0.0887393 0.996055 30 18.7104)" fill="#67585D"/>
<path fill-rule="evenodd" clip-rule="evenodd" d="M21.3379 14.9167C21.4923 14.9205 21.598 15.0948 21.5315 15.2281C21.0585 16.1757 20.4709 18.0387 20.8762 19.9896C20.9088 20.1469 21.1083 20.2072 21.2175 20.1016C21.4442 19.8824 21.7585 19.6175 22.093 19.4256C22.2316 19.3461 22.3939 19.4902 22.3597 19.6489C22.0749 20.9711 21.922 23.6013 23.1012 26.1145C24.1675 28.387 25.9915 29.2063 27.226 29.7607C27.8914 30.0596 28.3854 30.2815 28.4972 30.6126C28.6901 31.1843 28.3046 31.8221 27.9276 32.2469C27.8146 32.3743 27.9078 32.5838 28.0823 32.5633C28.3562 32.531 28.7005 32.461 29.0684 32.326C29.2119 32.2734 29.3733 32.3973 29.337 32.5465C29.2237 33.0117 28.9651 33.6559 28.4769 34.1369C28.3574 34.2547 28.4251 34.4753 28.6004 34.4832C29.2072 34.5105 30.1329 34.4246 31.0695 33.9895C31.1995 33.9291 31.3648 34.0275 31.3734 34.1755L31.5504 37.2183C31.5567 37.3257 31.4746 37.4107 31.367 37.408L21.0375 37.1538C21.0374 37.1538 21.0373 37.1539 21.0373 37.1539V37.1539C21.0373 37.154 21.0373 37.1541 21.0372 37.1541L9.68731 36.8747C9.57975 36.8721 9.48749 36.7829 9.48124 36.6755L9.30418 33.6327C9.29557 33.4847 9.44985 33.3935 9.58838 33.4579C10.6708 33.9617 11.9639 34.0937 12.7052 34.0905C12.88 34.0898 12.9223 33.8751 12.7887 33.751C12.243 33.2446 11.9086 32.5859 11.7408 32.1137C11.6869 31.9623 11.8344 31.846 11.9845 31.9058C12.3691 32.0593 12.7226 32.1465 13.0011 32.1924C13.1784 32.2216 13.2475 32.016 13.1193 31.8828C12.6917 31.4382 12.2308 30.7795 12.3576 30.2157C12.4311 29.8891 12.9008 29.6909 13.5332 29.424C14.7066 28.9288 16.4403 28.1971 17.2448 25.9706C18.1346 23.5083 17.6747 20.8631 17.235 19.5231C17.1822 19.3622 17.3281 19.2257 17.4764 19.3123C17.8342 19.5212 18.1803 19.8023 18.4332 20.0333C18.5551 20.1447 18.748 20.0939 18.7624 19.9379C18.9415 18.0013 18.1351 16.104 17.5503 15.1304C17.468 14.9934 17.5538 14.8238 17.7082 14.8276L19.3049 14.8669C19.3049 14.8669 19.305 14.8668 19.305 14.8668V14.8668C19.305 14.8667 19.305 14.8666 19.3051 14.8666L21.3379 14.9167Z" fill="url(#paint4_linear_28_7752)"/>
<ellipse cx="20.0975" cy="28.4002" rx="3.82794" ry="2.79668" fill="url(#paint5_linear_28_7752)"/>
<path d="M20.3702 26.3377L20.4915 28.8136M20.4915 28.8136C20.1324 29.8392 17.1844 30.2087 16.4805 28.2738M20.4915 28.8136C20.6141 29.1934 21.1782 29.7662 22.1973 29.6036C23.1012 29.4593 23.5548 28.7706 23.5192 28.319" stroke="#070002" stroke-width="0.292218" stroke-linecap="round"/>
<path d="M20.4085 27.2827L20.4085 27.2828C20.4062 27.283 20.4039 27.2831 20.4015 27.2832C20.3991 27.2833 20.3968 27.2834 20.3945 27.2835L20.3945 27.2834C20.2947 27.2852 20.0991 27.2474 19.9364 27.0106C19.7152 26.6888 19.5387 26.6142 19.0832 26.457C18.7312 26.3355 18.6986 25.7098 20.3133 25.6271C20.3157 25.627 20.318 25.6269 20.3203 25.6268C20.3226 25.6266 20.325 25.6265 20.3273 25.6264C21.9424 25.5509 21.9711 26.1768 21.6327 26.3321C21.1947 26.5331 21.0264 26.6245 20.8377 26.9664C20.6989 27.218 20.508 27.2747 20.4085 27.2827Z" fill="#98473C"/>
<path fill-rule="evenodd" clip-rule="evenodd" d="M21.6629 26.316C21.6532 26.3217 21.643 26.327 21.6325 26.3318C21.2025 26.5291 21.0325 26.6209 20.8479 26.9476C20.8294 26.7968 20.8367 26.5577 20.9724 26.4351C21.1271 26.2954 21.4878 26.2968 21.6629 26.316ZM19.9322 27.0045C19.7128 26.6877 19.5358 26.613 19.083 26.4568C19.0728 26.4532 19.0629 26.4493 19.0533 26.445C19.2231 26.4083 19.5888 26.3691 19.7585 26.4946C19.9096 26.6063 19.9378 26.8535 19.9322 27.0045Z" fill="#4F201C"/>
<path d="M14.8256 22.0139C13.4903 22.1371 12.4825 23.4834 11.4766 24.2307C12.1651 24.3094 12.7353 24.3963 13.717 24.8059C14.7092 25.2198 15.5627 25.5489 16.3316 25.1843C16.8317 24.9471 17.3575 24.5922 17.5605 24.3261C17.5605 23.1919 16.5856 21.8516 14.8256 22.0139Z" fill="#513939"/>
<mask id="mask4_28_7752" style="mask-type:alpha" maskUnits="userSpaceOnUse" x="12" y="22" width="6" height="4">
<path d="M15.038 22.3157C13.802 22.3647 12.6806 23.6841 12.2744 24.3377C12.8715 24.4973 13.0841 24.7796 13.9897 25.1532C14.905 25.5308 15.7179 25.5402 16.4272 25.2076C16.8886 24.9912 17.3751 24.5805 17.5623 24.3377C17.4535 23.5003 16.583 22.2544 15.038 22.3157Z" fill="white"/>
</mask>
<g mask="url(#mask4_28_7752)">
<path d="M15.038 22.3157C13.802 22.3647 12.6806 23.6841 12.2744 24.3377C12.8715 24.4973 13.0841 24.7796 13.9897 25.1532C14.905 25.5308 15.7179 25.5402 16.4272 25.2076C16.8886 24.9912 17.3751 24.5805 17.5623 24.3377C17.4535 23.5003 16.583 22.2544 15.038 22.3157Z" fill="#EDD67C"/>
<path d="M15.0614 25.7137C15.2237 25.9058 15.5136 25.9058 15.6758 25.7137C15.9874 25.3448 16.1816 24.8237 16.1816 24.2461C16.1816 23.6685 15.9874 23.1474 15.6758 22.7785C15.5136 22.5864 15.2237 22.5864 15.0614 22.7785C14.7499 23.1474 14.5557 23.6685 14.5557 24.2461C14.5557 24.8237 14.7499 25.3448 15.0614 25.7137Z" fill="#070002"/>
</g>
<path d="M25.6677 21.8569C27.024 21.982 28.0475 23.3495 29.0693 24.1085C28.37 24.1885 27.7908 24.2767 26.7936 24.6928C25.7859 25.1132 24.919 25.4475 24.1379 25.0771C23.63 24.8362 23.0959 24.4758 22.8898 24.2054C22.8898 23.0534 23.8799 21.692 25.6677 21.8569Z" fill="#513939"/>
<mask id="mask5_28_7752" style="mask-type:alpha" maskUnits="userSpaceOnUse" x="22" y="22" width="7" height="4">
<path d="M25.4522 22.1633C26.7077 22.2131 27.8467 23.5533 28.2593 24.2172C27.6528 24.3793 27.4368 24.666 26.517 25.0455C25.5874 25.429 24.7616 25.4386 24.0411 25.1007C23.5726 24.881 23.0784 24.4638 22.8883 24.2172C22.9988 23.3666 23.8829 22.1011 25.4522 22.1633Z" fill="white"/>
</mask>
<g mask="url(#mask5_28_7752)">
<path d="M25.4522 22.1633C26.7077 22.2131 27.8467 23.5533 28.2593 24.2172C27.6528 24.3793 27.4368 24.666 26.517 25.0455C25.5874 25.429 24.7616 25.4386 24.0411 25.1007C23.5726 24.881 23.0784 24.4638 22.8883 24.2172C22.9988 23.3666 23.8829 22.1011 25.4522 22.1633Z" fill="#EDD67C"/>
<path d="M25.4404 25.6625C25.2803 25.8563 24.9896 25.8563 24.8294 25.6625C24.5397 25.3116 24.3597 24.821 24.3597 24.278C24.3597 23.7349 24.5397 23.2443 24.8294 22.8935C24.9896 22.6996 25.2803 22.6996 25.4404 22.8935C25.7301 23.2443 25.9102 23.7349 25.9102 24.278C25.9102 24.821 25.7301 25.3116 25.4404 25.6625Z" fill="#070002"/>
</g>
</g>
</g>
<g clip-path="url(#clip1_28_7752)">
<mask id="mask6_28_7752" style="mask-type:alpha" maskUnits="userSpaceOnUse" x="10" y="45" width="20" height="21">
<rect x="10" y="45.25" width="19.9999" height="19.9999" fill="#F3B286"/>
</mask>
<g mask="url(#mask6_28_7752)">
<rect x="10" y="45.25" width="19.9999" height="19.9999" fill="url(#paint6_linear_28_7752)"/>
<path d="M13.2103 54.1585C10.483 54.1585 8.85404 54.4862 8.36865 54.8502V66.1023H31.6303V54.1585C29.6645 53.4668 27.381 54.1585 24.6773 53.8673C21.7806 53.5553 21.8083 50.2871 19.7854 50.2871C17.1943 50.2871 18.2157 54.1585 13.2103 54.1585Z" fill="url(#paint7_linear_28_7752)"/>
<ellipse cx="15.0073" cy="51.1147" rx="1.26516" ry="1.69722" fill="#CF8533"/>
<ellipse cx="15.0073" cy="50.8968" rx="1.26516" ry="1.47932" fill="black"/>
<ellipse cx="15.5338" cy="50.8967" rx="0.396118" ry="0.53053" fill="#F3F3F3"/>
<ellipse cx="24.0674" cy="51.1147" rx="1.26516" ry="1.69722" fill="#CF8533"/>
<ellipse cx="24.0674" cy="50.8968" rx="1.26516" ry="1.47932" fill="black"/>
<ellipse cx="23.723" cy="50.8967" rx="0.404202" ry="0.53053" fill="#F3F3F3"/>
<ellipse cx="14.7943" cy="47.5525" rx="2.06463" ry="1.00365" transform="rotate(7.52549 14.7943 47.5525)" fill="white"/>
<ellipse cx="2.06463" cy="1.00365" rx="2.06463" ry="1.00365" transform="matrix(-0.991387 0.130967 0.130968 0.991387 26.3804 46.2871)" fill="white"/>
<path d="M19.835 55.083V58.0841" stroke="#581E0F" stroke-width="0.194811"/>
<path d="M19.8626 55.5048L19.8626 55.505C19.8592 55.505 19.8557 55.5051 19.8521 55.505C19.8485 55.5051 19.845 55.5051 19.8415 55.505L19.8415 55.5048C19.691 55.5004 19.3991 55.4294 19.1708 55.061C18.8606 54.5603 18.9629 54.4353 18.2878 54.1658C17.7662 53.9576 17.3991 53.0125 19.8379 53.0036C19.8414 53.0036 19.8449 53.0035 19.8484 53.0035C19.8519 53.0035 19.8555 53.0035 19.859 53.0035C22.2978 53.0054 21.9335 53.9504 21.4124 54.1602C20.7381 54.4317 20.8408 54.5574 20.5321 55.059C20.3049 55.4281 20.0131 55.4999 19.8626 55.5048Z" fill="url(#paint8_linear_28_7752)"/>
<path fill-rule="evenodd" clip-rule="evenodd" d="M21.4699 54.1335C21.4511 54.1433 21.4319 54.1521 21.4124 54.16C20.9291 54.3546 20.845 54.4743 20.7223 54.7112C20.7044 54.5062 20.7117 54.1327 20.8699 54.0454C21.0186 53.9634 21.3037 54.0576 21.4699 54.1335ZM18.9428 54.6457C18.835 54.4529 18.7228 54.3392 18.2878 54.1656C18.2602 54.1545 18.2329 54.1414 18.2065 54.1265C18.3745 54.0519 18.6467 53.9659 18.7908 54.0454C18.9333 54.1241 18.9534 54.4349 18.9428 54.6457Z" fill="#210A04"/>
<path d="M21.5292 56.2763C20.1807 56.5954 18.9618 56.1952 18.2658 55.9862C18.1703 55.9575 18.0767 56.0324 18.0767 56.1357V58.5471C18.0767 59.5191 18.8346 60.307 19.7695 60.307C20.621 60.307 21.34 59.6495 21.4485 58.7715L21.7338 56.4639C21.7485 56.3454 21.6413 56.2498 21.5292 56.2763Z" fill="url(#paint9_linear_28_7752)"/>
<path d="M21.1772 59.5248C20.8114 59.1178 20.1788 58.7704 19.422 58.608C18.9406 58.5048 18.4768 58.491 18.0767 58.5521C18.0793 59.5217 18.8362 60.3068 19.7695 60.3068C20.3515 60.3068 20.8716 59.9996 21.1772 59.5248Z" fill="#FFA0A3"/>
<ellipse cx="23.0873" cy="54.6869" rx="0.309942" ry="0.309941" fill="#CC9D61"/>
<ellipse cx="24.7811" cy="54.8695" rx="0.309942" ry="0.309941" fill="#CC9D61"/>
<ellipse cx="23.6929" cy="56.1822" rx="0.401414" ry="0.401414" fill="#CC9D61"/>
<ellipse cx="14.9929" cy="54.9433" rx="0.309942" ry="0.309941" transform="rotate(-2.55154 14.9929 54.9433)" fill="#CC9D61"/>
<ellipse cx="16.6936" cy="54.8329" rx="0.309942" ry="0.309941" transform="rotate(-2.55154 16.6936 54.8329)" fill="#CC9D61"/>
<ellipse cx="15.664" cy="56.1927" rx="0.401414" ry="0.401414" transform="rotate(-2.55154 15.664 56.1927)" fill="#CC9D61"/>
</g>
</g>
<path d="M35 17.25C35 13.384 38.134 10.25 42 10.25H93C96.866 10.25 100 13.384 100 17.25V28.25C100 32.116 96.866 35.25 93 35.25H35V17.25Z" fill="#048DFF"/>
<g opacity="0.8">
<path d="M87.8633 19.0889H57.8298" stroke="white" stroke-width="2" stroke-linecap="round"/>
<path d="M87.8633 26.4111H47.1369" stroke="white" stroke-width="2" stroke-linecap="round"/>
</g>
<path d="M100 47.25C100 43.384 96.866 40.25 93 40.25H42C38.134 40.25 35 43.384 35 47.25V65.25H93C96.866 65.25 100 62.116 100 58.25V47.25Z" fill="#454A57"/>
<g opacity="0.8">
<path d="M47.1367 49.0889H87.8631" stroke="white" stroke-width="2" stroke-linecap="round"/>
<path d="M47.1367 56.4111H71.5463" stroke="white" stroke-width="2" stroke-linecap="round"/>
</g>
<defs>
<linearGradient id="paint0_linear_28_7752" x1="20" y1="15.25" x2="20" y2="35.25" gradientUnits="userSpaceOnUse">
<stop stop-color="#DA1818"/>
<stop offset="1" stop-color="#F23F4F"/>
</linearGradient>
<linearGradient id="paint1_linear_28_7752" x1="18.7683" y1="16.3356" x2="19.2451" y2="18.5649" gradientUnits="userSpaceOnUse">
<stop stop-color="#D69C1C"/>
<stop offset="1" stop-color="#D69C1C" stop-opacity="0"/>
</linearGradient>
<linearGradient id="paint2_linear_28_7752" x1="21.7411" y1="19.2495" x2="21.7411" y2="21.53" gradientUnits="userSpaceOnUse">
<stop stop-color="#D69C1C"/>
<stop offset="1" stop-color="#D69C1C" stop-opacity="0"/>
</linearGradient>
<linearGradient id="paint3_linear_28_7752" x1="20" y1="15.25" x2="20" y2="35.25" gradientUnits="userSpaceOnUse">
<stop stop-color="#7B7174"/>
<stop offset="1" stop-color="#9A8F92"/>
</linearGradient>
<linearGradient id="paint4_linear_28_7752" x1="19.2309" y1="14.8648" x2="18.6838" y2="37.0961" gradientUnits="userSpaceOnUse">
<stop stop-color="#DCD1CB"/>
<stop offset="1" stop-color="#FFF9F5"/>
</linearGradient>
<linearGradient id="paint5_linear_28_7752" x1="20.0975" y1="25.6035" x2="20.0975" y2="30.5032" gradientUnits="userSpaceOnUse">
<stop stop-color="#BFB9B6"/>
<stop offset="1" stop-color="#E7D3B2" stop-opacity="0"/>
</linearGradient>
<linearGradient id="paint6_linear_28_7752" x1="20" y1="45.25" x2="20" y2="65.2499" gradientUnits="userSpaceOnUse">
<stop stop-color="#FC9D36"/>
<stop offset="0.515625" stop-color="#FBBA73"/>
</linearGradient>
<linearGradient id="paint7_linear_28_7752" x1="19.9995" y1="51.8287" x2="19.9995" y2="65.76" gradientUnits="userSpaceOnUse">
<stop stop-color="#FFE4C2"/>
<stop offset="1" stop-color="#FFFAF3"/>
</linearGradient>
<linearGradient id="paint8_linear_28_7752" x1="19.8484" y1="53.0035" x2="19.8521" y2="55.505" gradientUnits="userSpaceOnUse">
<stop stop-color="#884332"/>
<stop offset="1" stop-color="#662616"/>
</linearGradient>
<linearGradient id="paint9_linear_28_7752" x1="19.9207" y1="55.9311" x2="19.9207" y2="60.307" gradientUnits="userSpaceOnUse">
<stop stop-color="#E2252B"/>
<stop offset="1" stop-color="#DD353B"/>
</linearGradient>
<clipPath id="clip0_28_7752">
<rect x="10" y="15.25" width="20" height="20" rx="3.33334" fill="white"/>
</clipPath>
<clipPath id="clip1_28_7752">
<rect x="10" y="45.25" width="20" height="20" rx="3.33334" fill="white"/>
</clipPath>
</defs>
</svg>
